<?xml version="1.0" encoding="utf-8"?>
<!-- Generator: Adobe Illustrator 16.0.0, SVG Export Plug-In . SVG Version: 6.00 Build 0)  -->
<!DOCTYPE svg PUBLIC "-//W3C//DTD SVG 1.1//EN" "http://www.w3.org/Graphics/SVG/1.1/DTD/svg11.dtd">
<svg version="1.1" xmlns="http://www.w3.org/2000/svg" xmlns:xlink="http://www.w3.org/1999/xlink" x="0px" y="0px"
	 width="408.19px" height="56.747px" viewBox="0 0 408.19 56.747" enable-background="new 0 0 408.19 56.747" xml:space="preserve">
<g id="レイヤー_0">
</g>
<g id="レイヤー_1">
</g>
<g id="レイヤー_2">
	<rect x="2.667" y="6.507" fill="#5176A9" width="61" height="29"/>
	<rect x="92.583" y="6.507" fill="#5176A9" width="86.75" height="29"/>
	<rect x="212.592" y="6.507" fill="#45B035" width="150.189" height="29"/>
	<rect x="67.917" y="11.747" fill="#DB5434" width="17" height="18.52"/>
	<g>
		<path fill="#FFFFFF" d="M14.25,25.274c-0.998,0.182-2.312,0.26-3.446,0.26c-0.953,0-1.78-0.057-2.222-0.146
			C7.209,25.081,6.62,24.22,6.62,23.222c0-0.873,0.487-1.746,1.156-2.426l0.658,0.34c-0.635,0.658-0.998,1.383-0.998,2.018
			c0,0.658,0.442,1.26,1.417,1.475c0.397,0.09,1.066,0.137,1.848,0.137c1.1,0,2.415-0.092,3.492-0.307L14.25,25.274z M9.16,19.548
			c0.589-0.453,1.395-1.008,2.007-1.314v-0.012c-0.862,0.102-2.834,0.148-4.093,0.137c0-0.215,0-0.59-0.011-0.793
			c0.249,0.01,4.603,0.078,6.462-0.363l0.091,0.838c-1.349,0.16-3.084,1.338-3.81,1.916L9.16,19.548z"/>
		<path fill="#FFFFFF" d="M16.7,25.647c0.839-2.402,2.233-6.416,2.675-7.617c0.215-0.613,0.51-1.475,0.59-1.758l1.224,0.316
			c-0.057,0.16-0.215,0.217-0.442,0.217c-0.624,1.553-1.587,4.205-2.007,5.34h0.011c0.669-0.816,1.689-1.395,2.483-1.395
			c0.986,0,1.462,0.668,1.429,1.723l-0.034,1.35c-0.011,0.85,0.442,1.314,1.179,1.314c1.021,0,1.961-1.168,2.483-3.117
			c0.227,0.158,0.499,0.307,0.737,0.42c-0.624,2.164-1.746,3.525-3.254,3.525c-1.202,0-1.984-0.727-1.984-1.883
			c0-0.215,0.034-1.258,0.034-1.496c0-0.715-0.295-1.088-0.794-1.088c-1.304,0-2.619,1.893-2.902,2.629
			c-0.159,0.398-0.408,1.123-0.624,1.781L16.7,25.647z"/>
		<path fill="#FFFFFF" d="M30.465,16.749c-0.034,0.123-0.147,0.191-0.375,0.182c-0.396,1.848-0.601,3.877-0.601,5.102
			c0,0.85,0.034,1.711,0.147,2.244c0.215-0.555,0.703-1.746,0.861-2.143l0.476,0.498c-0.465,1.146-0.805,1.791-0.963,2.303
			c-0.057,0.191-0.091,0.373-0.091,0.531c0,0.125,0.022,0.238,0.057,0.352l-0.805,0.148c-0.363-1.078-0.499-2.393-0.499-3.9
			c0-1.484,0.238-3.561,0.601-5.521L30.465,16.749z M37.687,25.036c-0.408,0.021-0.828,0.033-1.247,0.033
			c-0.805,0-1.564-0.045-2.109-0.125c-1.395-0.203-2.041-0.975-2.041-1.881c0-0.783,0.431-1.439,1.065-2.188l0.737,0.316
			c-0.567,0.59-0.964,1.135-0.964,1.779c0,1.316,1.927,1.316,3.106,1.316c0.476,0,0.986-0.023,1.462-0.057L37.687,25.036z
			 M32.438,18.108c1.462-0.033,3.435-0.17,4.943-0.43l0.068,0.793c-1.406,0.238-3.685,0.385-4.988,0.42L32.438,18.108z"/>
		<path fill="#FFFFFF" d="M48.197,18.2c-1.474,0.373-3.526,0.611-4.875,0.656c-0.147,1.418-0.352,2.586-0.533,3.006
			c0.884-0.715,2.256-1.203,3.22-1.203c1.689,0,2.721,0.908,2.721,2.438c0,2.256-2.279,3.016-5.963,3.107
			c-0.045-0.217-0.125-0.557-0.227-0.748c3.254-0.068,5.362-0.625,5.362-2.336c0-1.021-0.68-1.723-1.995-1.723
			c-1.009,0-2.744,0.611-3.492,1.734l-0.793-0.375c0.363-0.408,0.737-2.029,0.907-3.889h-2.653v-0.793
			c0.477,0.012,1.871,0.012,2.721,0.012c0.045-0.646,0.068-1.373,0.068-2.053l1.202,0.113c-0.022,0.193-0.159,0.227-0.363,0.25
			c-0.022,0.566-0.057,1.145-0.102,1.678c1.202-0.035,3.288-0.295,4.648-0.691L48.197,18.2z"/>
		<path fill="#FFFFFF" d="M51.69,25.808c-0.352-0.816-0.488-2.506-0.488-3.992c0-1.508,0.238-3.4,0.612-5.293l1.1,0.215
			c-0.022,0.113-0.136,0.193-0.295,0.203c-0.408,1.555-0.657,3.572-0.657,4.887c0,0.861,0.011,1.723,0.102,2.143
			c0.25-0.68,0.703-1.768,0.941-2.301l0.51,0.477c-0.374,0.77-1.168,2.494-1.168,3.027c0,0.158,0.034,0.328,0.113,0.543
			L51.69,25.808z M54.57,19.13c0.952,0.01,1.905,0.021,2.857-0.047c-0.045-0.975-0.079-1.812-0.102-2.652l1.145,0.035
			c-0.011,0.113-0.113,0.203-0.294,0.236c0.011,0.727,0.034,1.463,0.057,2.324c0.896-0.09,1.621-0.248,2.222-0.453l0.102,0.795
			c-0.544,0.17-1.327,0.328-2.291,0.406c0.045,1.26,0.102,2.586,0.136,3.311c0.862,0.352,1.723,0.908,2.313,1.441l-0.442,0.725
			c-0.465-0.465-1.134-0.963-1.836-1.293c-0.012,0.965-0.193,2.041-1.894,2.041c-1.326,0-2.21-0.635-2.21-1.633
			c0-1.156,1.167-1.666,2.21-1.666c0.352,0,0.726,0.045,1.077,0.148c-0.034-0.715-0.102-1.906-0.159-3.016
			c-0.352,0.021-0.828,0.033-1.156,0.033h-1.724L54.57,19.13z M57.676,23.585c-0.363-0.113-0.748-0.205-1.123-0.205
			c-0.691,0-1.519,0.25-1.519,0.965c0,0.635,0.68,0.951,1.508,0.951c0.839,0,1.145-0.408,1.145-1.314L57.676,23.585z"/>
		<path fill="#FFFFFF" d="M77.883,15.173v4.844h4.844v1.738h-4.844v5.309h-1.786v-5.309h-5.016v-1.738h5.016v-4.844H77.883z"/>
		<path fill="#FFFFFF" d="M100.497,17.638v0.666h-1.086v4.029c0,0.512-0.005,1.049-0.275,1.555
			c-0.327,0.613-0.939,0.941-1.608,0.941c-0.625,0-1.23-0.283-1.648-0.783l0.528-0.646c0.067,0.062,0.02,0.141,0.07,0.205
			c0.024,0.033,0.472,0.523,1.062,0.523c0.339,0,0.646-0.17,0.835-0.451c0.263-0.391,0.253-0.896,0.253-1.334v-4.039h-1.36v-0.666
			H100.497z"/>
		<path fill="#FFFFFF" d="M103.867,19.407c0.804,0,1.461,0.295,1.801,0.861c0.239,0.398,0.254,0.799,0.254,1.225v3.209h-0.773
			v-0.568c-0.565,0.463-1.224,0.695-1.86,0.695c-1.082,0-1.742-0.707-1.742-1.467c0-0.574,0.371-1.18,1.188-1.479
			c0.659-0.242,1.476-0.234,2.238-0.234h0.167v-0.186c0-0.275,0.004-0.609-0.168-0.893c-0.146-0.24-0.45-0.498-1.065-0.498
			c-0.479,0-1.062,0.133-1.486,0.578l-0.401-0.52C102.502,19.632,103.168,19.407,103.867,19.407z M104.982,22.274
			c-0.538,0-1.231-0.033-1.702,0.08c-0.649,0.154-0.914,0.576-0.914,0.953c0,0.463,0.401,0.896,1.088,0.896
			c0.678,0,1.174-0.41,1.362-0.611c0.349-0.371,0.352-0.707,0.352-0.975v-0.344H104.982z"/>
		<path fill="#FFFFFF" d="M108.089,19.517c0.02,0.092-0.037,0.152-0.037,0.221c0,0.027,0.007,0.049,0.017,0.072l1.497,3.787
			l0.832-1.928c0.293-0.68,0.567-1.398,0.705-2.152h0.734c-0.172,0.789-0.463,1.545-0.773,2.27l-1.262,2.955h-0.636l-2.055-5.225
			H108.089z"/>
		<path fill="#FFFFFF" d="M115.206,19.407c0.804,0,1.461,0.295,1.801,0.861c0.239,0.398,0.254,0.799,0.254,1.225v3.209h-0.773
			v-0.568c-0.565,0.463-1.224,0.695-1.86,0.695c-1.082,0-1.742-0.707-1.742-1.467c0-0.574,0.371-1.18,1.188-1.479
			c0.659-0.242,1.476-0.234,2.238-0.234h0.167v-0.186c0-0.275,0.004-0.609-0.168-0.893c-0.146-0.24-0.45-0.498-1.065-0.498
			c-0.479,0-1.062,0.133-1.486,0.578l-0.401-0.52C113.841,19.632,114.507,19.407,115.206,19.407z M116.321,22.274
			c-0.538,0-1.231-0.033-1.702,0.08c-0.649,0.154-0.914,0.576-0.914,0.953c0,0.463,0.401,0.896,1.088,0.896
			c0.678,0,1.174-0.41,1.362-0.611c0.349-0.371,0.352-0.707,0.352-0.975v-0.344H116.321z"/>
		<path fill="#FFFFFF" d="M122.431,19.153c-0.025-0.006-0.058-0.029-0.06-0.092c-0.001-0.041,0.004-0.066-0.026-0.109
			c-0.273-0.398-0.78-0.699-1.438-0.699c-0.809,0-1.276,0.494-1.276,1.035c0,0.289,0.13,0.707,0.722,1.053
			c0.646,0.379,1.642,0.58,2.256,1.158c0.442,0.416,0.549,0.91,0.549,1.279c0,0.889-0.635,2.041-2.354,2.041
			c-0.872,0-1.663-0.305-2.219-0.91l0.47-0.812c0.054,0.027,0.052,0.09,0.051,0.109c0,0.047-0.003,0.074,0.032,0.119
			c0.316,0.4,0.913,0.779,1.688,0.779c1.025,0,1.542-0.666,1.542-1.281c0-0.314-0.129-0.684-0.593-0.975
			c-0.534-0.334-1.553-0.58-2.208-1.062c-0.589-0.436-0.751-0.965-0.751-1.377c0-0.967,0.876-1.811,2.152-1.811
			c0.77,0,1.48,0.312,1.959,0.881L122.431,19.153z"/>
		<path fill="#FFFFFF" d="M128.267,21.052c-0.09-0.066-0.028-0.174-0.071-0.262c-0.03-0.061-0.456-0.678-1.34-0.678
			c-0.952,0-1.71,0.736-1.71,1.918c0,1.209,0.77,2.055,1.779,2.055c0.519,0,1.022-0.229,1.372-0.625l0.47,0.547
			c-0.494,0.533-1.187,0.822-1.91,0.822c-1.465,0-2.552-1.154-2.552-2.715c0-1.555,1.081-2.695,2.604-2.695
			c0.833,0,1.529,0.359,1.937,0.959L128.267,21.052z"/>
		<path fill="#FFFFFF" d="M131.314,19.526l-0.029,0.998c0.339-0.74,1.107-1.123,1.864-1.123c0.582,0,1.059,0.23,1.384,0.564
			l-0.381,0.783c-0.087-0.084-0.125-0.174-0.192-0.26c-0.146-0.186-0.419-0.389-0.855-0.389c-0.366,0-0.984,0.129-1.455,0.873
			c-0.352,0.557-0.364,0.9-0.364,1.213v2.525h-0.822v-5.186H131.314z"/>
		<path fill="#FFFFFF" d="M138.285,19.517v4.529h1.213v0.656h-3.356v-0.656h1.321v-3.865h-1.252v-0.664H138.285z M138.481,17.849
			c0,0.32-0.263,0.582-0.587,0.582s-0.587-0.262-0.587-0.582s0.262-0.582,0.587-0.582S138.481,17.526,138.481,17.849z"/>
		<path fill="#FFFFFF" d="M142.184,19.526v0.793c0.352-0.566,0.971-0.91,1.636-0.91c1.019,0,2.102,0.816,2.102,2.645
			c0,1.898-1.114,2.787-2.173,2.787c-0.629,0-1.209-0.312-1.555-0.824v2.574h-0.832l-0.01-7.064H142.184z M142.319,20.854
			c-0.114,0.27-0.137,0.584-0.137,1.021c0,0.75-0.003,1.176,0.148,1.525c0.205,0.471,0.693,0.715,1.184,0.715
			c0.485,0,1.557-0.262,1.557-1.895c0-1.881-1.097-2.117-1.552-2.117C142.998,20.104,142.517,20.39,142.319,20.854z"/>
		<path fill="#FFFFFF" d="M149.37,17.989c0.04,0.115-0.042,0.186-0.064,0.307c-0.053,0.287-0.131,1.221-0.131,1.221h1.692v0.674
			h-1.702c-0.065,0.674-0.098,1.35-0.098,2.027c0,0.75,0.027,0.949,0.033,0.996c0.083,0.621,0.485,0.836,0.871,0.836
			c0.319,0,0.721-0.146,1.16-0.473l0.254,0.645c-0.438,0.32-1.039,0.578-1.655,0.578c-0.529,0-0.934-0.205-1.18-0.551
			c-0.301-0.424-0.306-0.945-0.306-1.41c0-0.879,0.036-1.762,0.108-2.648h-1.213l0.01-0.664h1.233l0.098-1.391L149.37,17.989z"/>
		<path fill="#FFFFFF" d="M165.099,18.517c-1.032,0.295-2.415,0.5-3.775,0.623c0.442,1.543,0.918,2.461,2.143,2.994l-0.555,0.691
			c-0.522-0.396-1.055-0.703-2.528-0.783l-0.136-0.668c0.556,0.045,0.975,0.113,1.258,0.17c-0.396-0.477-0.703-1.201-1.009-2.348
			c-0.51,0.047-1.202,0.068-1.882,0.068c-0.737,0-1.939-0.012-2.665-0.033V18.46c0.68,0.035,1.644,0.035,2.676,0.035
			c0.578,0,1.236-0.012,1.689-0.057c-0.136-0.613-0.261-1.451-0.396-2.324l1.213,0.021c-0.011,0.137-0.113,0.215-0.295,0.262
			c0.068,0.646,0.182,1.359,0.306,1.984c1.304-0.115,2.778-0.352,3.775-0.67L165.099,18.517z M163.07,25.978
			c-0.544,0.021-1.123,0.033-2.109,0.033c-2.37,0-4.047-0.725-4.047-2.244c0-0.646,0.396-1.305,1.02-1.904l0.612,0.486
			c-0.51,0.408-0.816,0.965-0.816,1.395c0,1.123,1.451,1.486,3.253,1.486c0.986,0,1.565-0.023,2.143-0.057L163.07,25.978z"/>
		<path fill="#FFFFFF" d="M166.744,25.647c0.839-2.402,2.233-6.416,2.675-7.617c0.215-0.613,0.51-1.475,0.59-1.758l1.224,0.316
			c-0.057,0.16-0.215,0.217-0.442,0.217c-0.624,1.553-1.587,4.205-2.007,5.34h0.011c0.669-0.816,1.689-1.395,2.483-1.395
			c0.986,0,1.462,0.668,1.429,1.723l-0.034,1.35c-0.011,0.85,0.442,1.314,1.179,1.314c1.021,0,1.961-1.168,2.483-3.117
			c0.227,0.158,0.499,0.307,0.737,0.42c-0.624,2.164-1.746,3.525-3.254,3.525c-1.202,0-1.984-0.727-1.984-1.883
			c0-0.215,0.034-1.258,0.034-1.496c0-0.715-0.295-1.088-0.794-1.088c-1.304,0-2.619,1.893-2.902,2.629
			c-0.159,0.398-0.408,1.123-0.624,1.781L166.744,25.647z"/>
	</g>
	<g>
		<path fill="#FFFFFF" d="M226.264,24.259c-0.997,0.182-2.312,0.26-3.445,0.26c-0.953,0-1.781-0.057-2.223-0.146
			c-1.372-0.307-1.961-1.168-1.961-2.166c0-0.873,0.486-1.746,1.156-2.426l0.657,0.34c-0.635,0.658-0.997,1.383-0.997,2.018
			c0,0.658,0.441,1.26,1.416,1.475c0.397,0.09,1.066,0.137,1.849,0.137c1.1,0,2.415-0.092,3.491-0.307L226.264,24.259z
			 M221.174,18.532c0.59-0.453,1.395-1.008,2.007-1.314v-0.012c-0.862,0.102-2.835,0.148-4.093,0.137c0-0.215,0-0.59-0.012-0.793
			c0.25,0.01,4.604,0.078,6.463-0.363l0.09,0.838c-1.349,0.16-3.084,1.338-3.809,1.916L221.174,18.532z"/>
		<path fill="#FFFFFF" d="M228.715,24.632c0.838-2.402,2.232-6.416,2.675-7.617c0.216-0.613,0.511-1.475,0.59-1.758l1.224,0.316
			c-0.057,0.16-0.215,0.217-0.441,0.217c-0.623,1.553-1.588,4.205-2.007,5.34h0.011c0.67-0.816,1.689-1.395,2.483-1.395
			c0.986,0,1.462,0.668,1.429,1.723l-0.034,1.35c-0.011,0.85,0.442,1.314,1.179,1.314c1.021,0,1.962-1.168,2.483-3.117
			c0.227,0.158,0.499,0.307,0.737,0.42c-0.624,2.164-1.746,3.525-3.254,3.525c-1.202,0-1.984-0.727-1.984-1.883
			c0-0.215,0.034-1.258,0.034-1.496c0-0.715-0.295-1.088-0.794-1.088c-1.304,0-2.619,1.893-2.902,2.629
			c-0.158,0.398-0.408,1.123-0.623,1.781L228.715,24.632z"/>
		<path fill="#FFFFFF" d="M242.479,15.733c-0.033,0.123-0.146,0.191-0.374,0.182c-0.396,1.848-0.601,3.877-0.601,5.102
			c0,0.85,0.033,1.711,0.147,2.244c0.216-0.555,0.702-1.746,0.861-2.143l0.476,0.498c-0.465,1.146-0.805,1.791-0.963,2.303
			c-0.057,0.191-0.091,0.373-0.091,0.531c0,0.125,0.022,0.238,0.057,0.352l-0.805,0.148c-0.362-1.078-0.499-2.393-0.499-3.9
			c0-1.484,0.238-3.561,0.602-5.521L242.479,15.733z M249.701,24.021c-0.408,0.021-0.828,0.033-1.248,0.033
			c-0.805,0-1.564-0.045-2.108-0.125c-1.395-0.203-2.04-0.975-2.04-1.881c0-0.783,0.43-1.439,1.064-2.188l0.738,0.316
			c-0.567,0.59-0.965,1.135-0.965,1.779c0,1.316,1.928,1.316,3.107,1.316c0.476,0,0.986-0.023,1.462-0.057L249.701,24.021z
			 M244.451,17.093c1.463-0.033,3.436-0.17,4.943-0.43l0.068,0.793c-1.406,0.238-3.686,0.385-4.988,0.42L244.451,17.093z"/>
		<path fill="#FFFFFF" d="M260.211,17.185c-1.474,0.373-3.525,0.611-4.875,0.656c-0.146,1.418-0.352,2.586-0.532,3.006
			c0.884-0.715,2.256-1.203,3.22-1.203c1.689,0,2.721,0.908,2.721,2.438c0,2.256-2.279,3.016-5.963,3.107
			c-0.046-0.217-0.125-0.557-0.227-0.748c3.254-0.068,5.361-0.625,5.361-2.336c0-1.021-0.68-1.723-1.994-1.723
			c-1.01,0-2.744,0.611-3.492,1.734l-0.794-0.375c0.362-0.408,0.737-2.029,0.907-3.889h-2.653V17.06
			c0.477,0.012,1.87,0.012,2.722,0.012c0.045-0.646,0.067-1.373,0.067-2.053l1.202,0.113c-0.023,0.193-0.159,0.227-0.363,0.25
			c-0.022,0.566-0.057,1.145-0.102,1.678c1.201-0.035,3.287-0.295,4.648-0.691L260.211,17.185z"/>
		<path fill="#FFFFFF" d="M263.705,24.792c-0.352-0.816-0.488-2.506-0.488-3.992c0-1.508,0.238-3.4,0.612-5.293l1.1,0.215
			c-0.022,0.113-0.136,0.193-0.295,0.203c-0.407,1.555-0.657,3.572-0.657,4.887c0,0.861,0.012,1.723,0.102,2.143
			c0.25-0.68,0.703-1.768,0.941-2.301l0.51,0.477c-0.373,0.77-1.168,2.494-1.168,3.027c0,0.158,0.035,0.328,0.113,0.543
			L263.705,24.792z M266.584,18.114c0.952,0.01,1.904,0.021,2.857-0.047c-0.046-0.975-0.08-1.812-0.103-2.652l1.146,0.035
			c-0.012,0.113-0.113,0.203-0.295,0.236c0.012,0.727,0.033,1.463,0.057,2.324c0.896-0.09,1.621-0.248,2.223-0.453l0.102,0.795
			c-0.545,0.17-1.326,0.328-2.291,0.406c0.046,1.26,0.103,2.586,0.137,3.311c0.861,0.352,1.723,0.908,2.312,1.441l-0.441,0.725
			c-0.465-0.465-1.135-0.963-1.837-1.293c-0.012,0.965-0.192,2.041-1.894,2.041c-1.326,0-2.211-0.635-2.211-1.633
			c0-1.156,1.168-1.666,2.211-1.666c0.352,0,0.726,0.045,1.077,0.148c-0.034-0.715-0.103-1.906-0.159-3.016
			c-0.352,0.021-0.827,0.033-1.156,0.033h-1.723L266.584,18.114z M269.69,22.569c-0.362-0.113-0.748-0.205-1.122-0.205
			c-0.691,0-1.52,0.25-1.52,0.965c0,0.635,0.68,0.951,1.508,0.951c0.839,0,1.145-0.408,1.145-1.314L269.69,22.569z"/>
		<path fill="#FFFFFF" d="M281.522,16.62v0.666h-1.086v4.031c0,0.512-0.005,1.049-0.275,1.555c-0.327,0.611-0.939,0.941-1.608,0.941
			c-0.625,0-1.23-0.283-1.648-0.783l0.528-0.646c0.067,0.062,0.021,0.141,0.07,0.205c0.024,0.031,0.472,0.521,1.062,0.521
			c0.339,0,0.646-0.168,0.835-0.449c0.264-0.393,0.254-0.896,0.254-1.334v-4.041h-1.36V16.62H281.522z"/>
		<path fill="#FFFFFF" d="M284.893,18.392c0.803,0,1.461,0.293,1.801,0.859c0.238,0.398,0.254,0.801,0.254,1.225v3.209h-0.773
			v-0.566c-0.564,0.463-1.223,0.693-1.859,0.693c-1.082,0-1.742-0.705-1.742-1.465c0-0.574,0.371-1.18,1.188-1.48
			c0.658-0.242,1.476-0.234,2.238-0.234h0.166v-0.186c0-0.273,0.004-0.607-0.168-0.891c-0.146-0.24-0.45-0.498-1.065-0.498
			c-0.479,0-1.062,0.133-1.485,0.576l-0.402-0.518C283.527,18.616,284.193,18.392,284.893,18.392z M286.008,21.259
			c-0.538,0-1.231-0.033-1.701,0.078c-0.65,0.154-0.914,0.578-0.914,0.955c0,0.463,0.4,0.896,1.088,0.896
			c0.678,0,1.174-0.412,1.361-0.611c0.35-0.371,0.352-0.707,0.352-0.977v-0.342H286.008z"/>
		<path fill="#FFFFFF" d="M289.114,18.499c0.02,0.094-0.036,0.154-0.036,0.223c0,0.027,0.007,0.047,0.016,0.072l1.498,3.785
			l0.831-1.928c0.294-0.68,0.567-1.396,0.704-2.152h0.734c-0.172,0.789-0.463,1.545-0.773,2.27l-1.262,2.955h-0.636l-2.055-5.225
			H289.114z"/>
		<path fill="#FFFFFF" d="M296.23,18.392c0.805,0,1.461,0.293,1.801,0.859c0.24,0.398,0.255,0.801,0.255,1.225v3.209h-0.772v-0.566
			c-0.565,0.463-1.225,0.693-1.86,0.693c-1.082,0-1.743-0.705-1.743-1.465c0-0.574,0.371-1.18,1.188-1.48
			c0.659-0.242,1.476-0.234,2.238-0.234h0.167v-0.186c0-0.273,0.004-0.607-0.169-0.891c-0.146-0.24-0.45-0.498-1.065-0.498
			c-0.479,0-1.062,0.133-1.486,0.576l-0.4-0.518C294.866,18.616,295.532,18.392,296.23,18.392z M297.347,21.259
			c-0.538,0-1.231-0.033-1.702,0.078c-0.648,0.154-0.913,0.578-0.913,0.955c0,0.463,0.401,0.896,1.088,0.896
			c0.679,0,1.174-0.412,1.362-0.611c0.35-0.371,0.352-0.707,0.352-0.977v-0.342H297.347z"/>
		<path fill="#FFFFFF" d="M303.457,18.138c-0.025-0.008-0.059-0.029-0.061-0.094c-0.001-0.041,0.004-0.064-0.025-0.107
			c-0.273-0.4-0.779-0.701-1.438-0.701c-0.809,0-1.275,0.494-1.275,1.037c0,0.287,0.13,0.707,0.721,1.053
			c0.646,0.377,1.643,0.578,2.257,1.156c0.442,0.418,0.549,0.91,0.549,1.281c0,0.889-0.636,2.041-2.354,2.041
			c-0.872,0-1.663-0.307-2.219-0.912l0.47-0.811c0.054,0.027,0.052,0.09,0.052,0.107c-0.001,0.047-0.004,0.076,0.031,0.121
			c0.316,0.4,0.914,0.779,1.689,0.779c1.025,0,1.542-0.668,1.542-1.281c0-0.316-0.13-0.686-0.593-0.977
			c-0.533-0.334-1.553-0.578-2.207-1.061c-0.59-0.436-0.752-0.967-0.752-1.379c0-0.967,0.877-1.811,2.152-1.811
			c0.771,0,1.48,0.312,1.959,0.881L303.457,18.138z"/>
		<path fill="#FFFFFF" d="M309.293,20.036c-0.09-0.068-0.029-0.174-0.072-0.262c-0.029-0.061-0.455-0.68-1.34-0.68
			c-0.951,0-1.71,0.738-1.71,1.918c0,1.211,0.77,2.057,1.778,2.057c0.52,0,1.022-0.23,1.373-0.627l0.469,0.549
			c-0.494,0.531-1.187,0.82-1.91,0.82c-1.465,0-2.551-1.152-2.551-2.715c0-1.555,1.08-2.695,2.604-2.695
			c0.832,0,1.528,0.361,1.936,0.959L309.293,20.036z"/>
		<path fill="#FFFFFF" d="M312.34,18.509l-0.029,0.998c0.339-0.74,1.107-1.123,1.863-1.123c0.582,0,1.059,0.232,1.385,0.566
			l-0.381,0.781c-0.088-0.082-0.125-0.172-0.193-0.26c-0.145-0.186-0.419-0.387-0.855-0.387c-0.365,0-0.984,0.129-1.455,0.873
			c-0.352,0.557-0.363,0.9-0.363,1.213v2.523h-0.822v-5.186H312.34z"/>
		<path fill="#FFFFFF" d="M319.311,18.499v4.531h1.213v0.654h-3.355V23.03h1.32v-3.865h-1.252v-0.666H319.311z M319.506,16.831
			c0,0.32-0.262,0.582-0.587,0.582s-0.587-0.262-0.587-0.582s0.262-0.582,0.587-0.582S319.506,16.511,319.506,16.831z"/>
		<path fill="#FFFFFF" d="M323.209,18.509v0.793c0.352-0.566,0.971-0.91,1.636-0.91c1.019,0,2.102,0.816,2.102,2.645
			c0,1.9-1.114,2.787-2.173,2.787c-0.629,0-1.209-0.311-1.555-0.822v2.572h-0.832l-0.01-7.064H323.209z M323.345,19.839
			c-0.114,0.268-0.138,0.584-0.138,1.02c0,0.75-0.002,1.178,0.148,1.527c0.205,0.471,0.693,0.715,1.186,0.715
			c0.484,0,1.557-0.262,1.557-1.896c0-1.879-1.098-2.117-1.553-2.117C324.023,19.087,323.542,19.372,323.345,19.839z"/>
		<path fill="#FFFFFF" d="M330.395,16.974c0.04,0.115-0.041,0.184-0.064,0.307c-0.053,0.287-0.131,1.219-0.131,1.219h1.692v0.676
			h-1.702c-0.065,0.674-0.098,1.35-0.098,2.027c0,0.75,0.026,0.949,0.033,0.994c0.082,0.623,0.484,0.836,0.871,0.836
			c0.318,0,0.721-0.146,1.16-0.473l0.254,0.646c-0.438,0.32-1.039,0.578-1.655,0.578c-0.529,0-0.935-0.205-1.18-0.551
			c-0.302-0.426-0.306-0.945-0.306-1.41c0-0.881,0.035-1.762,0.107-2.648h-1.213l0.01-0.666h1.232l0.098-1.389L330.395,16.974z"/>
		<path fill="#FFFFFF" d="M346.125,17.501c-1.032,0.295-2.416,0.5-3.775,0.623c0.441,1.543,0.918,2.461,2.143,2.994l-0.556,0.691
			c-0.522-0.396-1.055-0.703-2.528-0.783l-0.137-0.668c0.557,0.045,0.976,0.113,1.259,0.17c-0.396-0.477-0.702-1.201-1.009-2.348
			c-0.51,0.047-1.201,0.068-1.882,0.068c-0.737,0-1.938-0.012-2.665-0.033v-0.771c0.681,0.035,1.645,0.035,2.676,0.035
			c0.578,0,1.236-0.012,1.689-0.057c-0.136-0.613-0.261-1.451-0.396-2.324l1.213,0.021c-0.012,0.137-0.113,0.215-0.295,0.262
			c0.068,0.646,0.182,1.359,0.307,1.984c1.304-0.115,2.777-0.352,3.775-0.67L346.125,17.501z M344.096,24.962
			c-0.545,0.021-1.123,0.033-2.109,0.033c-2.369,0-4.047-0.725-4.047-2.244c0-0.646,0.396-1.305,1.02-1.904l0.612,0.486
			c-0.511,0.408-0.815,0.965-0.815,1.395c0,1.123,1.451,1.486,3.253,1.486c0.986,0,1.565-0.023,2.144-0.057L344.096,24.962z"/>
		<path fill="#FFFFFF" d="M347.77,24.632c0.839-2.402,2.233-6.416,2.676-7.617c0.215-0.613,0.51-1.475,0.59-1.758l1.224,0.316
			c-0.057,0.16-0.216,0.217-0.442,0.217c-0.623,1.553-1.587,4.205-2.006,5.34h0.011c0.669-0.816,1.689-1.395,2.483-1.395
			c0.986,0,1.462,0.668,1.428,1.723l-0.033,1.35c-0.012,0.85,0.441,1.314,1.179,1.314c1.021,0,1.962-1.168,2.483-3.117
			c0.227,0.158,0.498,0.307,0.736,0.42c-0.623,2.164-1.746,3.525-3.254,3.525c-1.201,0-1.984-0.727-1.984-1.883
			c0-0.215,0.035-1.258,0.035-1.496c0-0.715-0.295-1.088-0.795-1.088c-1.303,0-2.618,1.893-2.902,2.629
			c-0.158,0.398-0.408,1.123-0.623,1.781L347.77,24.632z"/>
	</g>
	<g>
		<path d="M22.349,42.47v-0.979h3.342v-1.113l1.097,0.051c0.051,0,0.162,0.008,0.162,0.094c0,0.067-0.085,0.109-0.162,0.135v0.834
			h3.325v0.979h-1.267c-0.425,1.377-0.961,2.372-1.829,3.342c1.157,0.918,2.39,1.31,3.223,1.496
			c-0.451,0.459-0.544,0.613-0.689,0.979c-1.412-0.426-2.61-1.208-3.265-1.761c-0.289,0.238-1.497,1.259-3.41,1.804
			c-0.119-0.324-0.493-0.689-0.782-0.868c1.616-0.425,2.695-1.071,3.427-1.649c-0.901-0.986-1.488-2.016-1.93-3.342H22.349z
			 M24.747,42.47c0.4,1.182,1.097,2.125,1.514,2.61c0.664-0.791,1.106-1.743,1.378-2.61H24.747z"/>
		<path d="M38.6,44.834v0.942h-3.231v1.379c0,0.654-0.247,1.13-1.854,1.121c-0.06-0.305-0.247-0.756-0.425-1.062
			c0.204,0.042,0.442,0.06,0.655,0.06c0.493,0,0.527-0.137,0.527-0.375v-1.123h-3.342v-0.942h3.342V44.06l0.527,0.094
			c0.068-0.051,0.315-0.23,0.51-0.477H32.52v-0.943h4.073l0.638,0.586c-0.689,0.672-1.59,1.336-1.837,1.515H38.6z M34.203,40.386
			l1.114,0.025c0.128,0,0.213,0.025,0.213,0.103c0,0.093-0.077,0.127-0.213,0.187v0.502h3.113v1.904h-1.072v-1.055h-5.145v1.098
			h-1.105v-1.947h3.095V40.386z"/>
		<path d="M39.382,41.61v-0.936h4.227v0.936h-1.862c-0.034,0.195-0.077,0.442-0.229,0.953h1.973c-0.076,2.712-1.803,5-3.266,5.824
			c-0.391-0.477-0.697-0.629-0.867-0.714c0.833-0.349,1.701-1.208,2.236-2.067c-0.391-0.314-0.773-0.543-1.131-0.739
			c-0.306,0.468-0.468,0.638-0.587,0.766c-0.221-0.255-0.553-0.519-0.816-0.663c0.502-0.469,0.816-0.953,1.106-1.607
			c0.229-0.527,0.442-1.233,0.536-1.752H39.382z M41.185,43.524c-0.128,0.289-0.077,0.178-0.221,0.467
			c0.357,0.179,0.859,0.51,1.105,0.689c0.153-0.357,0.306-0.774,0.332-1.156H41.185z M44.935,41.271c0.068,0,0.179,0.017,0.179,0.11
			c0,0.076-0.077,0.119-0.17,0.161v5.205h-1.021V41.21L44.935,41.271z M46.908,40.411c0.068,0,0.212,0.009,0.212,0.094
			c0,0.068-0.085,0.119-0.187,0.17v6.582c0,0.918-0.468,1.004-1.76,1.029c-0.026-0.195-0.102-0.655-0.425-1.098
			c0.238,0.043,0.451,0.068,0.697,0.068c0.417,0,0.459-0.068,0.459-0.391v-6.515L46.908,40.411z"/>
	</g>
	<g>
		<path d="M122.515,42.47v-0.979h3.342v-1.113l1.097,0.051c0.051,0,0.162,0.008,0.162,0.094c0,0.067-0.085,0.109-0.162,0.135v0.834
			h3.325v0.979h-1.267c-0.425,1.377-0.961,2.372-1.829,3.342c1.157,0.918,2.39,1.31,3.223,1.496
			c-0.451,0.459-0.544,0.613-0.689,0.979c-1.412-0.426-2.61-1.208-3.265-1.761c-0.289,0.238-1.497,1.259-3.41,1.804
			c-0.119-0.324-0.493-0.689-0.782-0.868c1.616-0.425,2.695-1.071,3.427-1.649c-0.901-0.986-1.488-2.016-1.93-3.342H122.515z
			 M124.913,42.47c0.4,1.182,1.097,2.125,1.514,2.61c0.664-0.791,1.106-1.743,1.378-2.61H124.913z"/>
		<path d="M138.766,44.834v0.942h-3.231v1.379c0,0.654-0.247,1.13-1.854,1.121c-0.06-0.305-0.247-0.756-0.425-1.062
			c0.204,0.042,0.442,0.06,0.655,0.06c0.493,0,0.527-0.137,0.527-0.375v-1.123h-3.342v-0.942h3.342V44.06l0.527,0.094
			c0.068-0.051,0.315-0.23,0.51-0.477h-2.789v-0.943h4.073l0.638,0.586c-0.689,0.672-1.59,1.336-1.837,1.515H138.766z
			 M134.37,40.386l1.114,0.025c0.128,0,0.213,0.025,0.213,0.103c0,0.093-0.077,0.127-0.213,0.187v0.502h3.113v1.904h-1.072v-1.055
			h-5.145v1.098h-1.105v-1.947h3.095V40.386z"/>
		<path d="M139.548,41.61v-0.936h4.227v0.936h-1.862c-0.034,0.195-0.077,0.442-0.229,0.953h1.973c-0.076,2.712-1.803,5-3.266,5.824
			c-0.391-0.477-0.697-0.629-0.867-0.714c0.833-0.349,1.701-1.208,2.236-2.067c-0.391-0.314-0.773-0.543-1.131-0.739
			c-0.306,0.468-0.468,0.638-0.587,0.766c-0.221-0.255-0.553-0.519-0.816-0.663c0.502-0.469,0.816-0.953,1.106-1.607
			c0.229-0.527,0.442-1.233,0.536-1.752H139.548z M141.352,43.524c-0.128,0.289-0.077,0.178-0.221,0.467
			c0.357,0.179,0.859,0.51,1.105,0.689c0.153-0.357,0.306-0.774,0.332-1.156H141.352z M145.102,41.271
			c0.068,0,0.179,0.017,0.179,0.11c0,0.076-0.077,0.119-0.17,0.161v5.205h-1.021V41.21L145.102,41.271z M147.075,40.411
			c0.068,0,0.212,0.009,0.212,0.094c0,0.068-0.085,0.119-0.187,0.17v6.582c0,0.918-0.468,1.004-1.76,1.029
			c-0.026-0.195-0.102-0.655-0.425-1.098c0.238,0.043,0.451,0.068,0.697,0.068c0.417,0,0.459-0.068,0.459-0.391v-6.515
			L147.075,40.411z"/>
	</g>
	<g>
		<path d="M60.939,40.411l1.14,0.051c0.068,0,0.162,0.034,0.162,0.111c0,0.102-0.111,0.152-0.213,0.203v1.166h1.701
			c-0.068,3.682-0.093,4.847-0.451,5.57c-0.238,0.467-0.672,0.714-1.386,0.714c-0.085,0-0.127,0-0.212-0.017
			c-0.017-0.366-0.145-0.749-0.323-1.063c0.332,0.067,0.527,0.085,0.646,0.085c0.297,0,0.434-0.162,0.51-0.527
			c0.162-0.782,0.212-1.803,0.247-3.733h-0.749c-0.11,1.591-0.127,1.777-0.314,2.483c-0.247,0.969-0.664,1.888-1.259,2.679
			c-0.272-0.222-0.816-0.493-0.952-0.553c1.199-1.479,1.429-3.333,1.454-4.609h-1.157v-1.028h1.157V40.411z M65.234,47.529v0.62
			h-1.055v-6.82h3.172v6.744h-1.029v-0.544H65.234z M66.322,46.517v-4.09h-1.088v4.09H66.322z"/>
		<path d="M72.989,41.763c-0.28,0.469-0.459,0.689-0.561,0.809h2.492v3.188h-0.774c-0.008,0.094-0.102,0.128-0.204,0.153v0.238
			h2.109v0.799h-2.109v1.284h-0.995V46.95h-1.539c-0.196,0.451-0.808,1.131-2.032,1.395c-0.085-0.246-0.306-0.535-0.604-0.816
			c0.553-0.068,1.105-0.204,1.488-0.578h-1.981v-0.799h2.347c0.025-0.152,0.025-0.256,0.034-0.392h-1.225v-3.188h2.755
			c-0.221-0.161-0.442-0.271-0.697-0.34c0.136-0.162,0.229-0.273,0.383-0.469h-0.808c0.094,0.289,0.145,0.451,0.17,0.562
			c-0.493,0.033-0.681,0.051-1.021,0.127c-0.068-0.365-0.136-0.604-0.162-0.689H69.69c-0.332,0.477-0.502,0.664-0.638,0.801
			c-0.153-0.094-0.425-0.264-0.944-0.418c0.519-0.502,0.995-1.139,1.301-1.802l0.978,0.247c0.034,0.008,0.119,0.033,0.119,0.102
			c0,0.119-0.17,0.11-0.255,0.11c-0.017,0.043-0.059,0.128-0.093,0.196h1.896v0.5c0.221-0.313,0.476-0.738,0.629-1.172l0.936,0.213
			c0.051,0.008,0.127,0.033,0.127,0.102c0,0.11-0.17,0.127-0.229,0.136c-0.025,0.06-0.068,0.145-0.102,0.222h2.619v0.764h-1.539
			c0.068,0.18,0.127,0.35,0.162,0.554c-0.221,0-0.706,0.034-1.038,0.11c-0.025-0.11-0.06-0.271-0.187-0.664H72.989z M70.438,43.524
			h3.478v-0.291h-3.478V43.524z M73.917,43.999h-3.478v0.299h3.478V43.999z M73.917,44.773h-3.478v0.315h3.478V44.773z
			 M72.947,45.76H71.85c-0.017,0.068-0.051,0.11-0.213,0.146c-0.008,0.102-0.017,0.152-0.025,0.246h1.335V45.76z"/>
		<path d="M80.372,41.823v0.832h-3.699v-0.832H80.372z M80.098,45.327v2.788h-1.002v-0.238h-1.124v0.374H76.97v-2.924H80.098z
			 M79.911,43.048v0.79h-2.814v-0.79H79.911z M79.911,44.229v0.739h-2.814v-0.739H79.911z M79.912,40.675v0.766h-2.806v-0.766
			H79.912z M77.972,46.202v0.783h1.124v-0.783H77.972z M81.731,44.544v2.143c0,0.341,0.008,0.477,0.494,0.477h0.91
			c0.204,0,0.451-0.068,0.544-0.238c0.094-0.178,0.162-0.518,0.153-0.824c0.348,0.213,0.552,0.297,0.883,0.399
			c-0.085,1.174-0.425,1.642-1.147,1.642H81.68c-0.586,0-1.037-0.34-1.037-1.012v-3.572h2.61V41.61h-2.653v-0.918h3.741v4.184
			h-1.088v-0.332H81.731z"/>
		<path d="M91.962,45.089c-0.162,1.402-0.434,2.22-0.57,2.466c-0.272,0.493-0.655,0.696-1.744,0.696
			c-0.187,0-0.306-0.008-0.434-0.017c-0.042-0.569-0.162-0.808-0.255-1.011c0.28,0.051,0.51,0.085,0.833,0.085
			c0.494,0,0.774-0.068,0.936-1.354h-3.07c-0.051,0.119-0.119,0.307-0.408,0.809c-0.468-0.222-0.604-0.247-1.021-0.315
			c0.502-0.765,0.851-1.7,0.944-1.955h-1.896v-0.842h7.781v0.842h-4.805c-0.162,0.426-0.179,0.468-0.229,0.596H91.962z
			 M91.902,40.649v2.475h-5.46v-2.475H91.902z M87.489,41.491v0.766h3.359v-0.766H87.489z"/>
	</g>
	<g>
		<path d="M285.313,41.84c0.06,0.034,0.094,0.077,0.094,0.145c0,0.11-0.247,0.085-0.289,0.077c-0.544,0.799-0.757,1.105-1.36,1.836
			c0.221-0.017,0.271-0.017,0.756-0.067c-0.109-0.29-0.136-0.349-0.187-0.485l0.697-0.34c0.264,0.545,0.442,0.986,0.595,1.539
			c-0.398,0.162-0.518,0.213-0.833,0.4c-0.042-0.247-0.06-0.341-0.093-0.485c-0.145,0.026-0.273,0.06-0.461,0.085V48.2h-0.984
			v-3.485c-0.588,0.103-0.646,0.11-0.877,0.161c-0.025,0.076-0.059,0.188-0.145,0.188c-0.051,0-0.102-0.068-0.127-0.162
			l-0.195-0.867c0.094-0.009,0.638-0.043,0.697-0.043c0.178-0.195,0.467-0.535,0.535-0.62c-0.059-0.06-0.544-0.57-1.182-1.013
			l0.519-0.781c0.196,0.127,0.255,0.17,0.349,0.229c0.357-0.518,0.57-0.884,0.799-1.453l0.85,0.441
			c0.061,0.035,0.103,0.068,0.103,0.137c0,0.076-0.051,0.085-0.229,0.094c-0.332,0.569-0.705,1.104-0.858,1.309
			c0.128,0.119,0.179,0.178,0.255,0.246c0.425-0.604,0.646-0.985,0.773-1.215L285.313,41.84z M283.068,45.289
			c0.051,0.009,0.17,0.026,0.17,0.095c0,0.086-0.128,0.13-0.188,0.139c-0.025,0.289-0.094,1.19-0.297,2.108
			c-0.314-0.085-0.611-0.17-0.833-0.195c0.323-0.97,0.392-1.974,0.399-2.224L283.068,45.289z M285.178,45.114
			c0.025,0.893,0.264,1.573,0.374,1.862c-0.331,0.085-0.417,0.136-0.766,0.331c-0.187-0.441-0.392-1.572-0.425-1.98L285.178,45.114z
			 M289.939,41.552v0.917h-1.691v0.894h1.436v0.884h-3.885v-0.884h1.411v-0.894h-1.692v-0.917h1.692v-1.123l1.028,0.06
			c0.086,0.009,0.188,0.034,0.188,0.11c0,0.086-0.094,0.119-0.178,0.162v0.791H289.939z M286.878,47.741v0.468h-0.994v-3.427h3.741
			v3.427h-1.012v-0.468H286.878z M288.613,46.841v-1.158h-1.735v1.158H288.613z"/>
		<path d="M295.042,48.226h-1.028v-2.254c-1.021,1.115-2.203,1.744-2.68,1.999c-0.094-0.145-0.365-0.562-0.799-0.816
			c0.51-0.179,1.709-0.604,2.832-1.692h-2.696v-0.883h3.343v-0.562h-2.424v-3.358h5.936v3.358h-2.483v0.562h3.394v0.883h-2.756
			c0.91,0.885,2.16,1.42,2.807,1.539c-0.392,0.357-0.477,0.426-0.766,0.825c-0.604-0.222-1.828-0.876-2.679-1.888V48.226z
			 M294.014,41.935v-0.512h-1.344v0.512H294.014z M292.67,42.655v0.529h1.344v-0.529H292.67z M296.42,41.935v-0.512h-1.378v0.512
			H296.42z M295.042,42.655v0.529h1.378v-0.529H295.042z"/>
	</g>
	<g>
		<g>
			
				<line fill="none" stroke="#DB5434" stroke-width="2.8347" stroke-linecap="round" stroke-linejoin="round" stroke-dasharray="0,4.252" x1="183.5" y1="21.007" x2="202.456" y2="21.007"/>
			<g>
				<polygon fill="#DB5434" points="200.801,26.66 210.592,21.008 200.801,15.354 				"/>
			</g>
		</g>
	</g>
</g>
</svg>
