<?xml version="1.0" encoding="utf-8"?>
<!-- Generator: Adobe Illustrator 16.0.0, SVG Export Plug-In . SVG Version: 6.00 Build 0)  -->
<!DOCTYPE svg PUBLIC "-//W3C//DTD SVG 1.1//EN" "http://www.w3.org/Graphics/SVG/1.1/DTD/svg11.dtd">
<svg version="1.1" xmlns="http://www.w3.org/2000/svg" xmlns:xlink="http://www.w3.org/1999/xlink" x="0px" y="0px"
	 width="408.19px" height="56.747px" viewBox="0 0 408.19 56.747" enable-background="new 0 0 408.19 56.747" xml:space="preserve">
<g id="レイヤー_0">
</g>
<g id="レイヤー_1">
</g>
<g id="レイヤー_2">
	<rect x="7.667" y="5.58" fill="#5176A9" width="27.5" height="29"/>
	<rect x="65.667" y="5.58" fill="#5176A9" width="27.5" height="29"/>
	<rect x="129.167" y="5.58" fill="#45B035" width="32" height="29"/>
	<rect x="40.167" y="11.33" fill="#DB5434" width="17" height="18.52"/>
	<g>
		<path fill="#FFFFFF" d="M22.924,20.429c1.833,0.67,3.034,2.458,3.034,4.561c0,2.744-2.055,5.157-5.439,5.157
			c-1.769,0-3.457-0.693-4.642-2.011l1.492-1.786c0.252,0.258,0.125,0.533,0.367,0.804c0.125,0.142,1.119,1.196,2.765,1.196
			c2.068,0,3.555-1.661,3.555-3.601c0-2.106-1.758-3.355-4.15-3.355c-0.3,0-0.6,0.021-0.898,0.063v-1.591
			c1.676-0.004,2.48-0.312,2.791-0.448c1.223-0.537,1.884-1.703,1.884-2.779c0-1.492-1.258-2.753-3.071-2.753
			c-1.092,0-2.223,0.474-3.047,1.356l-1.101-1.224c1.109-1.211,2.651-1.891,4.245-1.891c2.794,0,4.857,2.064,4.857,4.476
			C25.567,18.321,24.509,19.839,22.924,20.429z"/>
		<path fill="#FFFFFF" d="M50.61,15.145c-0.048,0.337-0.135,0.405-0.171,0.758l-0.44,4.258l4.502-2.056l0.758,1.737L50.39,21.31
			l3.572,4.282l-1.542,1.223l-3.059-4.697l-3.181,4.722l-1.542-1.247l3.695-4.258l-4.894-1.492l0.734-1.835l4.576,2.153l-0.44-5.016
			H50.61z"/>
		<path fill="#FFFFFF" d="M81.159,12.159v11.059h2.275v1.762h-2.275v4.869h-2.056v-4.894h-7.12v-1.468l7.511-11.328H81.159z
			 M73.941,23.218h5.187v-7.902L73.941,23.218z"/>
	</g>
	<g>
		<path fill="#FFFFFF" d="M138.669,29.873h-1.981V14.63l-3.548,1.053l-0.465-1.102l4.624-2.422h1.37V29.873z"/>
		<path fill="#FFFFFF" d="M151.5,12.062c2.884,0,5.124,2.209,5.124,4.962c0,2.54-1.813,4.357-3.108,5.57
			c-1.274,1.193-3.334,2.949-4.808,5.518h7.414c0.129,0,0.188-0.018,0.303-0.117c0.059-0.051,0.198-0.188,0.382-0.127v1.981h-10.374
			v-1.248c1.488-2.934,3.115-4.757,5.132-6.574c1.281-1.154,3.094-2.705,3.094-4.857c0-1.898-1.511-3.357-3.393-3.357
			c-1.542,0-2.604,0.962-3.02,1.609c-0.151,0.235-0.079,0.413-0.248,0.653l-1.443-1.15C147.596,13.145,149.495,12.062,151.5,12.062z
			"/>
	</g>
	<g>
		<path d="M11.583,44.272c0.076,0.033,0.136,0.076,0.136,0.119c0,0.102-0.162,0.076-0.229,0.067
			c-0.034,0.068-0.06,0.119-0.102,0.196h1.803v0.842h-0.314c0.017,0.025,0.017,0.042,0.017,0.059c0,0.086-0.136,0.103-0.213,0.103
			c-0.17,0.442-0.34,0.706-0.629,1.063c0.467,0.365,0.553,0.476,0.646,0.595c-0.272,0.289-0.519,0.646-0.578,0.739
			c-0.255-0.271-0.434-0.441-0.714-0.672c-0.629,0.527-1.148,0.74-1.607,0.877c-0.145-0.332-0.434-0.621-0.544-0.723
			c0.774-0.17,1.31-0.57,1.437-0.672c-0.162-0.119-0.357-0.23-0.527-0.332l-0.187,0.255c-0.289-0.222-0.493-0.306-0.782-0.382
			c0.153-0.205,0.306-0.4,0.646-0.91H8.998v-0.842h1.369c0.085-0.137,0.179-0.289,0.315-0.57h-0.026v-0.809
			c-0.085,0.111-0.519,0.664-1.131,1.106C9.389,44.222,9.1,43.94,8.828,43.804c0.612-0.348,1.114-0.893,1.335-1.139H8.998v-0.809
			H9.61c-0.068-0.152-0.399-0.765-0.578-1.012l0.749-0.408c0.17,0.162,0.553,0.8,0.655,1.072c-0.17,0.059-0.681,0.297-0.766,0.348
			h1.012v-1.463l0.952,0.077c0.042,0,0.127,0.025,0.127,0.103c0,0.051-0.034,0.084-0.204,0.152v1.131h0.868
			c-0.136-0.102-0.255-0.161-0.646-0.322c0.255-0.383,0.425-0.689,0.579-1.072l0.825,0.314c0.06,0.025,0.085,0.068,0.085,0.103
			c0,0.119-0.179,0.136-0.238,0.145c-0.34,0.587-0.417,0.697-0.519,0.833h0.629v0.809h-1.174c0.29,0.322,0.502,0.51,0.961,0.842
			c-0.221,0.178-0.493,0.477-0.629,0.621c-0.349-0.298-0.57-0.57-0.74-0.8v0.757h-0.408L11.583,44.272z M10.895,45.497
			c-0.068,0.102-0.119,0.178-0.229,0.34c0.212,0.119,0.604,0.349,0.688,0.408c0.17-0.204,0.323-0.426,0.459-0.748H10.895z
			 M14.857,40.59c0.093,0.009,0.127,0.051,0.127,0.11s-0.017,0.102-0.212,0.17c-0.034,0.35-0.094,0.689-0.162,1.029h2.228v0.953
			h-0.4c-0.017,0.264-0.11,1.845-0.901,3.273c0.374,0.544,0.851,0.995,1.395,1.36c-0.238,0.238-0.493,0.536-0.68,0.782
			c-0.281-0.213-0.723-0.553-1.292-1.293c-0.127,0.154-0.638,0.774-1.556,1.293c-0.264-0.365-0.391-0.502-0.74-0.73
			c0.808-0.357,1.412-1.013,1.734-1.421c-0.408-0.782-0.536-1.31-0.629-1.862c-0.162,0.298-0.247,0.391-0.357,0.52
			c-0.119-0.111-0.297-0.299-0.791-0.485c0.298-0.399,0.629-0.884,0.859-1.726c0.094-0.332,0.323-1.251,0.375-2.102L14.857,40.59z
			 M14.415,42.853c0.068,1.147,0.477,2.074,0.57,2.287c0.408-0.944,0.476-2.059,0.493-2.287H14.415z"/>
		<path d="M19.202,48.234h-0.926v-4.431c-0.195,0.264-0.281,0.366-0.383,0.485c-0.17-0.298-0.408-0.536-0.68-0.731
			c0.655-0.723,1.352-2.084,1.649-3.154L19.79,40.7c0.085,0.025,0.162,0.068,0.162,0.128c0,0.067-0.077,0.11-0.17,0.145
			c-0.077,0.161-0.503,1.131-0.605,1.335c0.119,0.043,0.196,0.076,0.196,0.145c0,0.06-0.068,0.102-0.17,0.162V48.234z
			 M20.716,48.226h-0.943v-5.229l0.884,0.033c0.102,0,0.195,0.043,0.195,0.119c0,0.06-0.085,0.127-0.136,0.162v3.878H25.3v0.79
			h-4.584V48.226z M23.234,42.444h1.564v4.369H21.21v-4.369h1.028v-0.478h-2.253v-0.866h2.253v-0.715l1.029,0.094
			c0.06,0.009,0.162,0.018,0.162,0.094c0,0.068-0.068,0.102-0.196,0.162v0.365h1.989v0.866h-1.989V42.444z M23.821,43.745v-0.477
			h-1.642v0.477H23.821z M22.179,44.391v0.494h1.642v-0.494H22.179z M22.179,45.538v0.504h1.642v-0.504H22.179z"/>
	</g>
	<g>
		<path d="M75.583,44.272c0.076,0.033,0.136,0.076,0.136,0.119c0,0.102-0.162,0.076-0.229,0.067
			c-0.034,0.068-0.06,0.119-0.102,0.196h1.803v0.842h-0.314c0.017,0.025,0.017,0.042,0.017,0.059c0,0.086-0.136,0.103-0.213,0.103
			c-0.17,0.442-0.34,0.706-0.629,1.063c0.467,0.365,0.553,0.476,0.646,0.595c-0.272,0.289-0.519,0.646-0.578,0.739
			c-0.255-0.271-0.434-0.441-0.714-0.672c-0.629,0.527-1.148,0.74-1.607,0.877c-0.145-0.332-0.434-0.621-0.544-0.723
			c0.774-0.17,1.31-0.57,1.437-0.672c-0.162-0.119-0.357-0.23-0.527-0.332l-0.187,0.255c-0.289-0.222-0.493-0.306-0.782-0.382
			c0.153-0.205,0.306-0.4,0.646-0.91h-0.842v-0.842h1.369c0.085-0.137,0.179-0.289,0.315-0.57h-0.026v-0.809
			c-0.085,0.111-0.519,0.664-1.131,1.106c-0.136-0.161-0.425-0.442-0.697-0.579c0.612-0.348,1.114-0.893,1.335-1.139h-1.165v-0.809
			h0.612c-0.068-0.152-0.399-0.765-0.578-1.012l0.749-0.408c0.17,0.162,0.553,0.8,0.655,1.072c-0.17,0.059-0.681,0.297-0.766,0.348
			h1.012v-1.463l0.952,0.077c0.042,0,0.127,0.025,0.127,0.103c0,0.051-0.034,0.084-0.204,0.152v1.131h0.868
			c-0.136-0.102-0.255-0.161-0.646-0.322c0.255-0.383,0.425-0.689,0.579-1.072l0.825,0.314c0.06,0.025,0.085,0.068,0.085,0.103
			c0,0.119-0.179,0.136-0.238,0.145c-0.34,0.587-0.417,0.697-0.519,0.833h0.629v0.809h-1.174c0.29,0.322,0.502,0.51,0.961,0.842
			c-0.221,0.178-0.493,0.477-0.629,0.621c-0.349-0.298-0.57-0.57-0.74-0.8v0.757h-0.408L75.583,44.272z M74.895,45.497
			c-0.068,0.102-0.119,0.178-0.229,0.34c0.212,0.119,0.604,0.349,0.688,0.408c0.17-0.204,0.323-0.426,0.459-0.748H74.895z
			 M78.857,40.59c0.093,0.009,0.127,0.051,0.127,0.11s-0.017,0.102-0.212,0.17c-0.034,0.35-0.094,0.689-0.162,1.029h2.228v0.953
			h-0.4c-0.017,0.264-0.11,1.845-0.901,3.273c0.374,0.544,0.851,0.995,1.395,1.36c-0.238,0.238-0.493,0.536-0.68,0.782
			c-0.281-0.213-0.723-0.553-1.292-1.293c-0.127,0.154-0.638,0.774-1.556,1.293c-0.264-0.365-0.391-0.502-0.74-0.73
			c0.808-0.357,1.412-1.013,1.734-1.421c-0.408-0.782-0.536-1.31-0.629-1.862c-0.162,0.298-0.247,0.391-0.357,0.52
			c-0.119-0.111-0.297-0.299-0.791-0.485c0.298-0.399,0.629-0.884,0.859-1.726c0.094-0.332,0.323-1.251,0.375-2.102L78.857,40.59z
			 M78.415,42.853c0.068,1.147,0.477,2.074,0.57,2.287c0.408-0.944,0.476-2.059,0.493-2.287H78.415z"/>
		<path d="M83.202,48.234h-0.926v-4.431c-0.195,0.264-0.281,0.366-0.383,0.485c-0.17-0.298-0.408-0.536-0.68-0.731
			c0.655-0.723,1.352-2.084,1.649-3.154L83.79,40.7c0.085,0.025,0.162,0.068,0.162,0.128c0,0.067-0.077,0.11-0.17,0.145
			c-0.077,0.161-0.503,1.131-0.605,1.335c0.119,0.043,0.196,0.076,0.196,0.145c0,0.06-0.068,0.102-0.17,0.162V48.234z
			 M84.716,48.226h-0.943v-5.229l0.884,0.033c0.102,0,0.195,0.043,0.195,0.119c0,0.06-0.085,0.127-0.136,0.162v3.878H89.3v0.79
			h-4.584V48.226z M87.234,42.444h1.564v4.369H85.21v-4.369h1.028v-0.478h-2.253v-0.866h2.253v-0.715l1.029,0.094
			c0.06,0.009,0.162,0.018,0.162,0.094c0,0.068-0.068,0.102-0.196,0.162v0.365h1.989v0.866h-1.989V42.444z M87.821,43.745v-0.477
			h-1.642v0.477H87.821z M86.179,44.391v0.494h1.642v-0.494H86.179z M86.179,45.538v0.504h1.642v-0.504H86.179z"/>
	</g>
	<g>
		<path d="M37.76,47.554c0.621-0.654,1.428-2.186,1.632-2.678c0.145,0.187,0.255,0.314,0.731,0.646
			c-0.442,0.986-0.808,1.607-1.292,2.372c0.017,0.052,0.034,0.111,0.034,0.171c0,0.076-0.034,0.11-0.119,0.11
			c-0.034,0-0.085-0.025-0.111-0.043L37.76,47.554z M38.364,42.503c0.374,0.204,1.165,0.766,1.327,0.918
			c-0.247,0.35-0.349,0.494-0.553,0.851c-0.553-0.459-0.638-0.519-1.318-0.944L38.364,42.503z M38.721,40.429
			c0.459,0.229,1.063,0.697,1.241,0.885c-0.051,0.076-0.391,0.611-0.527,0.867c-0.544-0.494-0.859-0.724-1.242-0.953L38.721,40.429z
			 M42.479,43.013h-1.165v-0.73h3.292v0.73h-1.148v0.418h1.948v3.104h-1.403c0.476,0.34,1.165,0.688,1.999,0.909
			c-0.323,0.255-0.553,0.663-0.621,0.808c-0.688-0.187-1.599-0.68-2.126-1.147l0.519-0.569h-1.548l0.578,0.561
			c0.034,0.034,0.068,0.076,0.068,0.127c0,0.052-0.042,0.077-0.102,0.077c-0.042,0-0.06,0-0.188-0.034
			c-0.918,0.672-1.709,0.928-2.032,1.037c-0.136-0.289-0.442-0.662-0.672-0.858c1.055-0.229,1.854-0.79,2.024-0.909h-1.344v-3.104
			h1.922V43.013z M45.737,41.058v1.709h-0.918v-0.919h-3.725v0.919h-0.953v-1.709h2.279v-0.664l1.182,0.052
			c0.06,0,0.145,0,0.145,0.077c0,0.076-0.034,0.093-0.212,0.178v0.357H45.737z M42.479,44.144h-0.952v0.486h0.952V44.144z
			 M42.479,45.267h-0.952v0.502h0.952V45.267z M43.458,44.63h0.978v-0.486h-0.978V44.63z M43.458,45.769h0.978v-0.502h-0.978V45.769
			z"/>
		<path d="M51.247,41.763c-0.28,0.469-0.459,0.689-0.561,0.809h2.492v3.188h-0.774c-0.008,0.094-0.102,0.128-0.204,0.153v0.238
			h2.109v0.799H52.2v1.284h-0.995V46.95h-1.539c-0.196,0.451-0.808,1.131-2.032,1.395c-0.085-0.246-0.306-0.535-0.604-0.816
			c0.553-0.068,1.105-0.204,1.488-0.578h-1.981v-0.799h2.347c0.025-0.152,0.025-0.256,0.034-0.392h-1.225v-3.188h2.755
			c-0.221-0.161-0.442-0.271-0.697-0.34c0.136-0.162,0.229-0.273,0.383-0.469h-0.808c0.094,0.289,0.145,0.451,0.17,0.562
			c-0.493,0.033-0.681,0.051-1.021,0.127c-0.068-0.365-0.136-0.604-0.162-0.689h-0.366c-0.332,0.477-0.502,0.664-0.638,0.801
			c-0.153-0.094-0.425-0.264-0.944-0.418c0.519-0.502,0.995-1.139,1.301-1.802l0.978,0.247c0.034,0.008,0.119,0.033,0.119,0.102
			c0,0.119-0.17,0.11-0.255,0.11c-0.017,0.043-0.059,0.128-0.093,0.196h1.896v0.5c0.221-0.313,0.476-0.738,0.629-1.172l0.936,0.213
			c0.051,0.008,0.127,0.033,0.127,0.102c0,0.11-0.17,0.127-0.229,0.136c-0.025,0.06-0.068,0.145-0.102,0.222h2.619v0.764h-1.539
			c0.068,0.18,0.127,0.35,0.162,0.554c-0.221,0-0.706,0.034-1.038,0.11c-0.025-0.11-0.06-0.271-0.187-0.664H51.247z M48.696,43.524
			h3.478v-0.291h-3.478V43.524z M52.174,43.999h-3.478v0.299h3.478V43.999z M52.174,44.773h-3.478v0.315h3.478V44.773z
			 M51.205,45.76h-1.097c-0.017,0.068-0.051,0.11-0.213,0.146c-0.008,0.102-0.017,0.152-0.025,0.246h1.335V45.76z"/>
		<path d="M62.838,43.711v0.97h-3.316v2.372c0,0.724-0.212,1.241-1.99,1.183c-0.06-0.314-0.127-0.562-0.34-1.105
			c0.366,0.042,0.459,0.059,0.638,0.059c0.604,0,0.604-0.084,0.604-0.604v-1.904h-3.436v-0.97h3.436v-1.259l0.595,0.076
			c0.476-0.331,0.646-0.467,0.986-0.824h-4.184v-0.953h5.57l0.604,0.52c-0.502,0.569-1.829,1.684-2.483,2.16v0.28H62.838z"/>
	</g>
	<g>
		<path d="M142.204,41.84c0.06,0.034,0.094,0.077,0.094,0.145c0,0.11-0.247,0.085-0.289,0.077c-0.544,0.799-0.757,1.105-1.361,1.836
			c0.221-0.017,0.272-0.017,0.757-0.067c-0.11-0.29-0.136-0.349-0.187-0.485l0.697-0.34c0.264,0.545,0.442,0.986,0.595,1.539
			c-0.399,0.162-0.519,0.213-0.833,0.4c-0.042-0.247-0.06-0.341-0.093-0.485c-0.145,0.026-0.272,0.06-0.46,0.085V48.2h-0.985v-3.485
			c-0.587,0.103-0.646,0.11-0.876,0.161c-0.025,0.076-0.06,0.188-0.145,0.188c-0.051,0-0.102-0.068-0.127-0.162l-0.196-0.867
			c0.094-0.009,0.638-0.043,0.697-0.043c0.179-0.195,0.468-0.535,0.536-0.62c-0.06-0.06-0.544-0.57-1.182-1.013l0.519-0.781
			c0.196,0.127,0.255,0.17,0.349,0.229c0.357-0.518,0.57-0.884,0.799-1.453l0.85,0.441c0.06,0.035,0.102,0.068,0.102,0.137
			c0,0.076-0.051,0.085-0.229,0.094c-0.332,0.569-0.706,1.104-0.858,1.309c0.127,0.119,0.179,0.178,0.255,0.246
			c0.425-0.604,0.646-0.985,0.773-1.215L142.204,41.84z M139.958,45.289c0.051,0.009,0.17,0.026,0.17,0.095
			c0,0.086-0.127,0.13-0.187,0.139c-0.025,0.289-0.093,1.19-0.297,2.108c-0.314-0.085-0.612-0.17-0.833-0.195
			c0.323-0.97,0.391-1.974,0.4-2.224L139.958,45.289z M142.068,45.114c0.026,0.893,0.264,1.573,0.375,1.862
			c-0.332,0.085-0.417,0.136-0.766,0.331c-0.187-0.441-0.391-1.572-0.425-1.98L142.068,45.114z M146.83,41.552v0.917h-1.691v0.894
			h1.437v0.884h-3.885v-0.884h1.411v-0.894h-1.692v-0.917h1.692v-1.123l1.029,0.06c0.085,0.009,0.188,0.034,0.188,0.11
			c0,0.086-0.094,0.119-0.179,0.162v0.791H146.83z M143.769,47.741v0.468h-0.994v-3.427h3.741v3.427h-1.011v-0.468H143.769z
			 M145.504,46.841v-1.158h-1.736v1.158H145.504z"/>
		<path d="M151.933,48.226h-1.029v-2.254c-1.021,1.115-2.203,1.744-2.679,1.999c-0.094-0.145-0.366-0.562-0.8-0.816
			c0.51-0.179,1.709-0.604,2.832-1.692h-2.696v-0.883h3.342v-0.562h-2.424v-3.358h5.936v3.358h-2.483v0.562h3.393v0.883h-2.755
			c0.91,0.885,2.16,1.42,2.807,1.539c-0.392,0.357-0.477,0.426-0.766,0.825c-0.604-0.222-1.828-0.876-2.679-1.888V48.226z
			 M150.904,41.935v-0.512h-1.344v0.512H150.904z M149.56,42.655v0.529h1.344v-0.529H149.56z M153.31,41.935v-0.512h-1.377v0.512
			H153.31z M151.933,42.655v0.529h1.377v-0.529H151.933z"/>
	</g>
	<g>
		<g>
			
				<line fill="none" stroke="#DB5434" stroke-width="2.8347" stroke-linecap="round" stroke-linejoin="round" stroke-dasharray="0,4.252" x1="99" y1="20.59" x2="117.956" y2="20.59"/>
			<g>
				<polygon fill="#DB5434" points="116.301,26.243 126.092,20.591 116.301,14.937 				"/>
			</g>
		</g>
	</g>
</g>
</svg>
