<?xml version="1.0" encoding="utf-8"?>
<!-- Generator: Adobe Illustrator 16.0.0, SVG Export Plug-In . SVG Version: 6.00 Build 0)  -->
<!DOCTYPE svg PUBLIC "-//W3C//DTD SVG 1.1//EN" "http://www.w3.org/Graphics/SVG/1.1/DTD/svg11.dtd">
<svg version="1.1" xmlns="http://www.w3.org/2000/svg" xmlns:xlink="http://www.w3.org/1999/xlink" x="0px" y="0px"
	 width="408.19px" height="160.25px" viewBox="0 0 408.19 160.25" enable-background="new 0 0 408.19 160.25" xml:space="preserve">
<g id="レイヤー_0">
</g>
<g id="レイヤー_1">
</g>
<g id="レイヤー_2">
	
		<line fill="none" stroke="#000000" stroke-width="0.8504" stroke-miterlimit="10" x1="309.379" y1="99.281" x2="309.379" y2="114.282"/>
	<polyline fill="none" stroke="#000000" stroke-width="0.8504" stroke-miterlimit="10" points="240.445,23.35 240.445,61.524 
		243.662,61.524 	"/>
	<polyline fill="none" stroke="#000000" stroke-width="0.8504" stroke-miterlimit="10" points="240.443,39.163 309.379,39.163 
		309.379,75.158 	"/>
	
		<line fill="none" stroke="#DB5434" stroke-width="1.4173" stroke-linecap="round" stroke-linejoin="round" stroke-dasharray="0,2.8347" x1="240.445" y1="97.143" x2="240.445" y2="115"/>
	<g enable-background="new    ">
		<path d="M220.942,88.783h-1.1v-1.092h1.1V88.783z M220.919,93.834h-1.053v-4.482h1.053V93.834z"/>
		<path d="M222.771,89.352l0.016,0.568c0.155-0.193,0.584-0.732,1.543-0.732c1.091,0,1.84,0.717,1.84,1.77v2.877h-1.053V91.09
			c0-0.459-0.297-1.076-1.123-1.076c-0.21,0-0.771,0.047-1.028,0.516c-0.125,0.232-0.179,0.475-0.179,0.615v2.689h-1.053v-4.482
			H222.771z"/>
		<path d="M231.291,87.691v6.143h-1.029l-0.023-0.523c-0.357,0.545-0.904,0.693-1.434,0.693c-1.442,0-2.129-1.021-2.129-2.416
			c0-1.691,0.975-2.4,2.051-2.4c1.021,0,1.388,0.539,1.512,0.732v-2.229H231.291z M227.775,91.588c0,0.701,0.219,1.527,1.24,1.527
			c1.223,0,1.223-1.254,1.223-1.527c0-0.279,0-1.527-1.23-1.527C227.783,90.061,227.775,91.301,227.775,91.588z"/>
		<path d="M236.515,92.477c-0.116,0.352-0.476,1.527-2.3,1.527c-1.465,0-2.416-0.865-2.416-2.408c0-1.799,1.247-2.408,2.369-2.408
			c0.912,0,1.684,0.391,2.098,1.17c0.202,0.381,0.288,0.771,0.327,1.48h-3.726c0.069,1.34,1.067,1.34,1.355,1.34
			c0.569,0,1.014-0.164,1.209-0.701H236.515z M235.51,91.113c-0.07-0.273-0.289-1.1-1.334-1.1c-0.998,0-1.208,0.764-1.293,1.1
			H235.51z"/>
		<path d="M238.174,89.352l1.246,1.48l1.248-1.48h1.238l-1.87,2.205l1.925,2.277h-1.238l-1.303-1.553l-1.309,1.553h-1.24
			l1.926-2.277l-1.871-2.205H238.174z"/>
		<path d="M243.676,92.609v1.225h-1.185v-1.225H243.676z"/>
		<path d="M245.492,87.691v2.229c0.156-0.193,0.584-0.732,1.543-0.732c1.092,0,1.84,0.717,1.84,1.77v2.877h-1.053V91.09
			c0-0.459-0.296-1.076-1.122-1.076c-0.21,0-0.771,0.047-1.028,0.516c-0.125,0.232-0.18,0.475-0.18,0.615v2.689h-1.053v-6.143
			H245.492z"/>
		<path d="M251.287,89.352h1.092v0.756h-1.092v2.525c0,0.475,0.305,0.498,0.732,0.498h0.359v0.842
			c-0.125,0.016-0.336,0.031-0.639,0.031c-0.414,0-1.506,0-1.506-1.262v-2.635h-0.896v-0.756h0.896v-1.256h1.053V89.352z"/>
		<path d="M253.902,89.352l0.023,0.6c0.218-0.428,0.646-0.764,1.246-0.764c0.865,0,1.162,0.578,1.271,0.787
			c0.194-0.326,0.537-0.787,1.355-0.787c0.694,0,1.459,0.359,1.459,1.527v3.119h-1.053v-2.939c0-0.248-0.062-0.881-0.74-0.881
			c-0.609,0-0.873,0.555-0.873,1.061v2.76h-1.053v-2.979c0-0.42-0.25-0.842-0.748-0.842c-0.523,0-0.865,0.492-0.865,1.061v2.76
			h-1.061v-4.482H253.902z"/>
		<path d="M261.139,87.691v6.143h-1.053v-6.143H261.139z"/>
	</g>
	<g enable-background="new    ">
		<path d="M297.535,155.344c0.055-0.414,0.188-1.488,2.246-1.488c0.514,0,2.136,0.094,2.136,1.465v2.51
			c0,0.141,0.062,0.459,0.21,0.568v0.102h-1.122c-0.125-0.188-0.133-0.428-0.133-0.537c-0.288,0.326-0.748,0.709-1.777,0.709
			c-0.429,0-1.793-0.031-1.793-1.395c0-1.115,0.951-1.24,2.058-1.381c1.178-0.154,1.513-0.193,1.513-0.607
			c0-0.607-0.764-0.607-0.989-0.607c-1.186,0-1.303,0.35-1.311,0.662H297.535z M300.864,156.295
			c-0.257,0.133-0.904,0.225-1.302,0.279c-0.748,0.109-1.161,0.172-1.161,0.648c0,0.154,0.077,0.623,0.997,0.623
			c0.889,0,1.466-0.508,1.466-0.967V156.295z"/>
		<path d="M303.645,154.018l0.016,0.523c0.358-0.537,0.904-0.686,1.441-0.686c1.435,0,2.121,1.014,2.121,2.408
			c0,1.699-0.975,2.408-2.043,2.408c-1.029,0-1.387-0.547-1.52-0.732v1.605h-1.053v-5.527H303.645z M303.66,156.271
			c0,0.271,0,1.527,1.231,1.527s1.239-1.264,1.239-1.527c0-0.701-0.219-1.535-1.239-1.535
			C303.66,154.736,303.66,155.998,303.66,156.271z"/>
		<path d="M308.767,154.018l0.016,0.523c0.358-0.537,0.903-0.686,1.442-0.686c1.434,0,2.12,1.014,2.12,2.408
			c0,1.699-0.975,2.408-2.042,2.408c-1.029,0-1.389-0.547-1.521-0.732v1.605h-1.053v-5.527H308.767z M308.782,156.271
			c0,0.271,0,1.527,1.231,1.527s1.239-1.264,1.239-1.527c0-0.701-0.218-1.535-1.239-1.535
			C308.782,154.736,308.782,155.998,308.782,156.271z"/>
		<path d="M314.162,157.277v1.223h-1.184v-1.223H314.162z"/>
		<path d="M316.881,158.408c0,0.957-0.928,1.137-1.652,1.137c-0.172,0-0.351-0.016-0.499-0.023v-0.842h0.632
			c0.241,0,0.467-0.07,0.467-0.459v-4.203h1.053V158.408z M316.912,153.449h-1.107v-1.092h1.107V153.449z"/>
		<path d="M318.59,157.129c0.047,0.693,0.592,0.787,1.045,0.787c0.28,0,1.067,0,1.067-0.586c0-0.404-0.265-0.475-1.271-0.709
			c-1.153-0.264-1.801-0.514-1.801-1.395c0-1.277,1.466-1.371,1.941-1.371c1.895,0,2.042,0.912,2.128,1.402h-1.091
			c0-0.109-0.008-0.242-0.094-0.344c-0.211-0.256-0.601-0.303-0.881-0.303c-0.398,0-0.904,0.078-0.904,0.521
			c0,0.344,0.288,0.461,1.293,0.693c1.115,0.258,1.778,0.492,1.778,1.373c0,1.473-1.848,1.473-2.12,1.473
			c-1.777,0-2.074-0.842-2.191-1.543H318.59z"/>
	</g>
	<g enable-background="new    ">
		<path fill="#DB5434" d="M227.188,118.696c0.128,0.034,0.162,0.06,0.162,0.119c0,0.042-0.025,0.11-0.179,0.145
			c-0.536,2.722-1.395,4.354-2.372,5.46c-0.332-0.247-0.893-0.451-1.089-0.52c1.565-1.743,2.032-3.571,2.305-5.477L227.188,118.696z
			 M229.314,118.212c1.02,1.36,2.032,3.087,2.576,5.314c-0.34,0.17-1.046,0.587-1.148,0.655c-0.553-2.713-1.598-4.371-2.363-5.281
			L229.314,118.212z M231.891,118.356c0,0.441-0.357,0.791-0.782,0.791c-0.434,0-0.791-0.35-0.791-0.791
			c0-0.442,0.366-0.791,0.791-0.791C231.525,117.565,231.891,117.905,231.891,118.356z M230.709,118.356
			c0,0.221,0.178,0.391,0.391,0.391c0.221,0,0.4-0.179,0.4-0.391c0-0.222-0.18-0.392-0.392-0.392
			C230.887,117.965,230.709,118.135,230.709,118.356z"/>
		<path fill="#DB5434" d="M233.269,119.104v-1.08h4.319c0.137,0,0.451-0.017,0.588-0.068l0.578,0.621
			c-0.17,0.221-0.264,0.417-0.323,0.544c-0.357,0.834-0.553,1.284-1.097,2.169c0.646,0.484,1.98,1.642,2.652,2.458
			c-0.297,0.322-0.773,0.85-0.875,0.969c-0.46-0.638-1.166-1.564-2.416-2.534c-0.586,0.74-1.964,2.041-3.401,2.653
			c-0.264-0.459-0.408-0.654-0.808-0.995c0.51-0.179,1.752-0.638,3.01-1.989c0.919-0.979,1.242-1.777,1.607-2.747H233.269z"/>
		<path fill="#DB5434" d="M244.451,117.761c0.094,0.025,0.162,0.051,0.162,0.119c0,0.06-0.043,0.128-0.222,0.145
			c-0.077,0.366-0.161,0.791-0.247,1.131c0.979-0.06,2.041,0.188,2.041,2.339c0,0.927-0.238,1.777-0.527,2.347
			c-0.434,0.834-0.951,1.055-1.633,1.055c-0.365,0-0.604-0.06-0.773-0.094c0.018-0.578-0.008-0.867-0.102-1.241
			c0.221,0.094,0.434,0.179,0.773,0.179c0.365,0,0.621-0.025,0.893-0.672c0.272-0.646,0.281-1.479,0.281-1.658
			c0-0.357,0-1.225-0.816-1.225c-0.102,0-0.128,0.009-0.417,0.042c-0.331,1.157-0.816,2.824-2.151,4.593
			c-0.314-0.213-0.748-0.442-1.071-0.553c0.995-1.174,1.616-2.339,2.05-3.818c-0.408,0.094-0.655,0.153-1.472,0.459l-0.366-1.182
			c0.341-0.052,1.812-0.366,2.118-0.408c0.187-0.927,0.237-1.599,0.264-1.931L244.451,117.761z M246.561,118.73
			c0.595,0.562,1.769,1.837,1.769,2.738c0,0.672-0.731,0.918-1.302,1.105c-0.145-0.323-0.408-0.748-0.553-0.961
			c0.469-0.128,0.621-0.17,0.621-0.434c0-0.442-0.705-1.369-1.335-1.99L246.561,118.73z M247.062,117.735
			c0.441,0.451,0.637,0.723,0.73,0.859c-0.246,0.161-0.374,0.263-0.544,0.407c-0.306-0.416-0.511-0.654-0.739-0.884L247.062,117.735
			z M247.879,117.217c0.109,0.11,0.467,0.45,0.748,0.876c-0.238,0.161-0.281,0.195-0.613,0.434
			c-0.246-0.434-0.441-0.672-0.705-0.936L247.879,117.217z"/>
		<path fill="#DB5434" d="M256.781,118.824v0.646h-1.045v0.943h-2.33v0.324h2.764v0.578h-2.764v0.324h3.4v0.628h-7.798v-0.628h3.401
			v-0.324h-2.729v-0.578h2.729v-0.324h-2.457v-0.628h2.457v-0.315H249v-0.646h3.41v-0.315h-2.449v-0.62h2.449v-0.553l1.012,0.06
			c0.077,0.009,0.196,0.009,0.196,0.103c0,0.076-0.103,0.119-0.212,0.161v0.229h2.33v0.936H256.781z M251.127,124.938v0.213h-1.055
			v-2.618h5.638v2.618h-1.028v-0.213H251.127z M254.682,123.468v-0.308h-3.555v0.308H254.682z M254.682,124.318v-0.316h-3.555v0.316
			H254.682z M254.791,118.824v-0.315h-1.385v0.315H254.791z M253.406,119.47v0.315h1.385v-0.315H253.406z"/>
		<path fill="#DB5434" d="M261.297,117.786c0.086,0.025,0.171,0.051,0.171,0.128c0,0.06-0.052,0.127-0.229,0.145
			c-0.145,0.672-0.213,0.936-0.256,1.105c0.613-0.025,2.008-0.085,2.008,2.075c0,1.275-0.426,2.517-0.834,3.062
			c-0.271,0.356-0.638,0.595-1.268,0.595c-0.102,0-0.501-0.017-0.867-0.102c0.009-0.077,0.018-0.153,0.018-0.264
			c0-0.298-0.051-0.646-0.111-0.979c0.154,0.077,0.383,0.188,0.791,0.188c0.299,0,0.46-0.077,0.613-0.255
			c0.255-0.289,0.561-1.208,0.561-2.245c0-0.944-0.484-1.029-0.824-1.029c-0.103,0-0.264,0.017-0.366,0.025
			c-0.408,1.403-0.986,2.985-2.211,4.584c-0.323-0.229-0.757-0.451-1.071-0.57c0.357-0.408,1.471-1.692,2.109-3.81
			c-0.511,0.128-1.157,0.298-1.523,0.468l-0.398-1.165c0.348-0.068,1.896-0.399,2.211-0.45c0.187-0.834,0.238-1.455,0.271-1.889
			L261.297,117.786z M263.653,118.305c0.944,1.038,1.539,2.441,1.539,3.113c0,0.416-0.128,0.663-0.604,0.893
			c-0.076,0.034-0.398,0.195-0.85,0.264c-0.153-0.434-0.264-0.663-0.434-0.97c0.314-0.06,0.705-0.145,0.705-0.468
			c0-0.094-0.109-1.012-1.241-2.271L263.653,118.305z"/>
		<path fill="#DB5434" d="M268.807,119.011l0.51,0.408c-0.06,0.103-0.188,0.323-0.238,0.57c1.105-1.14,1.931-1.174,2.05-1.174
			c0.62,0,1.08,0.51,1.08,1.207c0,0.323-0.025,0.52-0.196,1.752c-0.051,0.374-0.084,0.868-0.084,1.148c0,0.076,0,0.468,0.306,0.468
			c0.128,0,0.527-0.06,1.114-0.782c0.152,0.519,0.17,0.578,0.408,1.113c-0.612,0.646-1.301,0.91-1.667,0.91
			c-0.536,0-1.284-0.349-1.284-1.556c0-0.426,0.238-2.297,0.238-2.679c0-0.111-0.009-0.392-0.34-0.392
			c-0.562,0-1.387,0.91-1.973,1.582c0.008,1.667,0.008,2.151,0.135,3.443l-1.258,0.06c0.033-0.356,0.043-0.535,0.06-2.126
			c-0.145,0.213-0.757,1.165-0.901,1.353l-0.876-0.893c0.298-0.341,1.037-1.242,1.812-2.39l0.008-0.392
			c-0.119,0.034-0.697,0.229-1.445,0.332l-0.246-1.208c0.246-0.008,0.833-0.025,1.717-0.28c0.009-0.383,0.025-1.667,0-2.05
			l1.08,0.094c0.153,0.017,0.238,0.051,0.238,0.128c0,0.102-0.094,0.119-0.188,0.145c-0.033,0.356-0.059,0.791-0.084,1.225
			L268.807,119.011z"/>
		<path fill="#DB5434" d="M281.877,118.79c-2.126-0.009-4.014,1.734-4.014,3.291c0,0.995,0.697,1.641,2.5,1.777
			c-0.332,0.62-0.459,1.021-0.535,1.284c-1.293-0.289-3.104-1.029-3.104-2.96c0-1.14,0.646-2.117,1.786-2.993
			c-0.545,0.034-3.053,0.323-3.879,0.536l-0.16-1.369c0.16,0.017,0.322,0.025,0.553,0.025c0.578,0,4.123-0.145,6.633-0.808
			L281.877,118.79z"/>
		<path fill="#DB5434" d="M225.802,129.576c0.136,0.042,0.179,0.06,0.179,0.136c0,0.103-0.119,0.119-0.179,0.128
			c-0.298,0.824-0.45,1.684-0.45,2.56c0,1.199,0.425,2.058,0.73,2.058c0.314,0,0.707-0.943,0.91-1.42
			c0.145,0.188,0.383,0.493,0.766,0.757c-0.629,1.548-1.326,2.186-1.785,2.186c-0.562,0-1.744-1.105-1.744-3.665
			c0-1.046,0.179-2.024,0.4-3.079L225.802,129.576z M230.028,129.687c1.157,1.564,1.591,3.062,1.7,4.312
			c-0.178,0.06-0.373,0.136-1.182,0.527c-0.102-1.862-0.672-3.146-1.463-4.243L230.028,129.687z"/>
		<path fill="#DB5434" d="M238.227,129.652c-0.52,0.392-1.932,1.718-2.254,2.066c0.221-0.067,0.578-0.187,1.113-0.187
			c1.26,0,2.407,0.739,2.407,2.202c0,1.854-1.803,2.636-3.188,2.636c-1.311,0-2.066-0.62-2.066-1.428
			c0-0.731,0.662-1.276,1.547-1.276c0.646,0,1.615,0.341,1.812,1.344c0.757-0.349,0.757-1.012,0.757-1.182
			c0-0.493-0.289-1.353-1.531-1.353c-1.488,0-2.347,0.894-3.545,2.135l-0.868-0.851c0.91-0.629,3.224-2.917,3.708-3.555
			c-0.74,0.162-2.033,0.281-2.576,0.323l-0.188-1.14c0.638,0.025,2.984-0.025,4.285-0.519L238.227,129.652z M235.726,134.594
			c-0.314,0-0.468,0.187-0.468,0.382c0,0.341,0.468,0.527,0.885,0.527c0.221,0,0.408-0.042,0.51-0.067
			C236.576,134.908,236.219,134.594,235.726,134.594z"/>
		<path fill="#DB5434" d="M246.211,129.278c0.17,0,0.426-0.017,0.587-0.06l0.843,0.697c-0.111,0.145-0.171,0.238-0.264,0.468
			c-0.826,2.058-0.996,2.449-1.643,3.308c-0.994,1.336-2.278,2.067-3.248,2.577c-0.221-0.307-0.493-0.569-0.893-0.885
			c2.211-1.003,3.469-2.058,4.498-5.034h-5.34v-1.071H246.211z"/>
		<path fill="#DB5434" d="M251.969,132.127c0.094,0.009,0.162,0.009,0.162,0.085c0,0.077-0.111,0.11-0.154,0.128
			c-0.008,0.391-0.025,0.604-0.059,0.833c0.646-0.502,0.986-0.961,1.344-1.471h-4.559v-0.995h4.958c0.179,0,0.314-0.068,0.392-0.11
			l0.756,0.705c-0.178,0.213-0.408,0.579-0.569,0.8c-0.468,0.655-1.013,1.344-1.624,1.871c-0.221-0.281-0.536-0.562-0.706-0.697
			c-0.247,2.049-1.658,2.78-2.058,2.993c-0.307-0.307-0.451-0.425-0.825-0.655c1.386-0.748,1.973-1.521,1.88-3.554L251.969,132.127z
			"/>
		<path fill="#DB5434" d="M260.072,136.345h-1.225v-4.039c-1.471,0.876-2.236,1.165-2.602,1.301
			c-0.213-0.374-0.519-0.731-0.867-1.021c2.713-0.782,4.771-2.517,5.901-3.971l1.021,0.782c0.051,0.042,0.076,0.076,0.076,0.119
			c0,0.076-0.084,0.11-0.152,0.11c-0.043,0-0.111-0.009-0.153-0.025c-0.587,0.697-1.284,1.284-1.999,1.854V136.345z"/>
		<path fill="#DB5434" d="M266.246,129.38c0.086,0.009,0.196,0.009,0.196,0.111c0,0.093-0.085,0.136-0.153,0.161v2.084
			c0,2.159-0.961,3.129-2.117,4.03c-0.137-0.161-0.307-0.365-0.961-0.791c1.615-1.028,1.846-1.989,1.846-3.163v-2.491
			L266.246,129.38z M268.355,129.304c0.094,0.009,0.162,0.009,0.162,0.094s-0.086,0.119-0.162,0.161v4.456
			c1.012-0.638,1.862-1.556,2.432-2.372c0.18,0.493,0.299,0.706,0.57,1.055c-0.561,0.765-1.633,1.819-2.432,2.39
			c-0.706,0.51-0.783,0.569-1.004,0.757l-0.782-0.511c0.017-0.229,0.034-0.442,0.034-0.672v-5.417L268.355,129.304z"/>
	</g>
	
		<line fill="none" stroke="#DB5434" stroke-width="1.4173" stroke-linecap="round" stroke-linejoin="round" stroke-dasharray="0,2.8347" x1="328.849" y1="132.955" x2="346.706" y2="132.955"/>
	<g enable-background="new    ">
		<path fill="#DB5434" d="M354.164,119.228v0.731h-2.883v-0.731H354.164z M356.435,122.195c0.06,0.009,0.136,0.034,0.136,0.119
			c0,0.094-0.102,0.119-0.246,0.145c-0.23,1.896-0.961,2.619-1.531,3.146c-0.238-0.28-0.51-0.441-0.629-0.51v0.434h-0.885v-0.383
			h-0.816v0.468h-0.952v-3.043h2.653v2.252c1.25-0.936,1.25-2.415,1.225-2.822L356.435,122.195z M353.934,118.114v0.73h-2.253v-0.73
			H353.934z M353.934,120.359v0.713h-2.253v-0.713H353.934z M353.934,121.481v0.722h-2.253v-0.722H353.934z M353.279,124.296v-0.851
			h-0.816v0.851H353.279z M356.061,117.884l1.055,0.043c0.051,0,0.161,0.008,0.161,0.11c0,0.094-0.103,0.119-0.204,0.153v0.383
			h1.939v0.807h-1.939v0.427h1.395v0.789h-3.887v-0.789h1.48v-0.427h-1.82v-0.807h1.82V117.884z M358.943,122.518h-0.953v-0.73
			h-2.688v0.723H354.3v-1.538h4.644V122.518z M357.396,125.52c-0.714,0-0.714-0.501-0.714-0.798v-2.704l0.9,0.051
			c0.145,0.009,0.264,0.017,0.264,0.11c0,0.102-0.119,0.145-0.229,0.178v2.033c0,0.077,0,0.179,0.118,0.179h0.247
			c0.229,0,0.306-0.731,0.34-1.004c0.137,0.188,0.417,0.502,0.885,0.612c-0.188,0.995-0.375,1.343-1.029,1.343H357.396z"/>
		<path fill="#DB5434" d="M366.826,120.273c0.06,0.025,0.119,0.043,0.119,0.119c0,0.102-0.119,0.11-0.188,0.11
			c-0.051,0.459-0.127,0.859-0.383,1.667c0.357,0.204,0.919,0.527,1.311,0.91c-0.366,0.501-0.4,0.553-0.697,1.037
			c-0.222-0.213-0.477-0.459-1.055-0.825c-0.238,0.485-0.893,1.591-1.922,2.271c-0.298-0.349-0.51-0.51-0.936-0.773
			c0.799-0.365,1.557-1.344,1.896-2.041c-0.596-0.272-0.979-0.417-1.734-0.595c-0.91,1.87-1.276,2.627-2.093,2.627
			c-0.629,0-1.259-0.527-1.259-1.352c0-1.046,0.919-2.348,2.696-2.305c0.11-0.272,0.587-1.479,0.688-1.718
			c-0.875,0.229-1.624,0.323-1.955,0.365l-0.247-1.207c1.335,0,2.534-0.238,3.112-0.519l0.74,0.62
			c-0.536,0.706-1.156,2.169-1.268,2.509c0.74,0.136,1.412,0.408,1.701,0.527c0.246-0.901,0.246-1.582,0.246-1.862L366.826,120.273z
			 M360.873,123.429c0,0.298,0.196,0.306,0.213,0.306c0.272,0,0.885-1.199,1.021-1.548
			C361.588,122.179,360.873,122.604,360.873,123.429z"/>
		<path fill="#DB5434" d="M370.381,121.014v2.713c0,0.051,0,0.493,0.493,0.663c0.366,0.127,1.616,0.136,2.083,0.136
			c0.8,0,2.365-0.085,3.232-0.161c-0.128,0.229-0.35,0.697-0.392,1.139h-3.869c-1.497,0-1.922-0.416-2.16-0.842
			c-0.425,0.307-0.748,0.52-1.131,0.74c-0.025,0.179-0.042,0.289-0.136,0.289c-0.086,0-0.119-0.102-0.145-0.17l-0.4-1.004
			c0.655-0.212,1.156-0.578,1.301-0.68v-1.803h-0.994v-1.021H370.381z M369.012,117.909c0.484,0.314,1.165,0.876,1.514,1.242
			c-0.127,0.118-0.672,0.62-0.773,0.73c-0.426-0.441-0.902-0.85-1.506-1.25L369.012,117.909z M372.898,119.806
			c-0.025-0.383-0.025-0.553-0.025-0.706h-1.318v-1.062h2.432c-0.068,0.34-0.068,0.621-0.068,0.884c0,1.905,0.434,3.215,2.084,4.508
			c-0.426,0.34-0.535,0.434-0.791,0.782c-0.842-0.578-1.811-1.888-2.092-3.053c-0.689,2.007-1.65,2.798-1.854,2.959
			c-0.256-0.45-0.646-0.654-0.876-0.731c0.511-0.357,1.786-1.582,2.05-3.674L372.898,119.806z"/>
		<path fill="#DB5434" d="M380.875,118.079c0.085,0.018,0.17,0.034,0.17,0.119c0,0.103-0.094,0.128-0.153,0.145
			c-0.017,0.196-0.025,0.341-0.042,0.578c0.221-0.008,0.595-0.017,1.164-0.017c0.485,0,0.783,0.009,1.276,0.051v1.08
			c-0.408-0.034-1.097-0.094-2.476-0.06v1.105c0.222-0.017,1.225-0.093,2.254-0.391v1.097c-0.697,0.153-1.496,0.213-2.228,0.272
			c0.009,0.145,0.025,0.782,0.025,0.909c1.19,0.204,2.44,0.868,2.832,1.157c-0.306,0.314-0.502,0.553-0.791,0.918
			c-0.434-0.374-1.147-0.851-1.981-1.122c0.034,0.527,0.051,1.522-1.743,1.522c-1.479,0-2.118-0.724-2.118-1.344
			c0-1.063,1.488-1.31,2.178-1.31c0.094,0,0.365,0.017,0.477,0.017c0-0.043-0.01-0.604-0.01-0.681
			c-0.994,0.018-2.439,0.052-2.439-0.739c0-0.289,0.152-0.545,0.604-0.995l0.816,0.213c-0.094,0.102-0.238,0.264-0.238,0.323
			c0,0.221,0.314,0.229,0.74,0.229c0.195,0,0.322,0,0.492-0.009c-0.008-0.179-0.008-0.97-0.008-1.131
			c-1.199,0.042-2.059,0.153-2.756,0.238v-1.14c0.434-0.043,2.355-0.119,2.747-0.145c-0.017-0.782-0.017-0.868-0.042-1.089
			L380.875,118.079z M379.242,123.633c-0.272,0-1.012,0.051-1.012,0.459c0,0.357,0.646,0.383,0.773,0.383
			c0.519,0,0.782-0.204,0.723-0.791C379.616,123.658,379.48,123.633,379.242,123.633z"/>
		<path fill="#DB5434" d="M387.159,119.482l0.511,0.408c-0.061,0.103-0.188,0.323-0.238,0.57c1.105-1.14,1.93-1.174,2.049-1.174
			c0.621,0,1.08,0.51,1.08,1.207c0,0.323-0.025,0.52-0.195,1.752c-0.051,0.374-0.085,0.868-0.085,1.148c0,0.076,0,0.468,0.306,0.468
			c0.128,0,0.527-0.06,1.115-0.782c0.152,0.519,0.17,0.578,0.408,1.113c-0.613,0.646-1.302,0.91-1.668,0.91
			c-0.535,0-1.283-0.349-1.283-1.556c0-0.426,0.238-2.297,0.238-2.679c0-0.111-0.01-0.392-0.341-0.392
			c-0.562,0-1.386,0.91-1.973,1.582c0.009,1.667,0.009,2.151,0.136,3.443l-1.258,0.06c0.033-0.356,0.042-0.535,0.059-2.126
			c-0.145,0.213-0.756,1.165-0.901,1.353l-0.876-0.893c0.298-0.341,1.037-1.242,1.812-2.39l0.009-0.392
			c-0.119,0.034-0.697,0.229-1.445,0.332l-0.247-1.208c0.247-0.008,0.833-0.025,1.718-0.28c0.008-0.383,0.025-1.667,0-2.05
			l1.08,0.094c0.152,0.017,0.238,0.051,0.238,0.128c0,0.102-0.094,0.119-0.188,0.145c-0.033,0.356-0.06,0.791-0.085,1.225
			L387.159,119.482z"/>
		<path fill="#DB5434" d="M398.47,118.785c-0.519,0.392-1.931,1.718-2.253,2.066c0.221-0.067,0.578-0.187,1.113-0.187
			c1.259,0,2.406,0.739,2.406,2.202c0,1.854-1.803,2.636-3.188,2.636c-1.31,0-2.066-0.62-2.066-1.428
			c0-0.731,0.663-1.276,1.548-1.276c0.646,0,1.615,0.341,1.811,1.344c0.758-0.349,0.758-1.012,0.758-1.182
			c0-0.493-0.289-1.353-1.531-1.353c-1.488,0-2.348,0.894-3.546,2.135l-0.868-0.851c0.91-0.629,3.224-2.917,3.709-3.555
			c-0.74,0.162-2.033,0.281-2.577,0.323l-0.188-1.14c0.638,0.025,2.985-0.025,4.286-0.519L398.47,118.785z M395.969,123.727
			c-0.314,0-0.467,0.187-0.467,0.382c0,0.341,0.467,0.527,0.885,0.527c0.221,0,0.408-0.042,0.51-0.067
			C396.82,124.041,396.463,123.727,395.969,123.727z"/>
		<path fill="#DB5434" d="M356.842,134.173c0,0.391-0.127,2.346-2.652,2.346c-1.361,0-2.764-0.526-2.764-2.338v-0.535h1.267v0.425
			c0,0.357,0.017,1.369,1.421,1.369c1.275,0,1.463-0.851,1.463-1.284v-4.523h1.266V134.173z"/>
		<path fill="#DB5434" d="M357.957,132.888c0.06-0.451,0.204-1.623,2.449-1.623c0.561,0,2.329,0.102,2.329,1.598v2.738
			c0,0.153,0.068,0.502,0.229,0.621v0.109h-1.224c-0.136-0.202-0.144-0.466-0.144-0.585c-0.315,0.356-0.817,0.772-1.94,0.772
			c-0.468,0-1.955-0.034-1.955-1.521c0-1.217,1.036-1.353,2.245-1.506c1.283-0.17,1.65-0.212,1.65-0.663
			c0-0.663-0.834-0.663-1.081-0.663c-1.293,0-1.421,0.382-1.429,0.723H357.957z M361.588,133.926
			c-0.28,0.145-0.986,0.246-1.42,0.306c-0.816,0.119-1.268,0.188-1.268,0.706c0,0.17,0.085,0.681,1.089,0.681
			c0.97,0,1.599-0.553,1.599-1.055V133.926z"/>
		<path fill="#DB5434" d="M364.623,131.442l1.514,3.528l1.506-3.528h1.249l-2.108,4.889h-1.301l-2.108-4.889H364.623z"/>
		<path fill="#DB5434" d="M369.607,132.888c0.059-0.451,0.203-1.623,2.448-1.623c0.562,0,2.329,0.102,2.329,1.598v2.738
			c0,0.153,0.068,0.502,0.23,0.621v0.109h-1.225c-0.135-0.202-0.144-0.466-0.144-0.585c-0.315,0.356-0.817,0.772-1.94,0.772
			c-0.467,0-1.955-0.034-1.955-1.521c0-1.217,1.037-1.353,2.245-1.506c1.284-0.17,1.65-0.212,1.65-0.663
			c0-0.663-0.834-0.663-1.081-0.663c-1.293,0-1.42,0.382-1.429,0.723H369.607z M373.238,133.926
			c-0.281,0.145-0.986,0.246-1.42,0.306c-0.817,0.119-1.268,0.188-1.268,0.706c0,0.17,0.084,0.681,1.088,0.681
			c0.971,0,1.6-0.553,1.6-1.055V133.926z"/>
		<path fill="#DB5434" d="M379.446,131.535c-0.017-0.212-0.077-0.399-0.229-0.629c-0.162-0.238-0.469-0.383-1.072-0.383
			c-0.298,0-1.353,0-1.353,0.748c0,0.587,0.399,0.724,2.136,1.302c1.012,0.34,1.98,0.663,1.98,1.854c0,0.723-0.493,2.091-2.67,2.091
			c-1.293,0-2.857-0.459-2.951-2.228h1.326c0.034,0.749,0.527,1.148,1.591,1.148c0.289,0,0.757-0.042,1.063-0.246
			c0.188-0.128,0.34-0.383,0.34-0.63c0-0.527-0.451-0.688-1.539-1.021c-1.565-0.477-2.585-0.851-2.585-2.127
			c0-0.723,0.434-1.972,2.567-1.972c1.574,0,2.467,0.535,2.704,2.091H379.446z"/>
		<path fill="#DB5434" d="M386.852,134.513c-0.135,1.31-1.122,2.006-2.542,2.006c-1.964,0-2.687-1.266-2.687-2.593
			c0-1.608,1.012-2.661,2.678-2.661c0.272,0,2.254,0.008,2.5,1.93h-1.189c-0.086-1.029-1.072-1.029-1.302-1.029
			c-0.341,0-0.858,0.067-1.157,0.493c-0.297,0.417-0.331,0.927-0.331,1.216c0,0.247,0.034,0.902,0.425,1.336
			c0.162,0.188,0.451,0.408,1.047,0.408c1.216,0,1.301-0.766,1.344-1.105H386.852z"/>
		<path fill="#DB5434" d="M388.783,131.442l0.017,0.705c0.442-0.85,1.479-0.883,1.769-0.883h0.646v1.172h-0.697
			c-1.156,0-1.718,0.612-1.718,1.446v2.448h-1.147v-4.889H388.783z"/>
		<path fill="#DB5434" d="M393.341,130.821h-1.198v-1.189h1.198V130.821z M393.315,136.331h-1.147v-4.889h1.147V136.331z"/>
		<path fill="#DB5434" d="M395.705,131.442l0.017,0.569c0.392-0.586,0.987-0.747,1.573-0.747c1.565,0,2.312,1.104,2.312,2.627
			c0,1.854-1.062,2.627-2.227,2.627c-1.123,0-1.515-0.595-1.659-0.799v1.751h-1.147v-6.028H395.705z M395.722,133.899
			c0,0.298,0,1.668,1.345,1.668c1.344,0,1.352-1.378,1.352-1.668c0-0.765-0.238-1.676-1.352-1.676
			C395.722,132.224,395.722,133.603,395.722,133.899z"/>
		<path fill="#DB5434" d="M402.262,131.442h1.189v0.824h-1.189v2.756c0,0.52,0.331,0.545,0.799,0.545h0.391v0.917
			c-0.135,0.018-0.365,0.034-0.697,0.034c-0.45,0-1.64,0-1.64-1.377v-2.875h-0.978v-0.824h0.978v-1.369h1.147V131.442z"/>
		<path fill="#DB5434" d="M357.014,141.088c0.17,0,0.424-0.017,0.586-0.06l0.842,0.697c-0.11,0.145-0.17,0.238-0.264,0.468
			c-0.824,2.058-0.994,2.449-1.641,3.308c-0.995,1.336-2.279,2.067-3.249,2.577c-0.221-0.307-0.493-0.569-0.893-0.885
			c2.211-1.003,3.47-2.058,4.499-5.034h-5.341v-1.071H357.014z"/>
		<path fill="#DB5434" d="M362.77,143.937c0.094,0.009,0.162,0.009,0.162,0.085c0,0.077-0.111,0.11-0.153,0.128
			c-0.009,0.391-0.025,0.604-0.06,0.833c0.646-0.502,0.986-0.961,1.344-1.471h-4.559v-0.995h4.959c0.178,0,0.314-0.068,0.391-0.11
			l0.757,0.705c-0.179,0.213-0.408,0.579-0.569,0.8c-0.469,0.655-1.013,1.344-1.625,1.871c-0.221-0.281-0.535-0.562-0.705-0.697
			c-0.247,2.049-1.658,2.78-2.059,2.993c-0.307-0.307-0.451-0.425-0.824-0.655c1.386-0.748,1.973-1.521,1.879-3.554L362.77,143.937z
			"/>
		<path fill="#DB5434" d="M370.874,148.154h-1.225v-4.039c-1.472,0.876-2.236,1.165-2.603,1.301
			c-0.212-0.374-0.518-0.731-0.867-1.021c2.713-0.782,4.771-2.517,5.902-3.971l1.02,0.782c0.052,0.042,0.077,0.076,0.077,0.119
			c0,0.076-0.085,0.11-0.153,0.11c-0.043,0-0.11-0.009-0.152-0.025c-0.588,0.697-1.285,1.284-1.999,1.854V148.154z"/>
		<path fill="#DB5434" d="M377.048,141.189c0.085,0.009,0.196,0.009,0.196,0.111c0,0.093-0.086,0.136-0.154,0.161v2.084
			c0,2.159-0.961,3.129-2.117,4.03c-0.136-0.161-0.306-0.365-0.961-0.791c1.616-1.028,1.846-1.989,1.846-3.163v-2.491
			L377.048,141.189z M379.156,141.113c0.094,0.009,0.162,0.009,0.162,0.094s-0.085,0.119-0.162,0.161v4.456
			c1.013-0.638,1.863-1.556,2.433-2.372c0.179,0.493,0.298,0.706,0.569,1.055c-0.561,0.765-1.633,1.819-2.432,2.39
			c-0.705,0.51-0.782,0.569-1.004,0.757l-0.781-0.511c0.017-0.229,0.033-0.442,0.033-0.672v-5.417L379.156,141.113z"/>
	</g>
	<g enable-background="new    ">
		<path d="M307.689,93.74c0,0.959-0.928,1.139-1.652,1.139c-0.172,0-0.352-0.016-0.5-0.023v-0.842h0.632
			c0.241,0,0.468-0.07,0.468-0.461v-4.201h1.053V93.74z M307.72,88.783h-1.106v-1.092h1.106V88.783z"/>
		<path d="M309.398,92.461c0.047,0.693,0.592,0.787,1.044,0.787c0.28,0,1.067,0,1.067-0.584c0-0.406-0.265-0.475-1.27-0.709
			c-1.154-0.266-1.801-0.516-1.801-1.395c0-1.279,1.465-1.373,1.941-1.373c1.894,0,2.041,0.912,2.127,1.404h-1.091
			c0-0.109-0.008-0.242-0.094-0.344c-0.21-0.258-0.601-0.305-0.881-0.305c-0.397,0-0.903,0.078-0.903,0.523
			c0,0.342,0.287,0.459,1.293,0.693c1.115,0.256,1.777,0.49,1.777,1.371c0,1.473-1.848,1.473-2.12,1.473
			c-1.777,0-2.073-0.842-2.19-1.543H309.398z"/>
	</g>
	<g enable-background="new    ">
		<path d="M265.281,11.438c0.078,0.008,0.18,0.008,0.18,0.101c0,0.086-0.078,0.125-0.141,0.148v1.91c0,1.979-0.88,2.868-1.939,3.694
			c-0.125-0.147-0.281-0.335-0.881-0.725c1.48-0.943,1.691-1.824,1.691-2.899v-2.284L265.281,11.438z M267.215,11.368
			c0.086,0.008,0.148,0.008,0.148,0.085c0,0.078-0.078,0.109-0.148,0.148v4.085c0.928-0.585,1.707-1.427,2.23-2.175
			c0.163,0.452,0.272,0.646,0.521,0.967c-0.514,0.701-1.496,1.668-2.229,2.189c-0.648,0.469-0.718,0.523-0.921,0.694l-0.718-0.468
			c0.016-0.211,0.031-0.405,0.031-0.615v-4.966L267.215,11.368z"/>
		<path d="M277.342,13.87v1.106h-6.728V13.87H277.342z"/>
		<path d="M280.451,13.013c1.091,0.546,2.158,1.239,2.813,1.887c-0.304,0.319-0.413,0.452-0.748,0.85
			c-0.951-0.912-1.918-1.458-2.464-1.746v3.804h-1.105v-6.836l1.105,0.062c0.078,0.008,0.148,0.016,0.148,0.086
			c0,0.085-0.102,0.108-0.148,0.116v2.339L280.451,13.013z"/>
		<path d="M284.061,14.236v-0.951h6.627v0.951h-2.619c-0.023,1.356-0.477,2.09-0.882,2.525c-0.296,0.32-0.818,0.811-1.73,1.107
			c-0.249-0.375-0.562-0.654-0.787-0.826c2.104-0.585,2.323-1.871,2.347-2.807H284.061z M289.557,11.243v0.959h-4.451v-0.959
			H289.557z M290.118,11.492c0.171,0.141,0.593,0.539,0.779,0.765c-0.101,0.108-0.132,0.155-0.46,0.554
			c-0.39-0.477-0.67-0.709-0.803-0.818L290.118,11.492z M290.484,10.557c0.273,0.234,0.568,0.531,0.811,0.804
			c-0.164,0.147-0.258,0.241-0.468,0.499c-0.194-0.242-0.53-0.585-0.795-0.795L290.484,10.557z"/>
		<path d="M294.975,17.744H294v-2.854c-0.109,0.062-1.139,0.647-1.785,0.873c-0.156-0.265-0.391-0.553-0.663-0.779
			c1.317-0.428,2.821-1.099,4.28-2.884l0.787,0.616c0.031,0.023,0.055,0.055,0.055,0.094c0,0.069-0.055,0.077-0.102,0.077
			s-0.07-0.008-0.109-0.016c-0.499,0.522-0.951,0.951-1.488,1.356V17.744z"/>
		<path d="M299.223,11.243c0.102,0.008,0.164,0.023,0.164,0.078c0,0.093-0.109,0.14-0.164,0.163v4.74
			c1.186-0.359,3.103-1.459,4.248-2.963c0.188,0.499,0.242,0.624,0.499,1.053c-1.668,1.762-2.665,2.213-5.176,3.352l-0.709-0.693
			c0.016-0.109,0.031-0.359,0.031-0.469v-5.315L299.223,11.243z"/>
		<path d="M309.676,12.077c0.258,0,0.398-0.055,0.538-0.116l0.562,0.49c-0.133,0.227-0.546,1.146-0.803,1.723
			c-1.217,2.705-3.135,3.602-3.734,3.883c-0.141-0.18-0.289-0.352-0.834-0.764c2.783-1.154,3.523-3.236,3.891-4.257h-2.168
			c-0.521,0.765-1.053,1.372-1.832,2.073c-0.351-0.366-0.46-0.482-0.811-0.717c0.826-0.678,2.02-1.863,2.611-3.508l0.959,0.459
			c0.039,0.016,0.109,0.047,0.109,0.117c0,0.078-0.141,0.102-0.188,0.102c-0.094,0.188-0.156,0.305-0.265,0.515H309.676z"/>
		<path d="M313.791,13.013c1.092,0.546,2.16,1.239,2.814,1.887c-0.304,0.319-0.413,0.452-0.748,0.85
			c-0.951-0.912-1.918-1.458-2.463-1.746v3.804h-1.107v-6.836l1.107,0.062c0.078,0.008,0.147,0.016,0.147,0.086
			c0,0.085-0.101,0.108-0.147,0.116v2.339L313.791,13.013z"/>
		<path d="M318.719,11.149c0.094,0.008,0.156,0.008,0.156,0.077c0,0.078-0.094,0.117-0.156,0.148v3.773h-1.092v-4.046
			L318.719,11.149z M322.336,11.01c0.117,0.008,0.156,0.031,0.156,0.069c0,0.102-0.102,0.132-0.156,0.155v2.525
			c0,2.604-1.52,3.547-3.024,4.179c-0.133-0.327-0.358-0.616-0.687-0.85c2.55-0.834,2.604-2.464,2.604-3.321v-2.812L322.336,11.01z"
			/>
	</g>
	<polygon fill="#7D7A6F" points="292.982,63.064 296.324,63.064 297.1,60.485 307.178,60.485 308.445,63.064 325.256,63.064 
		325.256,66.748 325.256,83.962 292.982,83.962 	"/>
	<polygon fill="#7D7A6F" points="223.574,3.986 226.916,3.986 227.689,1.407 237.768,1.407 239.035,3.986 255.848,3.986 
		255.848,7.67 255.848,24.884 223.574,24.884 	"/>
	<g>
		<g>
			<path fill="#5176A9" d="M233.621,74.896c0,0-1.518,2.312-0.584,3.944c1.742,1.632,5.625-0.723,5.625-0.723
				C234.904,77.278,233.621,74.896,233.621,74.896z M247.035,52.354v6.869l7.002,0.025v-0.107L247.035,52.354z M238.209,69.101
				h5.121c0,0,0.104-2.496-2.496-2.496C238.145,66.604,238.209,69.101,238.209,69.101z M246.229,52.177h-19.66v31.785h27.469V60.058
				l-7.809-0.028V52.177z M247.363,60.952c0,0,3.469-0.326,1.682,4.311l-0.1-0.103c0,0,1.49-3.69-1.662-3.69
				c-1.988,0-4.293,1.629-4.293,1.629s6.52,1.072,6.002,8.544h-10.77c0,0-0.158,2.901,2.623,2.901c2.025,0,2.424-1.827,2.424-1.827
				h5.645c0,0-1.512,5.604-7.871,5.604c-1.51,0-2.066-0.118-2.066-0.118s-2.584,2.049-5.127,2.049s-2.783-2.766-2.424-3.998
				c0.359-1.231,1.789-7.275,7.83-11.406v-0.279c0,0-4.094,1.71-7.035,5.922c0,0-0.119-4.093,3.498-6.397
				c3.318-2.009,6.637-1.114,6.637-1.114S245.137,60.952,247.363,60.952z"/>
		</g>
	</g>
	<g>
		<g>
			<path fill="#5176A9" d="M247.035,52.354v6.87l7.002,0.025v-0.106L247.035,52.354z M246.229,52.176h-19.66v31.786h27.469V60.057
				l-7.809-0.027V52.176z"/>
		</g>
	</g>
	<g>
		<path fill="#FFFFFF" d="M230.361,64.02v2.027h2.749V64.02h0.95v5.025h-0.95v-2.258h-2.749v2.258h-0.957V64.02H230.361z"/>
		<path fill="#FFFFFF" d="M239.691,64.02v0.74h-1.779v4.285h-0.949V64.76h-1.773v-0.74H239.691z"/>
		<path fill="#FFFFFF" d="M242.135,64.02l1.244,3.91l1.244-3.91h1.288v5.025h-0.956v-3.953l-1.244,3.953h-0.664l-1.244-3.953v3.953
			h-0.95V64.02H242.135z"/>
		<path fill="#FFFFFF" d="M248.309,64.02v4.286h2.717v0.739h-3.674V64.02H248.309z"/>
	</g>
	<g>
		<g>
			<path fill="#5176A9" d="M302.756,139.782c0,0-1.518,2.312-0.584,3.944c1.742,1.632,5.625-0.723,5.625-0.723
				C304.039,142.164,302.756,139.782,302.756,139.782z M316.17,117.24v6.869l7.002,0.025v-0.107L316.17,117.24z M307.344,133.986
				h5.121c0,0,0.104-2.496-2.496-2.496C307.279,131.49,307.344,133.986,307.344,133.986z M315.363,117.062h-19.66v31.785h27.469
				v-23.904l-7.809-0.028V117.062z M316.498,125.838c0,0,3.469-0.326,1.682,4.311l-0.1-0.103c0,0,1.49-3.69-1.662-3.69
				c-1.988,0-4.293,1.629-4.293,1.629s6.52,1.072,6.002,8.544h-10.77c0,0-0.158,2.901,2.623,2.901c2.025,0,2.424-1.827,2.424-1.827
				h5.645c0,0-1.512,5.604-7.871,5.604c-1.51,0-2.066-0.118-2.066-0.118s-2.584,2.049-5.127,2.049s-2.783-2.766-2.424-3.998
				c0.359-1.231,1.789-7.275,7.83-11.406v-0.279c0,0-4.094,1.71-7.035,5.922c0,0-0.119-4.093,3.498-6.397
				c3.318-2.009,6.637-1.114,6.637-1.114S314.271,125.838,316.498,125.838z"/>
		</g>
	</g>
	<g>
		<g>
			<path fill="#DB5434" d="M316.17,117.239v6.87l7.002,0.026v-0.107L316.17,117.239z M315.363,117.062h-19.66v31.786h27.469v-23.905
				l-7.809-0.027V117.062z"/>
		</g>
	</g>
	<g>
		<path fill="#FFFFFF" d="M308.577,132.311c0,0.293-0.096,1.76-1.989,1.76c-1.021,0-2.073-0.395-2.073-1.753v-0.401h0.95v0.318
			c0,0.268,0.013,1.027,1.065,1.027c0.956,0,1.097-0.639,1.097-0.963v-3.393h0.95V132.311z"/>
		<path fill="#FFFFFF" d="M312.934,130.334c-0.012-0.159-0.057-0.299-0.172-0.471c-0.121-0.18-0.351-0.287-0.804-0.287
			c-0.224,0-1.015,0-1.015,0.561c0,0.439,0.301,0.542,1.602,0.976c0.76,0.255,1.486,0.497,1.486,1.39
			c0,0.543-0.37,1.568-2.003,1.568c-0.97,0-2.144-0.344-2.214-1.67h0.996c0.025,0.561,0.395,0.861,1.192,0.861
			c0.217,0,0.567-0.033,0.798-0.186c0.14-0.096,0.254-0.287,0.254-0.472c0-0.396-0.338-0.517-1.154-0.765
			c-1.174-0.357-1.939-0.639-1.939-1.595c0-0.542,0.326-1.479,1.928-1.479c1.18,0,1.85,0.402,2.027,1.568H312.934z"/>
	</g>
	<g>
		<path fill="#FFFFFF" d="M238.801,74.952l0.318,0.65l-3.201,1.595l3.201,1.594l-0.318,0.651l-4.51-2.245L238.801,74.952z"/>
		<path fill="#FFFFFF" d="M242.99,74.685l-2.258,5.025h-0.663l2.258-5.025H242.99z"/>
		<path fill="#FFFFFF" d="M244.26,79.442l-0.325-0.651l3.202-1.594l-3.202-1.595l0.325-0.65l4.51,2.245L244.26,79.442z"/>
	</g>
</g>
</svg>
