<?xml version="1.0" encoding="utf-8"?>
<!-- Generator: Adobe Illustrator 16.0.0, SVG Export Plug-In . SVG Version: 6.00 Build 0)  -->
<!DOCTYPE svg PUBLIC "-//W3C//DTD SVG 1.1//EN" "http://www.w3.org/Graphics/SVG/1.1/DTD/svg11.dtd">
<svg version="1.1" xmlns="http://www.w3.org/2000/svg" xmlns:xlink="http://www.w3.org/1999/xlink" x="0px" y="0px"
	 width="408.19px" height="120.477px" viewBox="0 0 408.19 120.477" enable-background="new 0 0 408.19 120.477"
	 xml:space="preserve">
<g id="レイヤー_0">
</g>
<g id="レイヤー_1">
	
		<rect x="5.657" y="14.525" fill="#FFFFFF" stroke="#000000" stroke-width="0.5669" stroke-miterlimit="10" width="141.201" height="118.143"/>
	
		<rect x="9.674" y="51.577" fill="none" stroke="#040000" stroke-width="0.3478" stroke-miterlimit="10" width="133.167" height="56.587"/>
	
		<line fill="none" stroke="#040000" stroke-width="0.4252" stroke-miterlimit="10" x1="142.842" y1="51.577" x2="9.674" y2="108.164"/>
	<g>
		<path d="M55.389,4.427c1.191,0.595,2.356,1.352,3.07,2.058c-0.332,0.349-0.45,0.493-0.816,0.927
			c-1.037-0.995-2.092-1.59-2.688-1.905v4.15h-1.207V2.198l1.207,0.068c0.085,0.008,0.162,0.017,0.162,0.093
			c0,0.094-0.11,0.119-0.162,0.128v2.551L55.389,4.427z"/>
		<path d="M61.58,4.205c0.307,0.502,0.604,1.131,0.8,1.616c-0.222,0.076-0.596,0.229-0.919,0.441
			c-0.255-0.654-0.484-1.079-0.816-1.666L61.58,4.205z M66.513,4.256c0.085,0.025,0.153,0.043,0.153,0.111
			c0,0.085-0.111,0.11-0.162,0.118c-0.654,2.662-1.769,4.065-4.124,5.043c-0.298-0.476-0.502-0.663-0.681-0.816
			c1.769-0.672,3.342-1.692,3.776-4.779L66.513,4.256z M63.357,3.797c0.247,0.408,0.511,0.901,0.731,1.649
			c-0.179,0.068-0.612,0.213-0.918,0.375c-0.188-0.52-0.468-1.148-0.757-1.642L63.357,3.797z"/>
		<path d="M73.987,3.143c0.17,0,0.425-0.018,0.586-0.06l0.851,0.705c-0.136,0.188-0.17,0.264-0.493,0.995
			c-0.952,2.177-1.769,3.453-4.498,4.882c-0.222-0.307-0.493-0.57-0.885-0.885c1.174-0.536,3.266-1.488,4.32-4.575h-5.35V3.143
			H73.987z M76.283,2.556c0,0.434-0.357,0.782-0.791,0.782s-0.791-0.349-0.791-0.782c0-0.442,0.357-0.791,0.791-0.791
			S76.283,2.122,76.283,2.556z M75.101,2.556c0,0.212,0.171,0.391,0.392,0.391s0.392-0.179,0.392-0.391c0-0.222-0.179-0.4-0.392-0.4
			S75.101,2.334,75.101,2.556z"/>
		<path d="M76.538,6.161c0.638-0.468,1.353-1.318,1.573-1.59c0.995-1.191,1.327-1.455,1.837-1.455c0.511,0,0.782,0.247,1.752,1.438
			c1.148,1.429,1.947,2.169,2.917,2.985c-0.221,0.237-0.604,0.782-0.766,1.037c-0.739-0.714-1.599-1.59-3.019-3.351
			c-0.646-0.799-0.697-0.867-0.927-0.867c-0.204,0-0.357,0.161-0.774,0.654c-0.365,0.434-1.199,1.454-1.514,1.922
			c0,0.094,0,0.196-0.11,0.196c-0.042,0-0.068-0.025-0.119-0.085L76.538,6.161z M83.937,2.854c0,0.45-0.365,0.79-0.79,0.79
			c-0.426,0-0.791-0.34-0.791-0.79c0-0.451,0.365-0.783,0.791-0.783C83.571,2.07,83.937,2.402,83.937,2.854z M82.746,2.854
			c-0.008,0.229,0.188,0.399,0.4,0.399c0.212,0,0.391-0.17,0.391-0.399c0-0.222-0.179-0.392-0.391-0.392
			C82.934,2.462,82.746,2.632,82.746,2.854z"/>
		<path d="M92.611,5.361v1.208h-7.339V5.361H92.611z"/>
		<path d="M94.651,3.959c0.663,0.255,1.735,0.884,2.066,1.156c-0.306,0.323-0.612,0.799-0.714,0.97
			c-0.8-0.672-1.735-1.055-2.007-1.165L94.651,3.959z M94.49,8.585c2.738-0.936,4.906-2.815,6.08-4.609
			c0.094,0.17,0.272,0.502,0.748,0.97c-1.284,1.922-3.826,3.835-5.944,4.617c-0.017,0.085-0.042,0.204-0.145,0.204
			c-0.06,0-0.085-0.042-0.127-0.119L94.49,8.585z M95.511,2.062c0.909,0.34,1.505,0.62,2.193,1.037
			c-0.17,0.188-0.553,0.74-0.688,0.944c-0.655-0.468-1.395-0.825-2.135-1.098L95.511,2.062z M99.38,2.487
			c0.264,0.188,0.731,0.578,0.961,0.816c-0.153,0.145-0.399,0.392-0.553,0.544c-0.094-0.093-0.511-0.527-0.952-0.858L99.38,2.487z
			 M100.179,1.841c0.272,0.196,0.724,0.596,0.919,0.816c-0.085,0.06-0.195,0.137-0.519,0.477c-0.307-0.314-0.596-0.587-0.928-0.834
			L100.179,1.841z"/>
	</g>
	<g>
		<path d="M205.959,3.44v0.798h-2.831V3.44H205.959z M204.292,9.392v0.435h-0.909V6.833h2.551v2.891h-0.867V9.392H204.292z
			 M205.704,2.335v0.747h-2.151V2.335H205.704z M205.704,4.597v0.73h-2.151v-0.73H205.704z M205.704,5.694v0.747h-2.151V5.694
			H205.704z M205.066,8.628V7.691h-0.774v0.937H205.066z M210.899,7.667v0.73h-0.425v0.485c0,0.926-0.671,0.926-1.412,0.917
			c-0.051-0.458-0.298-0.841-0.383-0.968c0.094,0.017,0.426,0.067,0.613,0.067c0.128,0,0.272,0,0.272-0.264V8.397h-2.195v1.395h-0.9
			V8.397h-0.399v-0.73h0.399v-1.99h1.539v-0.35h-2.05V4.631h1.208V4.223h-0.766V3.661h0.766V3.278h-1.08V2.606h1.08V2.079
			l0.918,0.034c0.06,0,0.179,0.009,0.179,0.094c0,0.06-0.085,0.11-0.17,0.145v0.255h0.799V2.062l0.97,0.033
			c0.051,0,0.188,0.009,0.188,0.094c0,0.094-0.11,0.137-0.229,0.162v0.255h0.876v0.672h-0.876v0.383h0.646v0.562h-0.646v0.408h1.079
			v0.696h-2.016v0.35h1.591v1.99H210.899z M208.018,6.697V6.322h-0.647v0.375H208.018z M208.018,7.667V7.274h-0.647v0.393H208.018z
			 M208.094,3.278v0.383h0.799V3.278H208.094z M208.094,4.223v0.408h0.799V4.223H208.094z M209.565,6.697V6.322h-0.689v0.375
			H209.565z M209.565,7.667V7.274h-0.689v0.393H209.565z"/>
		<path d="M215.603,4.019l1.013,0.042c0.051,0,0.145,0.009,0.145,0.094c0,0.068-0.06,0.11-0.145,0.17V5.94
			c0.238-0.383,0.672-1.208,0.782-1.922l0.943,0.322c0.086,0.026,0.119,0.052,0.119,0.103c0,0.06-0.042,0.076-0.152,0.11
			c-0.111,0.314-0.137,0.392-0.179,0.493c0.561,0.74,0.952,1.055,1.267,1.259c-0.264,0.238-0.484,0.484-0.646,0.791
			c-0.544-0.459-0.978-1.046-1.021-1.114c-0.263,0.519-0.416,0.723-0.569,0.944c-0.136-0.137-0.246-0.204-0.544-0.383v0.638h2.186
			v0.842h-2.186v0.714h2.661v0.894h-6.267V8.737h2.593V8.023h-2.168V7.182h2.168V6.331c-0.271,0.229-0.399,0.417-0.476,0.527
			c-0.281-0.323-0.587-0.757-0.689-0.918c-0.314,0.663-0.526,0.943-0.663,1.105c-0.314-0.256-0.416-0.341-0.714-0.477
			c-0.018,0.553-0.068,1.769-0.8,3.316c-0.314-0.221-0.62-0.349-0.978-0.434c0.604-1.14,0.766-2.262,0.766-3.802V2.896h2.874V2.037
			l1.114,0.025c0.076,0,0.127,0.017,0.127,0.093c0,0.052-0.076,0.111-0.187,0.171v0.569h3.273v0.91h-6.174v2.491
			c0.153-0.187,0.655-0.833,1.012-2.22l0.953,0.247c0.034,0.009,0.102,0.034,0.102,0.103c0,0.085-0.102,0.11-0.17,0.127
			c-0.051,0.153-0.06,0.188-0.128,0.383c0.145,0.213,0.392,0.569,0.757,0.995V4.019z"/>
		<path d="M224.37,9.835h-1.012V8.296c-0.944,0.893-2.245,1.395-2.756,1.59c-0.298-0.502-0.417-0.629-0.654-0.791
			c0.535-0.145,1.505-0.408,2.491-1.173h-2.44V7.147h3.359V6.535l1.028,0.051c0.051,0,0.195,0.009,0.195,0.111
			c0,0.076-0.093,0.127-0.212,0.187v0.264h3.401v0.774h-2.645c1.071,0.757,1.913,0.978,2.534,1.131
			c-0.238,0.255-0.426,0.51-0.562,0.824c-0.314-0.102-1.633-0.535-2.729-1.505V9.835z M220.008,4.817V4.069h2.482
			c0.196-0.247,0.4-0.545,0.493-0.697h-1.743v0.484h-0.986V2.623h3.045V2.02l1.139,0.043c0.034,0,0.188,0.008,0.188,0.102
			c0,0.103-0.119,0.145-0.188,0.17v0.289h3.054v1.199h-1.038v-0.45h-2.296c0.043,0.017,0.103,0.067,0.103,0.119
			c0,0.093-0.171,0.093-0.256,0.102c-0.102,0.153-0.195,0.272-0.356,0.477h4.124v0.748h-1.913c0.025,0.017,0.067,0.034,0.067,0.085
			c0,0.094-0.187,0.11-0.246,0.119c-0.153,0.179-0.323,0.349-0.502,0.502c1.029,0.298,1.599,0.562,1.956,0.739
			c-0.153,0.162-0.392,0.435-0.578,0.791c-0.477-0.271-1.165-0.663-2.22-0.969c-1.174,0.604-2.381,0.842-3.504,0.901
			c-0.119-0.408-0.145-0.493-0.391-0.842c1.76-0.068,2.253-0.256,2.602-0.375c-0.459-0.093-0.654-0.119-0.791-0.136
			c-0.118,0.103-0.145,0.128-0.229,0.195c-0.11-0.076-0.493-0.349-0.842-0.434c0.222-0.17,0.4-0.323,0.646-0.578H220.008z
			 M223.043,4.817c-0.06,0.068-0.102,0.119-0.271,0.298c0.416,0.042,0.816,0.11,1.25,0.179c0.102-0.06,0.365-0.229,0.604-0.477
			H223.043z"/>
		<path d="M235.876,3.397v5.493c0,0.408,0,0.953-1.147,0.953c-0.026,0-0.562-0.018-0.63-0.018c-0.06-0.527-0.128-0.688-0.383-1.14
			c0.222,0.051,0.672,0.094,0.774,0.094c0.136,0,0.314,0,0.314-0.357V7.335c-0.128,0.093-0.399,0.323-0.655,0.731
			c-1.14-0.57-1.606-1.506-1.819-1.981c-0.434,0.884-1.199,1.743-1.905,2.168c-0.145-0.289-0.28-0.484-0.62-0.791v2.364h-1.08V3.397
			h3.027V2.02l1.131,0.06c0.042,0,0.187,0.009,0.187,0.11c0,0.094-0.093,0.137-0.221,0.17v0.936c0,0.025-0.009,0.077-0.009,0.103
			H235.876z M229.805,7.326c1.726-0.97,1.87-2.381,1.922-2.917h-1.922V7.326z M232.849,4.409c0.034,0.578,0.161,1.097,0.511,1.573
			c0.11,0.153,0.569,0.774,1.445,1.233V4.409H232.849z"/>
		<path d="M236.752,6.161c0.638-0.468,1.353-1.318,1.573-1.59c0.995-1.191,1.327-1.455,1.837-1.455c0.511,0,0.782,0.247,1.752,1.438
			c1.148,1.429,1.947,2.169,2.917,2.985c-0.221,0.237-0.604,0.782-0.766,1.037c-0.739-0.714-1.599-1.59-3.019-3.351
			c-0.646-0.799-0.697-0.867-0.927-0.867c-0.204,0-0.357,0.161-0.774,0.654c-0.365,0.434-1.199,1.454-1.514,1.922
			c0,0.094,0,0.196-0.11,0.196c-0.042,0-0.068-0.025-0.119-0.085L236.752,6.161z M244.15,2.854c0,0.45-0.365,0.79-0.79,0.79
			c-0.426,0-0.791-0.34-0.791-0.79c0-0.451,0.365-0.783,0.791-0.783C243.785,2.07,244.15,2.402,244.15,2.854z M242.96,2.854
			c-0.008,0.229,0.188,0.399,0.4,0.399c0.212,0,0.391-0.17,0.391-0.399c0-0.222-0.179-0.392-0.391-0.392
			C243.147,2.462,242.96,2.632,242.96,2.854z"/>
		<path d="M252.824,5.361v1.208h-7.339V5.361H252.824z"/>
		<path d="M254.865,3.959c0.663,0.255,1.735,0.884,2.066,1.156c-0.306,0.323-0.612,0.799-0.714,0.97
			c-0.8-0.672-1.735-1.055-2.007-1.165L254.865,3.959z M254.704,8.585c2.738-0.936,4.906-2.815,6.08-4.609
			c0.094,0.17,0.272,0.502,0.748,0.97c-1.284,1.922-3.826,3.835-5.944,4.617c-0.017,0.085-0.042,0.204-0.145,0.204
			c-0.06,0-0.085-0.042-0.127-0.119L254.704,8.585z M255.725,2.062c0.909,0.34,1.505,0.62,2.193,1.037
			c-0.17,0.188-0.553,0.74-0.688,0.944c-0.655-0.468-1.395-0.825-2.135-1.098L255.725,2.062z M259.594,2.487
			c0.264,0.188,0.731,0.578,0.961,0.816c-0.153,0.145-0.399,0.392-0.553,0.544c-0.094-0.093-0.511-0.527-0.952-0.858L259.594,2.487z
			 M260.393,1.841c0.272,0.196,0.724,0.596,0.919,0.816c-0.085,0.06-0.195,0.137-0.519,0.477c-0.307-0.314-0.596-0.587-0.928-0.834
			L260.393,1.841z"/>
	</g>
	
		<rect x="9.674" y="32.345" fill="none" stroke="#000000" stroke-width="0.3478" stroke-miterlimit="10" width="133.167" height="12.074"/>
	
		<rect x="9.674" y="32.345" fill="#DB5434" stroke="#000000" stroke-width="0.3478" stroke-miterlimit="10" width="26.634" height="12.074"/>
	<g enable-background="new    ">
		<g>
			<path d="M11.645,27.766v-6.471h0.807v5.797h3.165v0.674H11.645z"/>
			<path d="M19.279,27.943c-1.667,0-2.811-1.348-2.811-3.414c0-2.057,1.135-3.412,2.811-3.412c1.666,0,2.801,1.355,2.801,3.412
				C22.08,26.605,20.937,27.943,19.279,27.943z M19.279,21.781c-1.241,0-1.969,1.135-1.969,2.748c0,1.615,0.728,2.75,1.969,2.75
				c1.25,0,1.968-1.152,1.968-2.75C21.247,22.926,20.521,21.781,19.279,21.781z"/>
			<path d="M27.943,23.219c-0.089-0.381-0.337-1.438-1.8-1.438c-1.978,0-2.102,2.111-2.102,2.768c0,1.463,0.63,2.73,1.969,2.73
				c1.657,0,1.879-1.818,1.933-2.262h-1.711v-0.621h2.491v3.369H28.05v-0.797c-0.382,0.426-0.869,0.975-2.057,0.975
				c-1.782,0-2.784-1.48-2.784-3.404c0-1.48,0.63-3.422,2.952-3.422c1.524,0,2.402,0.852,2.624,2.102H27.943z"/>
			<path d="M32.742,27.943c-1.667,0-2.811-1.348-2.811-3.414c0-2.057,1.135-3.412,2.811-3.412c1.666,0,2.801,1.355,2.801,3.412
				C35.543,26.605,34.399,27.943,32.742,27.943z M32.742,21.781c-1.241,0-1.969,1.135-1.969,2.748c0,1.615,0.728,2.75,1.969,2.75
				c1.25,0,1.968-1.152,1.968-2.75C34.71,22.926,33.983,21.781,32.742,21.781z"/>
		</g>
	</g>
	<g>
		<path fill="#FFFFFF" d="M15.941,36.488v1.492h2.023v-1.492h0.699v3.699h-0.699v-1.662h-2.023v1.662h-0.704v-3.699H15.941z"/>
		<path fill="#FFFFFF" d="M22.881,38.338c0,1.15-0.756,1.953-1.846,1.953c-1.085,0-1.845-0.803-1.845-1.953
			c0-1.107,0.718-1.953,1.845-1.953C22.167,36.385,22.881,37.23,22.881,38.338z M19.913,38.338c0,1.023,0.605,1.355,1.122,1.355
			c0.47,0,1.127-0.281,1.127-1.355c0-1.033-0.615-1.355-1.127-1.355C20.537,36.982,19.913,37.291,19.913,38.338z"/>
		<path fill="#FFFFFF" d="M24.378,36.488l0.915,2.877l0.916-2.877h0.948v3.699h-0.704v-2.91l-0.916,2.91h-0.488l-0.915-2.91v2.91
			h-0.699v-3.699H24.378z"/>
		<path fill="#FFFFFF" d="M30.814,36.488v0.545h-2.239v0.99h1.986v0.545h-1.986v1.074h2.291v0.545h-2.995v-3.699H30.814z"/>
	</g>
	
		<rect x="36.308" y="32.345" fill="none" stroke="#000000" stroke-width="0.3478" stroke-miterlimit="10" width="26.632" height="12.074"/>
	<g enable-background="new    ">
		<g>
			<path d="M41.998,37.014v0.441h-1.562v-0.441H41.998z M41.078,40.301v0.238h-0.502v-1.652h1.408v1.596h-0.479v-0.182H41.078z
				 M41.857,36.404v0.412H40.67v-0.412H41.857z M41.857,37.652v0.404H40.67v-0.404H41.857z M41.857,38.258v0.412H40.67v-0.412
				H41.857z M41.506,39.877v-0.516h-0.428v0.516H41.506z M44.727,39.348v0.402h-0.234v0.27c0,0.512-0.371,0.512-0.779,0.506
				c-0.028-0.254-0.165-0.465-0.212-0.535c0.052,0.01,0.235,0.037,0.339,0.037c0.07,0,0.15,0,0.15-0.145V39.75h-1.212v0.771H42.28
				V39.75H42.06v-0.402h0.221v-1.1h0.85v-0.191h-1.132v-0.385h0.667v-0.227h-0.423v-0.309h0.423v-0.211h-0.597v-0.371h0.597v-0.293
				l0.507,0.02c0.033,0,0.099,0.004,0.099,0.051c0,0.033-0.047,0.062-0.094,0.08v0.143h0.442v-0.301l0.535,0.018
				c0.028,0,0.104,0.006,0.104,0.053c0,0.051-0.062,0.074-0.127,0.088v0.143h0.483v0.371h-0.483v0.211h0.356v0.309h-0.356v0.227
				h0.596v0.385h-1.112v0.191h0.878v1.1H44.727z M43.135,38.812v-0.207h-0.356v0.207H43.135z M43.135,39.348v-0.217h-0.356v0.217
				H43.135z M43.177,36.926v0.211h0.442v-0.211H43.177z M43.177,37.445v0.227h0.442v-0.227H43.177z M43.99,38.812v-0.207h-0.381
				v0.207H43.99z M43.99,39.348v-0.217h-0.381v0.217H43.99z"/>
			<path d="M47.365,37.334l0.559,0.023c0.028,0,0.08,0.004,0.08,0.051c0,0.037-0.033,0.061-0.08,0.094v0.893
				c0.132-0.211,0.371-0.666,0.432-1.061l0.521,0.178c0.047,0.014,0.065,0.027,0.065,0.057c0,0.033-0.023,0.043-0.084,0.061
				c-0.062,0.174-0.075,0.217-0.099,0.273c0.31,0.408,0.525,0.582,0.699,0.693c-0.146,0.133-0.268,0.268-0.356,0.438
				c-0.301-0.254-0.54-0.578-0.563-0.615c-0.146,0.285-0.23,0.398-0.314,0.521c-0.075-0.076-0.137-0.113-0.301-0.211v0.352h1.207
				v0.465h-1.207v0.395h1.47v0.492h-3.46v-0.492h1.432v-0.395h-1.197V39.08h1.197v-0.471c-0.15,0.127-0.221,0.23-0.263,0.291
				c-0.155-0.178-0.324-0.416-0.38-0.506c-0.175,0.365-0.292,0.521-0.367,0.609c-0.174-0.141-0.229-0.188-0.395-0.262
				c-0.009,0.305-0.037,0.977-0.441,1.83c-0.174-0.121-0.343-0.191-0.54-0.238c0.334-0.629,0.423-1.25,0.423-2.1v-1.521h1.588V36.24
				l0.615,0.014c0.042,0,0.07,0.01,0.07,0.051c0,0.029-0.043,0.061-0.104,0.094v0.314h1.807v0.502h-3.408v1.377
				c0.085-0.104,0.361-0.461,0.559-1.227l0.526,0.137c0.019,0.004,0.056,0.02,0.056,0.057c0,0.047-0.056,0.061-0.094,0.07
				c-0.028,0.084-0.032,0.104-0.07,0.211c0.08,0.117,0.216,0.314,0.418,0.549V37.334z"/>
			<path d="M52.248,40.545h-0.559v-0.85c-0.521,0.492-1.239,0.77-1.521,0.879c-0.164-0.277-0.229-0.348-0.361-0.438
				c0.296-0.08,0.831-0.225,1.376-0.648h-1.348v-0.428h1.854v-0.338l0.568,0.029c0.027,0,0.107,0.004,0.107,0.061
				c0,0.043-0.052,0.07-0.117,0.104v0.145h1.879v0.428h-1.461c0.592,0.418,1.057,0.541,1.399,0.625
				c-0.132,0.141-0.234,0.281-0.31,0.455c-0.174-0.057-0.902-0.295-1.508-0.83V40.545z M49.84,37.775v-0.414h1.371
				c0.108-0.137,0.221-0.301,0.272-0.385h-0.963v0.268h-0.545v-0.682h1.682V36.23l0.629,0.023c0.019,0,0.104,0.004,0.104,0.057
				c0,0.057-0.066,0.08-0.104,0.094v0.158h1.686v0.662h-0.573v-0.248h-1.268c0.023,0.01,0.057,0.037,0.057,0.064
				c0,0.053-0.094,0.053-0.141,0.057c-0.057,0.086-0.108,0.15-0.197,0.264h2.277v0.414H53.07c0.014,0.01,0.037,0.018,0.037,0.047
				c0,0.051-0.104,0.061-0.136,0.064c-0.085,0.1-0.179,0.193-0.277,0.277c0.568,0.164,0.883,0.311,1.08,0.408
				c-0.085,0.09-0.216,0.24-0.319,0.438c-0.264-0.15-0.644-0.367-1.226-0.535c-0.647,0.334-1.314,0.465-1.935,0.498
				c-0.065-0.227-0.08-0.273-0.216-0.465c0.973-0.037,1.244-0.141,1.438-0.207c-0.254-0.051-0.362-0.066-0.438-0.074
				c-0.065,0.055-0.079,0.07-0.127,0.107c-0.061-0.043-0.271-0.193-0.465-0.24c0.122-0.094,0.221-0.178,0.357-0.318H49.84z
				 M51.517,37.775c-0.033,0.037-0.057,0.064-0.15,0.164c0.229,0.023,0.45,0.061,0.689,0.098c0.057-0.031,0.202-0.127,0.334-0.262
				H51.517z"/>
			<path d="M58.643,36.99v3.033c0,0.225,0,0.525-0.634,0.525c-0.015,0-0.311-0.01-0.348-0.01c-0.033-0.291-0.07-0.379-0.212-0.629
				c0.122,0.029,0.371,0.053,0.428,0.053c0.075,0,0.174,0,0.174-0.197v-0.602c-0.07,0.053-0.221,0.178-0.361,0.404
				c-0.63-0.314-0.888-0.832-1.005-1.094c-0.239,0.488-0.662,0.963-1.052,1.197c-0.08-0.16-0.155-0.268-0.343-0.438v1.305h-0.597
				V36.99h1.672v-0.76l0.624,0.033c0.023,0,0.104,0.004,0.104,0.061c0,0.053-0.052,0.076-0.122,0.094v0.516
				c0,0.016-0.005,0.043-0.005,0.057H58.643z M55.29,39.16c0.953-0.535,1.033-1.314,1.062-1.611H55.29V39.16z M56.971,37.549
				c0.019,0.32,0.089,0.605,0.281,0.869c0.062,0.084,0.315,0.428,0.799,0.68v-1.549H56.971z"/>
		</g>
	</g>
	
		<rect x="62.94" y="32.345" fill="none" stroke="#000000" stroke-width="0.3478" stroke-miterlimit="10" width="26.634" height="12.074"/>
	<g enable-background="new    ">
		<g>
			<path d="M66.459,37.75l-1.202,0.16l-0.07-0.6l1.183-0.146l-0.112-0.779l0.639-0.084c0.023-0.006,0.094-0.016,0.094,0.041
				c0,0.039-0.028,0.066-0.07,0.1l0.094,0.639l1.122-0.141l0.065,0.582l-1.103,0.145l0.094,0.621l1.61-0.207l0.065,0.592
				l-1.592,0.205l0.221,1.514l-0.634,0.111l-0.226-1.539l-1.694,0.221l-0.075-0.602l1.681-0.211L66.459,37.75z M68.299,36.342
				c0.113,0.113,0.301,0.32,0.437,0.521c-0.051,0.037-0.276,0.227-0.323,0.264c-0.08-0.117-0.244-0.338-0.437-0.541L68.299,36.342z
				 M68.745,36.074c0.132,0.123,0.291,0.291,0.441,0.475c-0.169,0.127-0.188,0.141-0.31,0.244c-0.033-0.043-0.221-0.295-0.418-0.492
				L68.745,36.074z"/>
			<path d="M70.76,37.137l0.554-0.066c0.042-0.004,0.099-0.014,0.099,0.047c0,0.033-0.033,0.057-0.065,0.084l0.136,0.705l1.216-0.24
				c0.085-0.018,0.169-0.061,0.226-0.121l0.395,0.295c-0.16,0.193-0.732,1.146-0.854,1.334c-0.174-0.107-0.446-0.221-0.521-0.254
				c0.047-0.061,0.15-0.205,0.263-0.365c0.075-0.113,0.165-0.244,0.202-0.311l-0.821,0.18l0.371,1.891l-0.54,0.127l-0.381-1.896
				l-0.99,0.217l-0.15-0.541l1.038-0.207L70.76,37.137z"/>
			<path d="M77.445,37.588c0.211,0,0.314-0.02,0.399-0.043l0.395,0.277c-0.08,0.15-0.414,0.816-0.489,0.947
				c-0.562,1-1.169,1.424-2.099,1.789c-0.122-0.197-0.276-0.365-0.437-0.516c0.719-0.23,1.625-0.625,2.104-1.873H74.37v-0.582
				H77.445z M77.666,36.482v0.574h-2.714v-0.574H77.666z"/>
			<path d="M80.173,36.436c0.057,0.006,0.094,0.006,0.094,0.049c0,0.047-0.057,0.07-0.094,0.088v2.273h-0.657v-2.438L80.173,36.436z
				 M82.352,36.352c0.07,0.006,0.094,0.02,0.094,0.043c0,0.061-0.061,0.08-0.094,0.094v1.521c0,1.568-0.916,2.137-1.822,2.516
				c-0.079-0.197-0.216-0.371-0.413-0.512c1.535-0.502,1.568-1.482,1.568-2v-1.695L82.352,36.352z"/>
			<path d="M87.676,38.074v0.668h-4.052v-0.668H87.676z"/>
		</g>
	</g>
	
		<rect x="89.574" y="32.345" fill="none" stroke="#000000" stroke-width="0.3478" stroke-miterlimit="10" width="26.634" height="12.074"/>
	<g enable-background="new    ">
		<g>
			<path d="M97.359,36.639c0.085,0,0.184-0.01,0.263-0.043l0.441,0.408c-0.056,0.066-0.075,0.094-0.169,0.234
				c-0.587,0.85-1.084,1.311-1.324,1.531c-0.103-0.131-0.225-0.271-0.46-0.441c0.479-0.398,0.7-0.615,1.015-1.084H93.89v-0.605
				H97.359z M96.139,37.502c0.033,0,0.075,0.01,0.075,0.047c0,0.051-0.057,0.084-0.075,0.094c-0.019,0.488-0.094,1-0.239,1.381
				c-0.169,0.432-0.568,1.033-1.202,1.389c-0.211-0.188-0.314-0.268-0.554-0.418c0.699-0.393,1.403-0.924,1.314-2.535L96.139,37.502
				z"/>
			<path d="M101.764,36.996c0.155,0,0.239-0.033,0.324-0.07l0.338,0.295c-0.08,0.137-0.329,0.689-0.483,1.037
				c-0.732,1.629-1.888,2.17-2.249,2.338c-0.085-0.107-0.174-0.211-0.503-0.459c1.677-0.695,2.122-1.949,2.343-2.564h-1.305
				c-0.314,0.461-0.634,0.826-1.104,1.25c-0.211-0.221-0.277-0.291-0.488-0.432c0.498-0.41,1.216-1.123,1.573-2.113l0.577,0.277
				c0.023,0.01,0.065,0.027,0.065,0.07c0,0.047-0.084,0.061-0.112,0.061c-0.057,0.113-0.094,0.184-0.16,0.311H101.764z"/>
			<path d="M104.394,36.375l0.647,0.033c0.047,0.006,0.094,0.006,0.094,0.053c0,0.045-0.057,0.068-0.094,0.078v1.062l1.54-0.193
				c0.202-0.023,0.291-0.066,0.338-0.084l0.418,0.381c-0.169,0.191-0.211,0.248-0.577,0.75c-0.244,0.344-0.428,0.574-0.568,0.742
				c-0.221-0.174-0.465-0.291-0.545-0.334c0.254-0.234,0.507-0.529,0.69-0.816l-1.296,0.164v1.094c0,0.367,0.07,0.447,0.559,0.447
				c0.361,0,1.137-0.02,1.483-0.08c-0.037,0.174-0.07,0.445-0.07,0.652c-0.188,0.004-1.47,0.014-1.549,0.014
				c-0.896,0-1.07-0.285-1.07-0.947v-1.096l-1.08,0.143l-0.057-0.615l1.137-0.141V36.375z"/>
			<path d="M108.308,37.197v-0.596h2.385c0.075,0,0.249-0.01,0.324-0.037l0.319,0.342c-0.094,0.123-0.146,0.23-0.179,0.301
				c-0.197,0.461-0.305,0.709-0.605,1.197c0.356,0.268,1.094,0.906,1.465,1.357c-0.164,0.178-0.427,0.469-0.483,0.535
				c-0.254-0.352-0.644-0.863-1.333-1.4c-0.324,0.41-1.085,1.127-1.878,1.465c-0.146-0.252-0.226-0.361-0.446-0.549
				c0.281-0.098,0.967-0.352,1.662-1.098c0.507-0.541,0.686-0.982,0.887-1.518H108.308z"/>
		</g>
	</g>
	
		<rect x="116.208" y="32.345" fill="none" stroke="#000000" stroke-width="0.3478" stroke-miterlimit="10" width="26.634" height="12.074"/>
	<g enable-background="new    ">
		<g>
			<path d="M118.755,36.352c0.055,0.01,0.089,0.016,0.089,0.066c0,0.047-0.047,0.061-0.076,0.07
				c-0.025,0.324-0.029,0.469-0.034,0.562c0.411-0.094,0.567-0.164,0.724-0.244c-0.009,0.461-0.009,0.512,0.004,0.645
				c-0.354,0.141-0.668,0.201-0.748,0.215c0,0.076-0.005,0.4-0.009,0.471c0.373-0.16,0.651-0.17,0.757-0.17
				c0.574,0,1.153,0.385,1.153,1.207c0,0.809-0.528,1.123-0.95,1.123c-0.638,0-0.655-0.645-0.659-0.812
				c0.08-0.029,0.354-0.127,0.456-0.17c0,0.127-0.004,0.385,0.254,0.385c0.211,0,0.342-0.225,0.342-0.502
				c0-0.352-0.216-0.672-0.63-0.672c-0.32,0-0.63,0.16-0.723,0.207c0.017,0.977,0.021,1.084,0.055,1.475l-0.481,0.244
				c-0.274-0.305-0.481-0.479-0.786-0.723c-0.089,0.098-0.135,0.154-0.22,0.262l-0.253-0.68c0.194-0.117,0.963-0.766,1.137-0.879
				c-0.005-0.23-0.005-0.459-0.005-0.689c-0.266,0.023-0.596,0.027-0.823,0.027l-0.005-0.633c0.089,0.014,0.156,0.023,0.325,0.023
				c0.187,0,0.439-0.02,0.503-0.023c0-0.217-0.008-0.668-0.013-0.902L118.755,36.352z M117.817,39.381
				c0.037,0.033,0.266,0.225,0.308,0.225c0.03,0,0.034-0.057,0.034-0.104v-0.418C118.037,39.178,117.939,39.258,117.817,39.381z
				 M120.061,36.916c0.309,0.178,0.697,0.479,0.922,0.756c-0.17,0.197-0.232,0.281-0.355,0.482c-0.22-0.281-0.52-0.562-0.896-0.74
				L120.061,36.916z"/>
			<path d="M123.031,36.338v1.695h-1.111v2.502h-0.516v-4.197H123.031z M122.566,37v-0.26h-0.646V37H122.566z M121.92,37.371v0.258
				h0.646v-0.258H121.92z M122.862,40.127h-0.494v-1.779h1.647v1.408h-1.153V40.127z M123.521,39.314v-0.525h-0.659v0.525H123.521z
				 M124.992,36.338v3.676c0,0.518-0.418,0.521-0.612,0.521c-0.068,0-0.102-0.004-0.161-0.014c-0.021-0.16-0.051-0.314-0.215-0.629
				c0.156,0.041,0.282,0.051,0.333,0.051c0.081,0,0.14-0.004,0.14-0.158v-1.752h-1.115v-1.695H124.992z M124.477,37v-0.26h-0.65V37
				H124.477z M123.826,37.371v0.258h0.65v-0.258H123.826z"/>
			<path d="M126.407,36.719c0.068,0.023,0.089,0.033,0.089,0.074c0,0.057-0.059,0.066-0.089,0.07
				c-0.147,0.457-0.224,0.93-0.224,1.414c0,0.662,0.211,1.137,0.363,1.137c0.156,0,0.351-0.521,0.452-0.785
				c0.072,0.104,0.19,0.273,0.381,0.418c-0.313,0.855-0.659,1.207-0.888,1.207c-0.279,0-0.866-0.609-0.866-2.023
				c0-0.578,0.089-1.117,0.198-1.699L126.407,36.719z M128.508,36.779c0.574,0.863,0.79,1.691,0.845,2.381
				c-0.089,0.033-0.186,0.074-0.587,0.291c-0.051-1.027-0.334-1.736-0.727-2.344L128.508,36.779z"/>
			<path d="M132.61,38.178h-1.914v-0.281c-0.291,0.258-0.523,0.414-0.739,0.541c-0.114-0.217-0.173-0.287-0.372-0.498
				c1.146-0.525,1.623-1.447,1.767-1.723l0.621,0.051c0.025,0,0.084,0.004,0.084,0.057c0,0.033-0.042,0.061-0.089,0.09
				c0.271,0.492,1.104,1.168,1.767,1.445c-0.135,0.137-0.274,0.324-0.342,0.512c-0.199-0.107-0.406-0.234-0.782-0.531V38.178z
				 M130.874,40.311v0.225h-0.52v-1.98h2.59v1.98h-0.524v-0.225H130.874z M132.42,39.793v-0.727h-1.546v0.727H132.42z
				 M132.398,37.672c-0.354-0.301-0.52-0.488-0.764-0.832c-0.283,0.385-0.385,0.521-0.697,0.832H132.398z"/>
			<path d="M135.759,37.258c-0.009,0.01-0.152,0.197-0.22,0.357c0.393-0.287,0.723-0.338,0.946-0.338
				c0.465,0,1.188,0.281,1.188,1.334c0,1.422-1.297,1.633-1.614,1.686c-0.089-0.273-0.169-0.41-0.291-0.578
				c0.574-0.043,1.352-0.248,1.352-1.076c0-0.535-0.325-0.797-0.692-0.797c-0.482,0-0.917,0.365-1.107,0.549
				c0,1.479,0,1.643,0.004,2.047l-0.596,0.053c0.021-0.404,0.021-0.512,0.042-1.414c-0.072,0.104-0.372,0.582-0.439,0.672
				l-0.414-0.451c0.359-0.418,0.706-0.926,0.888-1.301v-0.201c-0.275,0.127-0.537,0.201-0.685,0.248l-0.102-0.672
				c0.354-0.027,0.668-0.111,0.803-0.154c0-0.447-0.004-0.498-0.021-0.959l0.555,0.043c0.071,0.004,0.126,0.01,0.126,0.066
				s-0.046,0.061-0.093,0.07c-0.013,0.107-0.021,0.201-0.042,0.568c0.038-0.02,0.063-0.033,0.144-0.08L135.759,37.258z"/>
			<path d="M141.1,36.408c0.068,0.01,0.089,0.023,0.089,0.062c0,0.051-0.046,0.064-0.071,0.074c0,0.014,0.017,0.746,0.017,0.816
				c0.478-0.074,0.528-0.084,0.824-0.111v0.656c-0.06-0.004-0.114-0.01-0.203-0.01c-0.207,0-0.456,0.029-0.608,0.047
				c0,1.24-0.14,1.334-0.997,1.324c-0.025-0.201-0.118-0.506-0.144-0.592c0.093,0.014,0.178,0.023,0.258,0.023
				c0.291,0,0.295-0.07,0.329-0.676c-0.316,0.057-0.642,0.127-0.963,0.197c-0.009,0.221-0.021,1.033,0.038,1.248
				c0.076,0.273,0.38,0.297,0.663,0.297c0.122,0,0.706,0,1.369-0.193c-0.042,0.203-0.063,0.375-0.076,0.658
				c-0.566,0.102-1.373,0.111-1.391,0.111c-0.511,0-0.946-0.121-1.077-0.652c-0.063-0.262-0.06-0.613-0.051-1.352
				c-0.528,0.123-0.558,0.131-0.849,0.217l-0.051-0.705c0.253-0.01,0.629-0.074,0.883-0.131c0-0.264-0.009-0.855-0.042-1.113
				l0.62,0.084c0.06,0.01,0.11,0.016,0.11,0.07c0,0.047-0.063,0.072-0.089,0.076c-0.009,0.127-0.034,0.666-0.038,0.779
				c0.232-0.043,0.532-0.1,0.934-0.164c-0.009-0.381-0.017-0.766-0.097-1.141L141.1,36.408z"/>
		</g>
	</g>
	
		<rect x="116.614" y="18.599" fill="none" stroke="#040000" stroke-width="0.3478" stroke-miterlimit="10" width="25.822" height="9.713"/>
	<g>
		<path fill="#040000" d="M124.779,23.473c0.037,0.021,0.054,0.045,0.054,0.066c0,0.047-0.054,0.047-0.108,0.043
			c-0.317,0.5-0.459,0.676-0.863,1.088c-0.134-0.121-0.305-0.25-0.48-0.354c0.451-0.348,0.73-0.756,0.914-1.127L124.779,23.473z
			 M125.042,21.504l0.556,0.02c0.054,0,0.092,0.01,0.092,0.051c0,0.033-0.034,0.045-0.071,0.062v0.76h1.402v0.508h-1.402v1.578
			c0,0.289,0,0.631-0.672,0.631c-0.075,0-0.2-0.01-0.284-0.018c-0.013-0.092-0.029-0.246-0.18-0.559
			c0.108,0.018,0.268,0.037,0.38,0.037c0.18,0,0.18-0.062,0.18-0.324v-1.346h-1.406v-0.508h1.406V21.504z M126.345,23.164
			c0.333,0.312,0.738,0.844,0.859,1.068c-0.142,0.109-0.342,0.297-0.43,0.379c-0.2-0.367-0.593-0.871-0.848-1.117L126.345,23.164z
			 M126.604,21.6c0.112,0.1,0.296,0.295,0.392,0.426c-0.079,0.062-0.158,0.129-0.288,0.232c-0.079-0.104-0.267-0.32-0.392-0.438
			L126.604,21.6z M127.008,21.277c0.117,0.088,0.321,0.293,0.413,0.414c-0.096,0.066-0.184,0.141-0.279,0.225
			c-0.05-0.059-0.229-0.271-0.405-0.426L127.008,21.277z"/>
		<path fill="#040000" d="M129.262,22.904c0.213,0.121,0.442,0.256,0.73,0.459c0.222-0.357,0.313-0.621,0.359-0.764h-1.09
			c-0.07,0.105-0.446,0.623-0.922,0.986c-0.163-0.168-0.246-0.238-0.442-0.381c0.635-0.418,1.089-1.068,1.377-1.785l0.56,0.18
			c0.05,0.016,0.075,0.023,0.075,0.049c0,0.055-0.075,0.055-0.101,0.059c-0.066,0.125-0.129,0.238-0.225,0.4h0.993
			c0.15,0,0.221-0.02,0.279-0.041l0.259,0.225c-0.029,0.051-0.059,0.109-0.088,0.176c-0.305,0.734-0.363,0.881-0.597,1.234
			c0.263,0.227,0.351,0.348,0.417,0.436c-0.12,0.141-0.296,0.387-0.351,0.471c-0.104-0.137-0.217-0.283-0.404-0.463
			c-0.589,0.643-1.239,0.914-1.603,1.061c-0.075-0.121-0.159-0.252-0.384-0.48c0.409-0.113,1.102-0.43,1.569-0.939
			c-0.297-0.225-0.563-0.383-0.752-0.496L129.262,22.904z"/>
		<path fill="#040000" d="M132.408,21.57c0.613,0.309,0.897,0.543,1.094,0.717c-0.088,0.102-0.15,0.184-0.347,0.484
			c-0.492-0.43-0.897-0.621-1.098-0.709L132.408,21.57z M132.112,24.504c1.001-0.213,2.278-0.877,3.134-2.266
			c0.15,0.236,0.2,0.316,0.363,0.488c-0.271,0.416-1.056,1.598-3.026,2.307c-0.008,0.043-0.012,0.092-0.07,0.092
			c-0.029,0-0.055-0.033-0.075-0.07L132.112,24.504z"/>
	</g>
	
		<rect x="161.657" y="14.525" fill="#FFFFFF" stroke="#000000" stroke-width="0.5669" stroke-miterlimit="10" width="141.201" height="118.143"/>
	
		<rect x="165.674" y="51.577" fill="none" stroke="#040000" stroke-width="0.3478" stroke-miterlimit="10" width="133.167" height="56.587"/>
	
		<line fill="none" stroke="#040000" stroke-width="0.4252" stroke-miterlimit="10" x1="298.842" y1="51.577" x2="165.674" y2="108.164"/>
	
		<rect x="165.674" y="32.345" fill="none" stroke="#000000" stroke-width="0.3478" stroke-miterlimit="10" width="133.167" height="12.074"/>
	
		<rect x="165.674" y="32.345" fill="none" stroke="#000000" stroke-width="0.3478" stroke-miterlimit="10" width="26.634" height="12.074"/>
	<g enable-background="new    ">
		<g>
			<path d="M167.645,27.766v-6.471h0.807v5.797h3.165v0.674H167.645z"/>
			<path d="M175.279,27.943c-1.667,0-2.811-1.348-2.811-3.414c0-2.057,1.135-3.412,2.811-3.412c1.666,0,2.801,1.355,2.801,3.412
				C178.08,26.605,176.937,27.943,175.279,27.943z M175.279,21.781c-1.241,0-1.969,1.135-1.969,2.748c0,1.615,0.728,2.75,1.969,2.75
				c1.25,0,1.968-1.152,1.968-2.75C177.247,22.926,176.521,21.781,175.279,21.781z"/>
			<path d="M183.943,23.219c-0.089-0.381-0.337-1.438-1.8-1.438c-1.978,0-2.102,2.111-2.102,2.768c0,1.463,0.63,2.73,1.969,2.73
				c1.657,0,1.879-1.818,1.933-2.262h-1.711v-0.621h2.491v3.369h-0.674v-0.797c-0.382,0.426-0.869,0.975-2.057,0.975
				c-1.782,0-2.784-1.48-2.784-3.404c0-1.48,0.63-3.422,2.952-3.422c1.524,0,2.402,0.852,2.624,2.102H183.943z"/>
			<path d="M188.742,27.943c-1.667,0-2.811-1.348-2.811-3.414c0-2.057,1.135-3.412,2.811-3.412c1.666,0,2.801,1.355,2.801,3.412
				C191.543,26.605,190.399,27.943,188.742,27.943z M188.742,21.781c-1.241,0-1.969,1.135-1.969,2.748
				c0,1.615,0.728,2.75,1.969,2.75c1.25,0,1.968-1.152,1.968-2.75C190.71,22.926,189.983,21.781,188.742,21.781z"/>
		</g>
	</g>
	<g>
		<path d="M174.526,40.188V38.57h-1.932v1.617h-0.423v-3.43h0.423v1.441h1.932v-1.441h0.428v3.43H174.526z"/>
		<path d="M177.127,40.281c-0.884,0-1.49-0.713-1.49-1.809c0-1.09,0.602-1.809,1.49-1.809c0.884,0,1.485,0.719,1.485,1.809
			C178.612,39.572,178.006,40.281,177.127,40.281z M177.127,37.016c-0.658,0-1.044,0.602-1.044,1.457s0.386,1.457,1.044,1.457
			c0.662,0,1.043-0.611,1.043-1.457C178.17,37.621,177.784,37.016,177.127,37.016z"/>
		<path d="M182.236,40.188v-3.021l-1.095,3.021h-0.381l-1.095-3.021v3.021h-0.399v-3.43h0.625l1.057,2.918l1.058-2.918h0.63v3.43
			H182.236z"/>
		<path d="M183.355,40.188v-3.43h2.632v0.352h-2.204v1.146h2.03V38.6h-2.03v1.236h2.261v0.352H183.355z"/>
	</g>
	
		<rect x="192.308" y="32.345" fill="#DB5434" stroke="#000000" stroke-width="0.3478" stroke-miterlimit="10" width="26.631" height="12.074"/>
	<g>
		<g>
			<path fill="#FFFFFF" d="M197.998,37.014v0.441h-1.562v-0.441H197.998z M197.078,40.301v0.238h-0.502v-1.652h1.408v1.596h-0.479
				v-0.182H197.078z M197.857,36.404v0.412h-1.188v-0.412H197.857z M197.857,37.652v0.404h-1.188v-0.404H197.857z M197.857,38.258
				v0.412h-1.188v-0.412H197.857z M197.506,39.877v-0.516h-0.428v0.516H197.506z M200.727,39.348v0.402h-0.234v0.27
				c0,0.512-0.371,0.512-0.779,0.506c-0.028-0.254-0.165-0.465-0.212-0.535c0.052,0.01,0.235,0.037,0.339,0.037
				c0.07,0,0.15,0,0.15-0.145V39.75h-1.212v0.771h-0.498V39.75h-0.221v-0.402h0.221v-1.1h0.85v-0.191h-1.132v-0.385h0.667v-0.227
				h-0.423v-0.309h0.423v-0.211h-0.597v-0.371h0.597v-0.293l0.507,0.02c0.033,0,0.099,0.004,0.099,0.051
				c0,0.033-0.047,0.062-0.094,0.08v0.143h0.442v-0.301l0.535,0.018c0.028,0,0.104,0.006,0.104,0.053
				c0,0.051-0.062,0.074-0.127,0.088v0.143h0.483v0.371h-0.483v0.211h0.356v0.309h-0.356v0.227h0.596v0.385h-1.112v0.191h0.878v1.1
				H200.727z M199.135,38.812v-0.207h-0.356v0.207H199.135z M199.135,39.348v-0.217h-0.356v0.217H199.135z M199.177,36.926v0.211
				h0.442v-0.211H199.177z M199.177,37.445v0.227h0.442v-0.227H199.177z M199.99,38.812v-0.207h-0.381v0.207H199.99z M199.99,39.348
				v-0.217h-0.381v0.217H199.99z"/>
			<path fill="#FFFFFF" d="M203.365,37.334l0.559,0.023c0.028,0,0.08,0.004,0.08,0.051c0,0.037-0.033,0.061-0.08,0.094v0.893
				c0.132-0.211,0.371-0.666,0.432-1.061l0.521,0.178c0.047,0.014,0.065,0.027,0.065,0.057c0,0.033-0.023,0.043-0.084,0.061
				c-0.062,0.174-0.075,0.217-0.099,0.273c0.31,0.408,0.525,0.582,0.699,0.693c-0.146,0.133-0.268,0.268-0.356,0.438
				c-0.301-0.254-0.54-0.578-0.563-0.615c-0.146,0.285-0.23,0.398-0.314,0.521c-0.075-0.076-0.137-0.113-0.301-0.211v0.352h1.207
				v0.465h-1.207v0.395h1.47v0.492h-3.46v-0.492h1.432v-0.395h-1.197V39.08h1.197v-0.471c-0.15,0.127-0.221,0.23-0.263,0.291
				c-0.155-0.178-0.324-0.416-0.38-0.506c-0.175,0.365-0.292,0.521-0.367,0.609c-0.174-0.141-0.229-0.188-0.395-0.262
				c-0.009,0.305-0.037,0.977-0.441,1.83c-0.174-0.121-0.343-0.191-0.54-0.238c0.334-0.629,0.423-1.25,0.423-2.1v-1.521h1.588V36.24
				l0.615,0.014c0.042,0,0.07,0.01,0.07,0.051c0,0.029-0.043,0.061-0.104,0.094v0.314h1.807v0.502h-3.408v1.377
				c0.085-0.104,0.361-0.461,0.559-1.227l0.526,0.137c0.019,0.004,0.056,0.02,0.056,0.057c0,0.047-0.056,0.061-0.094,0.07
				c-0.028,0.084-0.032,0.104-0.07,0.211c0.08,0.117,0.216,0.314,0.418,0.549V37.334z"/>
			<path fill="#FFFFFF" d="M208.248,40.545h-0.559v-0.85c-0.521,0.492-1.239,0.77-1.521,0.879c-0.164-0.277-0.229-0.348-0.361-0.438
				c0.296-0.08,0.831-0.225,1.376-0.648h-1.348v-0.428h1.854v-0.338l0.568,0.029c0.027,0,0.107,0.004,0.107,0.061
				c0,0.043-0.052,0.07-0.117,0.104v0.145h1.879v0.428h-1.461c0.592,0.418,1.057,0.541,1.399,0.625
				c-0.132,0.141-0.234,0.281-0.31,0.455c-0.174-0.057-0.902-0.295-1.508-0.83V40.545z M205.84,37.775v-0.414h1.371
				c0.108-0.137,0.221-0.301,0.272-0.385h-0.963v0.268h-0.545v-0.682h1.682V36.23l0.629,0.023c0.019,0,0.104,0.004,0.104,0.057
				c0,0.057-0.066,0.08-0.104,0.094v0.158h1.686v0.662h-0.573v-0.248h-1.268c0.023,0.01,0.057,0.037,0.057,0.064
				c0,0.053-0.094,0.053-0.141,0.057c-0.057,0.086-0.108,0.15-0.197,0.264h2.277v0.414h-1.057c0.014,0.01,0.037,0.018,0.037,0.047
				c0,0.051-0.104,0.061-0.136,0.064c-0.085,0.1-0.179,0.193-0.277,0.277c0.568,0.164,0.883,0.311,1.08,0.408
				c-0.085,0.09-0.216,0.24-0.319,0.438c-0.264-0.15-0.644-0.367-1.226-0.535c-0.647,0.334-1.314,0.465-1.935,0.498
				c-0.065-0.227-0.08-0.273-0.216-0.465c0.973-0.037,1.244-0.141,1.438-0.207c-0.254-0.051-0.362-0.066-0.438-0.074
				c-0.065,0.055-0.079,0.07-0.127,0.107c-0.061-0.043-0.271-0.193-0.465-0.24c0.122-0.094,0.221-0.178,0.357-0.318H205.84z
				 M207.517,37.775c-0.033,0.037-0.057,0.064-0.15,0.164c0.229,0.023,0.45,0.061,0.689,0.098c0.057-0.031,0.202-0.127,0.334-0.262
				H207.517z"/>
			<path fill="#FFFFFF" d="M214.643,36.99v3.033c0,0.225,0,0.525-0.634,0.525c-0.015,0-0.311-0.01-0.348-0.01
				c-0.033-0.291-0.07-0.379-0.212-0.629c0.122,0.029,0.371,0.053,0.428,0.053c0.075,0,0.174,0,0.174-0.197v-0.602
				c-0.07,0.053-0.221,0.178-0.361,0.404c-0.63-0.314-0.888-0.832-1.005-1.094c-0.239,0.488-0.662,0.963-1.052,1.197
				c-0.08-0.16-0.155-0.268-0.343-0.438v1.305h-0.597V36.99h1.672v-0.76l0.624,0.033c0.023,0,0.104,0.004,0.104,0.061
				c0,0.053-0.052,0.076-0.122,0.094v0.516c0,0.016-0.005,0.043-0.005,0.057H214.643z M211.29,39.16
				c0.953-0.535,1.033-1.314,1.062-1.611h-1.062V39.16z M212.971,37.549c0.019,0.32,0.089,0.605,0.281,0.869
				c0.062,0.084,0.315,0.428,0.799,0.68v-1.549H212.971z"/>
		</g>
	</g>
	
		<rect x="218.939" y="32.345" fill="none" stroke="#000000" stroke-width="0.3478" stroke-miterlimit="10" width="26.635" height="12.074"/>
	<g enable-background="new    ">
		<g>
			<path d="M222.459,37.75l-1.202,0.16l-0.07-0.6l1.183-0.146l-0.112-0.779l0.639-0.084c0.023-0.006,0.094-0.016,0.094,0.041
				c0,0.039-0.028,0.066-0.07,0.1l0.094,0.639l1.122-0.141l0.065,0.582l-1.103,0.145l0.094,0.621l1.61-0.207l0.065,0.592
				l-1.592,0.205l0.221,1.514l-0.634,0.111l-0.226-1.539l-1.694,0.221l-0.075-0.602l1.681-0.211L222.459,37.75z M224.299,36.342
				c0.113,0.113,0.301,0.32,0.437,0.521c-0.051,0.037-0.276,0.227-0.323,0.264c-0.08-0.117-0.244-0.338-0.437-0.541L224.299,36.342z
				 M224.745,36.074c0.132,0.123,0.291,0.291,0.441,0.475c-0.169,0.127-0.188,0.141-0.31,0.244
				c-0.033-0.043-0.221-0.295-0.418-0.492L224.745,36.074z"/>
			<path d="M226.76,37.137l0.554-0.066c0.042-0.004,0.099-0.014,0.099,0.047c0,0.033-0.033,0.057-0.065,0.084l0.136,0.705
				l1.216-0.24c0.085-0.018,0.169-0.061,0.226-0.121l0.395,0.295c-0.16,0.193-0.732,1.146-0.854,1.334
				c-0.174-0.107-0.446-0.221-0.521-0.254c0.047-0.061,0.15-0.205,0.263-0.365c0.075-0.113,0.165-0.244,0.202-0.311l-0.821,0.18
				l0.371,1.891l-0.54,0.127l-0.381-1.896l-0.99,0.217l-0.15-0.541l1.038-0.207L226.76,37.137z"/>
			<path d="M233.445,37.588c0.211,0,0.314-0.02,0.399-0.043l0.395,0.277c-0.08,0.15-0.414,0.816-0.489,0.947
				c-0.562,1-1.169,1.424-2.099,1.789c-0.122-0.197-0.276-0.365-0.437-0.516c0.719-0.23,1.625-0.625,2.104-1.873h-2.948v-0.582
				H233.445z M233.666,36.482v0.574h-2.714v-0.574H233.666z"/>
			<path d="M236.173,36.436c0.057,0.006,0.094,0.006,0.094,0.049c0,0.047-0.057,0.07-0.094,0.088v2.273h-0.657v-2.438
				L236.173,36.436z M238.352,36.352c0.07,0.006,0.094,0.02,0.094,0.043c0,0.061-0.061,0.08-0.094,0.094v1.521
				c0,1.568-0.916,2.137-1.822,2.516c-0.079-0.197-0.216-0.371-0.413-0.512c1.535-0.502,1.568-1.482,1.568-2v-1.695L238.352,36.352z
				"/>
			<path d="M243.676,38.074v0.668h-4.052v-0.668H243.676z"/>
		</g>
	</g>
	
		<rect x="245.574" y="32.345" fill="none" stroke="#000000" stroke-width="0.3478" stroke-miterlimit="10" width="26.633" height="12.074"/>
	<g enable-background="new    ">
		<g>
			<path d="M253.359,36.639c0.085,0,0.184-0.01,0.263-0.043l0.441,0.408c-0.056,0.066-0.075,0.094-0.169,0.234
				c-0.587,0.85-1.084,1.311-1.324,1.531c-0.103-0.131-0.225-0.271-0.46-0.441c0.479-0.398,0.7-0.615,1.015-1.084h-3.235v-0.605
				H253.359z M252.139,37.502c0.033,0,0.075,0.01,0.075,0.047c0,0.051-0.057,0.084-0.075,0.094c-0.019,0.488-0.094,1-0.239,1.381
				c-0.169,0.432-0.568,1.033-1.202,1.389c-0.211-0.188-0.314-0.268-0.554-0.418c0.699-0.393,1.403-0.924,1.314-2.535
				L252.139,37.502z"/>
			<path d="M257.764,36.996c0.155,0,0.239-0.033,0.324-0.07l0.338,0.295c-0.08,0.137-0.329,0.689-0.483,1.037
				c-0.732,1.629-1.888,2.17-2.249,2.338c-0.085-0.107-0.174-0.211-0.503-0.459c1.677-0.695,2.122-1.949,2.343-2.564h-1.305
				c-0.314,0.461-0.634,0.826-1.104,1.25c-0.211-0.221-0.277-0.291-0.488-0.432c0.498-0.41,1.216-1.123,1.573-2.113l0.577,0.277
				c0.023,0.01,0.065,0.027,0.065,0.07c0,0.047-0.084,0.061-0.112,0.061c-0.057,0.113-0.094,0.184-0.16,0.311H257.764z"/>
			<path d="M260.394,36.375l0.647,0.033c0.047,0.006,0.094,0.006,0.094,0.053c0,0.045-0.057,0.068-0.094,0.078v1.062l1.54-0.193
				c0.202-0.023,0.291-0.066,0.338-0.084l0.418,0.381c-0.169,0.191-0.211,0.248-0.577,0.75c-0.244,0.344-0.428,0.574-0.568,0.742
				c-0.221-0.174-0.465-0.291-0.545-0.334c0.254-0.234,0.507-0.529,0.69-0.816l-1.296,0.164v1.094c0,0.367,0.07,0.447,0.559,0.447
				c0.361,0,1.137-0.02,1.483-0.08c-0.037,0.174-0.07,0.445-0.07,0.652c-0.188,0.004-1.47,0.014-1.549,0.014
				c-0.896,0-1.07-0.285-1.07-0.947v-1.096l-1.08,0.143l-0.057-0.615l1.137-0.141V36.375z"/>
			<path d="M264.308,37.197v-0.596h2.385c0.075,0,0.249-0.01,0.324-0.037l0.319,0.342c-0.094,0.123-0.146,0.23-0.179,0.301
				c-0.197,0.461-0.305,0.709-0.605,1.197c0.356,0.268,1.094,0.906,1.465,1.357c-0.164,0.178-0.427,0.469-0.483,0.535
				c-0.254-0.352-0.644-0.863-1.333-1.4c-0.324,0.41-1.085,1.127-1.878,1.465c-0.146-0.252-0.226-0.361-0.446-0.549
				c0.281-0.098,0.967-0.352,1.662-1.098c0.507-0.541,0.686-0.982,0.887-1.518H264.308z"/>
		</g>
	</g>
	
		<rect x="272.207" y="32.345" fill="none" stroke="#000000" stroke-width="0.3478" stroke-miterlimit="10" width="26.635" height="12.074"/>
	<g enable-background="new    ">
		<g>
			<path d="M274.755,36.352c0.055,0.01,0.089,0.016,0.089,0.066c0,0.047-0.047,0.061-0.076,0.07
				c-0.025,0.324-0.029,0.469-0.034,0.562c0.411-0.094,0.567-0.164,0.724-0.244c-0.009,0.461-0.009,0.512,0.004,0.645
				c-0.354,0.141-0.668,0.201-0.748,0.215c0,0.076-0.005,0.4-0.009,0.471c0.373-0.16,0.651-0.17,0.757-0.17
				c0.574,0,1.153,0.385,1.153,1.207c0,0.809-0.528,1.123-0.95,1.123c-0.638,0-0.655-0.645-0.659-0.812
				c0.08-0.029,0.354-0.127,0.456-0.17c0,0.127-0.004,0.385,0.254,0.385c0.211,0,0.342-0.225,0.342-0.502
				c0-0.352-0.216-0.672-0.63-0.672c-0.32,0-0.63,0.16-0.723,0.207c0.017,0.977,0.021,1.084,0.055,1.475l-0.481,0.244
				c-0.274-0.305-0.481-0.479-0.786-0.723c-0.089,0.098-0.135,0.154-0.22,0.262l-0.253-0.68c0.194-0.117,0.963-0.766,1.137-0.879
				c-0.005-0.23-0.005-0.459-0.005-0.689c-0.266,0.023-0.596,0.027-0.823,0.027l-0.005-0.633c0.089,0.014,0.156,0.023,0.325,0.023
				c0.187,0,0.439-0.02,0.503-0.023c0-0.217-0.008-0.668-0.013-0.902L274.755,36.352z M273.817,39.381
				c0.037,0.033,0.266,0.225,0.308,0.225c0.03,0,0.034-0.057,0.034-0.104v-0.418C274.037,39.178,273.939,39.258,273.817,39.381z
				 M276.061,36.916c0.309,0.178,0.697,0.479,0.922,0.756c-0.17,0.197-0.232,0.281-0.355,0.482c-0.22-0.281-0.52-0.562-0.896-0.74
				L276.061,36.916z"/>
			<path d="M279.031,36.338v1.695h-1.111v2.502h-0.516v-4.197H279.031z M278.566,37v-0.26h-0.646V37H278.566z M277.92,37.371v0.258
				h0.646v-0.258H277.92z M278.862,40.127h-0.494v-1.779h1.647v1.408h-1.153V40.127z M279.521,39.314v-0.525h-0.659v0.525H279.521z
				 M280.992,36.338v3.676c0,0.518-0.418,0.521-0.612,0.521c-0.068,0-0.102-0.004-0.161-0.014c-0.021-0.16-0.051-0.314-0.215-0.629
				c0.156,0.041,0.282,0.051,0.333,0.051c0.081,0,0.14-0.004,0.14-0.158v-1.752h-1.115v-1.695H280.992z M280.477,37v-0.26h-0.65V37
				H280.477z M279.826,37.371v0.258h0.65v-0.258H279.826z"/>
			<path d="M282.407,36.719c0.068,0.023,0.089,0.033,0.089,0.074c0,0.057-0.059,0.066-0.089,0.07
				c-0.147,0.457-0.224,0.93-0.224,1.414c0,0.662,0.211,1.137,0.363,1.137c0.156,0,0.351-0.521,0.452-0.785
				c0.072,0.104,0.19,0.273,0.381,0.418c-0.313,0.855-0.659,1.207-0.888,1.207c-0.279,0-0.866-0.609-0.866-2.023
				c0-0.578,0.089-1.117,0.198-1.699L282.407,36.719z M284.508,36.779c0.574,0.863,0.79,1.691,0.845,2.381
				c-0.089,0.033-0.186,0.074-0.587,0.291c-0.051-1.027-0.334-1.736-0.727-2.344L284.508,36.779z"/>
			<path d="M288.61,38.178h-1.914v-0.281c-0.291,0.258-0.523,0.414-0.739,0.541c-0.114-0.217-0.173-0.287-0.372-0.498
				c1.146-0.525,1.623-1.447,1.767-1.723l0.621,0.051c0.025,0,0.084,0.004,0.084,0.057c0,0.033-0.042,0.061-0.089,0.09
				c0.271,0.492,1.104,1.168,1.767,1.445c-0.135,0.137-0.274,0.324-0.342,0.512c-0.199-0.107-0.406-0.234-0.782-0.531V38.178z
				 M286.874,40.311v0.225h-0.52v-1.98h2.59v1.98h-0.524v-0.225H286.874z M288.42,39.793v-0.727h-1.546v0.727H288.42z
				 M288.398,37.672c-0.354-0.301-0.52-0.488-0.764-0.832c-0.283,0.385-0.385,0.521-0.697,0.832H288.398z"/>
			<path d="M291.759,37.258c-0.009,0.01-0.152,0.197-0.22,0.357c0.393-0.287,0.723-0.338,0.946-0.338
				c0.465,0,1.188,0.281,1.188,1.334c0,1.422-1.297,1.633-1.614,1.686c-0.089-0.273-0.169-0.41-0.291-0.578
				c0.574-0.043,1.352-0.248,1.352-1.076c0-0.535-0.325-0.797-0.692-0.797c-0.482,0-0.917,0.365-1.107,0.549
				c0,1.479,0,1.643,0.004,2.047l-0.596,0.053c0.021-0.404,0.021-0.512,0.042-1.414c-0.072,0.104-0.372,0.582-0.439,0.672
				l-0.414-0.451c0.359-0.418,0.706-0.926,0.888-1.301v-0.201c-0.275,0.127-0.537,0.201-0.685,0.248l-0.102-0.672
				c0.354-0.027,0.668-0.111,0.803-0.154c0-0.447-0.004-0.498-0.021-0.959l0.555,0.043c0.071,0.004,0.126,0.01,0.126,0.066
				s-0.046,0.061-0.093,0.07c-0.013,0.107-0.021,0.201-0.042,0.568c0.038-0.02,0.063-0.033,0.144-0.08L291.759,37.258z"/>
			<path d="M297.1,36.408c0.068,0.01,0.089,0.023,0.089,0.062c0,0.051-0.046,0.064-0.071,0.074c0,0.014,0.017,0.746,0.017,0.816
				c0.478-0.074,0.528-0.084,0.824-0.111v0.656c-0.06-0.004-0.114-0.01-0.203-0.01c-0.207,0-0.456,0.029-0.608,0.047
				c0,1.24-0.14,1.334-0.997,1.324c-0.025-0.201-0.118-0.506-0.144-0.592c0.093,0.014,0.178,0.023,0.258,0.023
				c0.291,0,0.295-0.07,0.329-0.676c-0.316,0.057-0.642,0.127-0.963,0.197c-0.009,0.221-0.021,1.033,0.038,1.248
				c0.076,0.273,0.38,0.297,0.663,0.297c0.122,0,0.706,0,1.369-0.193c-0.042,0.203-0.063,0.375-0.076,0.658
				c-0.566,0.102-1.373,0.111-1.391,0.111c-0.511,0-0.946-0.121-1.077-0.652c-0.063-0.262-0.06-0.613-0.051-1.352
				c-0.528,0.123-0.558,0.131-0.849,0.217l-0.051-0.705c0.253-0.01,0.629-0.074,0.883-0.131c0-0.264-0.009-0.855-0.042-1.113
				l0.62,0.084c0.06,0.01,0.11,0.016,0.11,0.07c0,0.047-0.063,0.072-0.089,0.076c-0.009,0.127-0.034,0.666-0.038,0.779
				c0.232-0.043,0.532-0.1,0.934-0.164c-0.009-0.381-0.017-0.766-0.097-1.141L297.1,36.408z"/>
		</g>
	</g>
	
		<rect x="272.613" y="18.599" fill="none" stroke="#040000" stroke-width="0.3478" stroke-miterlimit="10" width="25.822" height="9.713"/>
	<g>
		<path fill="#040000" d="M280.779,23.473c0.037,0.021,0.054,0.045,0.054,0.066c0,0.047-0.054,0.047-0.108,0.043
			c-0.317,0.5-0.459,0.676-0.863,1.088c-0.134-0.121-0.305-0.25-0.48-0.354c0.451-0.348,0.73-0.756,0.914-1.127L280.779,23.473z
			 M281.042,21.504l0.556,0.02c0.054,0,0.092,0.01,0.092,0.051c0,0.033-0.034,0.045-0.071,0.062v0.76h1.402v0.508h-1.402v1.578
			c0,0.289,0,0.631-0.672,0.631c-0.075,0-0.2-0.01-0.284-0.018c-0.013-0.092-0.029-0.246-0.18-0.559
			c0.108,0.018,0.268,0.037,0.38,0.037c0.18,0,0.18-0.062,0.18-0.324v-1.346h-1.406v-0.508h1.406V21.504z M282.345,23.164
			c0.333,0.312,0.738,0.844,0.859,1.068c-0.142,0.109-0.342,0.297-0.43,0.379c-0.2-0.367-0.593-0.871-0.848-1.117L282.345,23.164z
			 M282.604,21.6c0.112,0.1,0.296,0.295,0.392,0.426c-0.079,0.062-0.158,0.129-0.288,0.232c-0.079-0.104-0.267-0.32-0.392-0.438
			L282.604,21.6z M283.008,21.277c0.117,0.088,0.321,0.293,0.413,0.414c-0.096,0.066-0.184,0.141-0.279,0.225
			c-0.05-0.059-0.229-0.271-0.405-0.426L283.008,21.277z"/>
		<path fill="#040000" d="M285.262,22.904c0.213,0.121,0.442,0.256,0.73,0.459c0.222-0.357,0.313-0.621,0.359-0.764h-1.09
			c-0.07,0.105-0.446,0.623-0.922,0.986c-0.163-0.168-0.246-0.238-0.442-0.381c0.635-0.418,1.089-1.068,1.377-1.785l0.56,0.18
			c0.05,0.016,0.075,0.023,0.075,0.049c0,0.055-0.075,0.055-0.101,0.059c-0.066,0.125-0.129,0.238-0.225,0.4h0.993
			c0.15,0,0.221-0.02,0.279-0.041l0.259,0.225c-0.029,0.051-0.059,0.109-0.088,0.176c-0.305,0.734-0.363,0.881-0.597,1.234
			c0.263,0.227,0.351,0.348,0.417,0.436c-0.12,0.141-0.296,0.387-0.351,0.471c-0.104-0.137-0.217-0.283-0.404-0.463
			c-0.589,0.643-1.239,0.914-1.603,1.061c-0.075-0.121-0.159-0.252-0.384-0.48c0.409-0.113,1.102-0.43,1.569-0.939
			c-0.297-0.225-0.563-0.383-0.752-0.496L285.262,22.904z"/>
		<path fill="#040000" d="M288.408,21.57c0.613,0.309,0.897,0.543,1.094,0.717c-0.088,0.102-0.15,0.184-0.347,0.484
			c-0.492-0.43-0.897-0.621-1.098-0.709L288.408,21.57z M288.112,24.504c1.001-0.213,2.278-0.877,3.134-2.266
			c0.15,0.236,0.2,0.316,0.363,0.488c-0.271,0.416-1.056,1.598-3.026,2.307c-0.008,0.043-0.012,0.092-0.07,0.092
			c-0.029,0-0.055-0.033-0.075-0.07L288.112,24.504z"/>
	</g>
</g>
<g id="レイヤー_2">
	<g>
		<g>
			<rect x="313.776" y="15.468" fill="#FFFFFF" width="77.018" height="28.928"/>
		</g>
		<g>
			<rect x="313.776" y="15.468" fill="none" stroke="#EA5504" stroke-width="2.8347" width="77.018" height="28.928"/>
		</g>
		<g>
			<path fill="#EA5504" d="M325.464,24.062c-0.101,2.627-0.71,3.549-2.497,4.636l-0.756-0.719c1.668-0.912,2.193-1.853,2.23-3.917
				h-1.742v2.111h-1.097v-2.111h-1.705v-1.051h1.705v-1.76l1.014,0.11c0.212,0.027,0.276,0.037,0.276,0.129
				c0,0.037-0.018,0.056-0.074,0.093c-0.101,0.073-0.119,0.092-0.119,0.138v1.29h1.742c0-0.7,0-1.317-0.02-1.898l0.95,0.129
				c0.073,0.01,0.286,0.037,0.286,0.147c0,0.037-0.028,0.065-0.084,0.111c-0.064,0.055-0.082,0.073-0.102,0.119v1.392h1.549v1.051
				H325.464z"/>
			<path fill="#EA5504" d="M334.336,21.952c-0.139,0.01-0.156,0.027-0.285,0.166c-0.461,0.525-0.977,1.005-1.521,1.438v4.912h-1.152
				v-4.055c-0.626,0.415-1.244,0.802-2.322,1.309l-0.801-0.82c1.926-0.756,3.953-2.267,5.345-3.917l0.802,0.664
				c0.037,0.027,0.156,0.147,0.156,0.221C334.557,21.934,334.521,21.943,334.336,21.952z"/>
			<path fill="#EA5504" d="M340.361,26.293c-0.682-0.636-1.604-1.382-2.709-1.843v3.981h-1.088v-7.3l1.105,0.193
				c0.027,0.01,0.221,0.037,0.221,0.147c0,0.056-0.238,0.203-0.238,0.249v2.424l0.433-0.682c0.47,0.202,0.774,0.322,1.567,0.839
				c0.728,0.479,1.068,0.783,1.438,1.105L340.361,26.293z"/>
			<path fill="#EA5504" d="M348.228,28.772l-0.378-1.06c0.111,0.018,0.305,0.036,0.627,0.036c0.285,0,0.442-0.027,0.442-0.295
				v-4.092h-2.202c0.248,1.097,0.736,2.064,2.156,2.746l-0.811,0.747c-0.83-0.498-1.328-0.986-1.844-2.01
				c-0.471,0.903-0.996,1.457-1.797,2.083l-0.82-0.746c1.262-0.765,1.77-1.622,1.99-2.82h-2.027v5.309h-1.041v-6.313h3.143
				c0-0.977-0.01-1.151-0.027-1.483l1.234,0.046c0.055,0,0.11,0.037,0.11,0.092c0,0.074-0.073,0.111-0.11,0.139
				c-0.111,0.064-0.139,0.129-0.139,0.175c-0.009,0.056-0.009,0.866-0.009,1.032h3.198v5.466
				C349.924,28.644,349.545,28.772,348.228,28.772z"/>
			<path fill="#EA5504" d="M358.344,26.754c-0.691,1.023-1.65,1.419-2.147,1.622l-0.683-0.949c0.415-0.12,1.098-0.313,1.66-0.986
				c0.562-0.663,0.662-1.429,0.662-1.834c0-0.507-0.146-1.124-0.662-1.612c-0.582-0.554-1.227-0.59-1.567-0.618
				c-0.295,2.193-0.839,3.484-1.144,4.102c-0.275,0.571-0.699,1.346-1.18,1.346c-0.331,0-1.843-0.83-1.843-2.479
				c0-2.046,1.687-3.907,4.064-3.907c1.917,0,3.429,1.299,3.429,3.354C358.934,25.602,358.685,26.247,358.344,26.754z
				 M353.385,23.206c-0.654,0.626-0.922,1.483-0.922,2.046c0,0.746,0.425,1.134,0.59,1.134c0.48,0,1.272-2.406,1.457-3.844
				C354.242,22.635,353.828,22.772,353.385,23.206z"/>
			<path fill="#EA5504" d="M360.257,28.671v-0.968h3.327v-1.871h-2.396v-0.939h2.396v-1.567h-3.125v-0.949h3.567
				c-0.396-0.424-0.958-0.848-1.244-1.032l0.636-0.773c0.434,0.267,1.134,0.792,1.604,1.29l-0.434,0.516h3.236v0.949h-3.144v1.567
				h2.415v0.939h-2.415v1.871h3.337v0.968H360.257z"/>
			<path fill="#EA5504" d="M374.787,21.86v0.516h1.881v2.369h-2.812c-0.157,0.23-0.295,0.405-0.489,0.645h3.898v0.766h-1.797
				c-0.322,0.507-0.59,0.773-0.829,0.995c0.949,0.341,1.53,0.59,2.193,0.885l-0.617,0.848c-0.793-0.498-1.632-0.839-2.359-1.115
				c-1.088,0.59-1.991,0.876-3.899,1.042l-0.441-0.913c1.815-0.009,2.479-0.147,3.253-0.516c-0.295-0.083-0.663-0.185-0.985-0.249
				c-0.121,0.11-0.23,0.212-0.369,0.322l-0.912-0.562c0.359-0.277,0.599-0.498,0.848-0.737h-1.908V25.39h2.617
				c0.286-0.341,0.379-0.497,0.471-0.645h-2.415v-2.369h1.862V21.86h-2.553v-0.83h7.861v0.83H374.787z M371.977,23.113h-0.876v0.895
				h0.876V23.113z M372.723,26.155c-0.147,0.175-0.184,0.202-0.305,0.331c0.323,0.064,0.618,0.139,1.235,0.323
				c0.295-0.23,0.498-0.498,0.599-0.654H372.723z M373.811,21.86h-0.848v0.516h0.848V21.86z M373.811,23.113h-0.848v0.895h0.848
				V23.113z M375.718,23.113h-0.931v0.895h0.931V23.113z"/>
			<path fill="#EA5504" d="M380.996,23.188c-0.747,2.156-1.227,3.078-1.705,3.953l-0.986-0.424c0.737-1.124,1.197-2.312,1.576-3.354
				c-0.424,0.056-0.682,0.083-1.115,0.11l-0.139-0.958c0.608-0.01,0.996-0.046,1.566-0.12c0.157-0.553,0.268-0.958,0.332-1.521
				l1.005,0.221c0.046,0.01,0.222,0.056,0.222,0.157c0,0.092-0.157,0.147-0.213,0.203c-0.009,0.009-0.184,0.599-0.221,0.719
				c0.543-0.139,0.82-0.23,1.06-0.313v1.032C382.064,22.976,381.779,23.049,380.996,23.188z M384.258,28.09
				c-0.312-0.258-0.553-0.414-0.912-0.607c-0.083,0.737-0.359,1.124-1.566,1.124c-0.59,0-1.115-0.092-1.502-0.434
				c-0.148-0.129-0.342-0.396-0.342-0.783c0-0.497,0.359-1.309,1.631-1.309c0.305,0,0.535,0.027,0.72,0.056
				c-0.019-0.212-0.13-1.152-0.13-1.346c0-0.442,0.213-0.719,0.396-0.94l0.959,0.517c-0.295,0.239-0.35,0.47-0.35,0.737
				c0,0.193,0.018,0.599,0.119,1.281c0.608,0.239,1.004,0.47,1.586,0.838L384.258,28.09z M381.53,26.92
				c-0.479,0-0.7,0.258-0.7,0.442c0,0.203,0.258,0.415,0.765,0.415c0.747,0,0.737-0.388,0.737-0.719
				C382.166,27.012,381.844,26.92,381.53,26.92z M384.673,24.155c-0.608-0.369-1.106-0.608-2.019-0.839l0.415-0.793
				c0.683,0.12,1.373,0.332,2.056,0.848L384.673,24.155z"/>
			<path fill="#EA5504" d="M326.652,39.465c-0.949-0.932-1.612-1.613-3.143-3.42c-0.295-0.35-0.433-0.516-0.7-0.516
				c-0.229,0-0.368,0.175-0.571,0.414c-0.268,0.313-1.549,1.881-1.853,2.222l-0.94-0.82c0.646-0.608,0.691-0.664,1.65-1.732
				c0.959-1.069,1.189-1.3,1.723-1.3c0.609,0,0.849,0.276,1.309,0.802c1.07,1.198,2.166,2.368,3.346,3.466L326.652,39.465z
				 M326.211,35.465c-0.479,0-0.857-0.396-0.857-0.876s0.378-0.866,0.857-0.866c0.461,0,0.848,0.387,0.848,0.866
				C327.059,35.087,326.672,35.465,326.211,35.465z M326.211,34.073c-0.277,0-0.517,0.23-0.517,0.516
				c0,0.295,0.239,0.525,0.517,0.525c0.268,0,0.506-0.23,0.506-0.525C326.717,34.304,326.486,34.073,326.211,34.073z"/>
			<path fill="#EA5504" d="M328.263,37.437v-1.17h6.553v1.17H328.263z"/>
			<path fill="#EA5504" d="M337.696,36.902c-0.581-0.387-1.151-0.682-1.834-0.895l0.507-0.931c0.701,0.222,1.309,0.525,1.89,0.959
				L337.696,36.902z M340.517,38.469c-0.94,0.812-1.991,1.484-3.097,2.037c-0.119,0.064-0.139,0.064-0.156,0.139
				c-0.027,0.119-0.047,0.165-0.093,0.165c-0.083,0-0.185-0.193-0.212-0.248l-0.488-0.903c2.543-1.088,4.305-2.747,5.438-4.507
				l0.737,0.912C342.351,36.516,341.77,37.4,340.517,38.469z M338.637,34.746c-0.608-0.461-1.447-0.729-1.807-0.83l0.488-0.885
				c0.508,0.139,1.281,0.378,1.861,0.82L338.637,34.746z M341.447,34.506c-0.276-0.285-0.562-0.497-0.902-0.691l0.387-0.507
				c0.276,0.157,0.627,0.378,0.931,0.691L341.447,34.506z M342.388,33.76c-0.276-0.286-0.673-0.535-0.958-0.701l0.387-0.507
				c0.166,0.093,0.645,0.36,0.977,0.701L342.388,33.76z"/>
			<path fill="#EA5504" d="M345.426,40.119l-0.729,0.285c-0.147-0.239-0.23-0.387-0.341-0.728c-0.276-0.857-0.378-1.715-0.378-2.424
				c0-0.59,0.074-1.272,0.139-1.816c0.129-0.995,0.258-1.558,0.387-2.101l0.939,0.341c0.064,0.027,0.24,0.092,0.24,0.166
				c0,0.019-0.01,0.055-0.046,0.083c-0.019,0.009-0.138,0.055-0.157,0.064c-0.138,0.083-0.534,1.751-0.534,3.143
				c0,0.156,0,0.866,0.129,1.263c0.11-0.193,0.166-0.286,0.368-0.646l0.545,0.295C345.656,38.801,345.518,39.529,345.426,40.119z
				 M348.725,39.852c-1.678,0-2.027-0.451-2.055-2.009l1.004-0.139c0.01,0.876,0.102,1.124,1.033,1.124
				c1.051,0,1.77-0.193,2.102-0.285v1.143C350.319,39.76,349.701,39.852,348.725,39.852z M347.988,35.114
				c-0.074,0-0.498,0-0.986-0.046v-1.014c0.268,0.037,0.682,0.102,1.18,0.102c1.078,0,1.834-0.259,2.184-0.378v1.068
				C349.941,34.93,349.011,35.114,347.988,35.114z"/>
			<path fill="#EA5504" d="M355.68,40.902l-0.627-0.922c1.318-0.193,1.89-0.424,2.471-0.71c-0.148-0.221-0.359-0.488-0.637-0.746
				c-0.285,0.193-0.534,0.351-0.931,0.534l-0.737-0.765c1.125-0.405,1.917-1.051,2.627-1.871c-0.719,0.434-1.189,0.664-1.89,0.913
				l-0.737-0.812c0.396-0.073,1.217-0.23,1.926-0.729c-0.129-0.165-0.34-0.442-0.645-0.69c-0.305,0.248-0.434,0.331-0.572,0.405
				l-0.57-0.442v0.912h-0.839v0.074c0.229,0.424,0.497,0.811,1.124,1.244l-0.654,0.773c-0.102-0.082-0.248-0.212-0.47-0.488v3.226
				h-1.022v-2.69c-0.186,0.368-0.332,0.599-0.609,0.958l-0.865-0.636c0.719-0.793,1.133-1.834,1.345-2.461h-1.014v-0.986h1.144
				v-0.82c-0.443,0.047-0.683,0.064-0.941,0.074l-0.387-0.949c1.271-0.01,1.861-0.12,2.719-0.461l0.544,0.774
				c0.064,0.102,0.073,0.156,0.073,0.175c0,0.074-0.073,0.083-0.092,0.083c-0.046,0-0.268-0.037-0.322-0.037
				c-0.037,0-0.047,0-0.156,0.037c-0.25,0.083-0.258,0.083-0.415,0.12v1.004h0.747l-0.176-0.129c0.359-0.166,0.729-0.341,1.29-0.922
				c0.498-0.516,0.71-0.885,0.894-1.207l0.969,0.322c0.045,0.019,0.156,0.056,0.156,0.13c0,0.073-0.092,0.11-0.129,0.119
				c-0.064,0.028-0.129,0.046-0.185,0.12l-0.083,0.102h1.936l0.378,0.276c-0.728,1.207-1.337,1.732-1.89,2.193l0.646,0.276
				c0.046,0.019,0.166,0.074,0.166,0.157c0,0.027,0,0.046-0.019,0.064c-0.027,0.027-0.212,0.083-0.249,0.11
				c-0.046,0.027-0.222,0.258-0.258,0.304h1.539l0.396,0.276C359.707,39.105,358.076,40.506,355.68,40.902z M357.273,34.358
				l-0.129,0.139c0.139,0.11,0.388,0.304,0.747,0.746c0.212-0.185,0.452-0.405,0.848-0.885H357.273z M357.883,37.75
				c-0.111,0.093-0.129,0.11-0.277,0.24c0.24,0.212,0.443,0.414,0.691,0.773c0.59-0.497,0.766-0.765,0.903-1.014H357.883z"/>
			<path fill="#EA5504" d="M368.975,39.446c-0.221,1.151-0.571,1.382-1.585,1.4l-0.442-0.958c0.102,0.019,0.268,0.046,0.434,0.046
				c0.414,0,0.57-0.203,0.645-0.488c0.129-0.517,0.332-2.102,0.359-3.742h-0.58c-0.148,1.825-0.525,3.383-1.854,5.051l-0.939-0.47
				c0.129-0.12,0.221-0.213,0.471-0.498c-0.443,0.055-2.627,0.304-3.125,0.359c-0.203,0.027-0.23,0.019-0.285,0.102
				c-0.074,0.102-0.102,0.138-0.185,0.138c-0.073,0-0.12-0.046-0.138-0.175l-0.13-0.839c0.571-0.019,1.438-0.083,1.761-0.11v-0.488
				h-1.493v-0.691h1.493v-0.378h-1.429v-2.433h1.429v-0.396h-1.807v-0.701h1.807v-0.377c-0.193,0.018-0.498,0.036-1.134,0.036
				l-0.323-0.728c1.106,0.036,2.222,0.019,3.291-0.276l0.461,0.599c0.027,0.046,0.064,0.092,0.064,0.139
				c0,0.036-0.027,0.073-0.111,0.073c-0.037,0-0.248-0.073-0.304-0.073s-0.331,0.055-0.396,0.064c-0.009,0-0.405,0.046-0.608,0.073
				v0.47h1.816v0.701h-1.816v0.396h1.438v2.433h-1.438v0.378h1.484v0.691h-1.484v0.424c0.857-0.074,0.996-0.083,1.502-0.129v0.267
				c0.148-0.229,0.388-0.617,0.618-1.373c0.295-0.949,0.388-1.778,0.424-2.258h-0.646v-0.912h0.691
				c0.01-1.005,0.01-1.014,0.01-1.853l0.995,0.046c0.073,0,0.222,0.009,0.222,0.129c0,0.056-0.028,0.083-0.056,0.11
				c-0.147,0.139-0.166,0.147-0.175,0.249c-0.01,0.185-0.037,1.106-0.047,1.318h1.493C369.334,35.575,369.288,37.852,368.975,39.446
				z M363.381,35.814H362.8v0.388h0.581V35.814z M363.381,36.755H362.8v0.405h0.581V36.755z M364.91,35.814h-0.59v0.388h0.59V35.814
				z M364.91,36.755h-0.59v0.405h0.59V36.755z"/>
			<path fill="#EA5504" d="M375.082,35.087v1.29c0.102,0.221,0.268,0.544,0.268,1.124c0,0.268-0.056,0.949-0.471,1.779
				c-0.424,0.856-0.922,1.373-1.254,1.714l-1.031-0.534c0.553-0.359,1.115-0.839,1.317-1.512c-0.202,0.056-0.341,0.092-0.497,0.092
				c-0.24,0-0.525-0.083-0.756-0.285c-0.379-0.332-0.479-0.829-0.479-1.281c0-1.014,0.507-1.714,1.446-1.714
				c0.176,0,0.305,0.027,0.434,0.073l-0.018-0.691c-0.82,0.047-2.213,0.13-3.383,0.276V34.35c0.627,0,1.419,0,3.354-0.093
				c-0.009-0.285-0.009-0.773-0.064-1.446l1.022,0.064c0.213,0.009,0.268,0.037,0.268,0.129c0,0.055-0.018,0.083-0.082,0.138
				c-0.065,0.056-0.074,0.074-0.074,0.111v0.949c1.281-0.074,1.566-0.102,2.506-0.176v0.996
				C376.889,35.022,376.279,35.041,375.082,35.087z M374.059,36.764c-0.092-0.092-0.221-0.129-0.341-0.129
				c-0.368,0-0.626,0.323-0.626,0.812c0,0.553,0.295,0.765,0.506,0.765c0.193,0,0.637-0.203,0.637-0.857
				C374.234,37.16,374.206,36.921,374.059,36.764z"/>
			<path fill="#EA5504" d="M381.807,40.533c-1.152,0-1.742-0.58-1.742-1.263c0-0.525,0.451-1.226,1.355-1.226
				c0.958,0,1.557,0.756,1.814,1.078c0.203-0.184,0.609-0.571,0.609-1.226c0-0.912-0.895-1.207-1.494-1.207
				c-0.396,0-0.829,0.11-1.051,0.23c-0.57,0.304-1.382,1.124-1.898,1.649l-0.773-0.811c0.959-0.719,1.936-1.539,3.41-3.327
				c-0.553,0.129-1.061,0.221-2.156,0.23l-0.213-1.032c0.221,0.018,0.746,0.055,1.033,0.055c0.35,0,1.916-0.119,2.792-0.461
				l0.479,0.747c-0.553,0.461-0.71,0.608-2.047,1.972c0.305-0.046,0.756-0.055,0.895-0.055c1.254,0,2.046,1.022,2.046,2.037
				C384.866,39.455,383.428,40.533,381.807,40.533z M381.456,38.856c-0.378,0-0.46,0.267-0.46,0.387
				c0,0.322,0.424,0.415,0.755,0.415c0.295,0,0.497-0.056,0.627-0.083C382.258,39.363,381.981,38.856,381.456,38.856z"/>
		</g>
	</g>
	<g>
		<g>
			<rect x="313.776" y="66.86" fill="#FFFFFF" width="76.814" height="29.094"/>
		</g>
		<g>
			<rect x="313.776" y="66.86" fill="none" stroke="#EA5504" stroke-width="2.8347" width="76.814" height="29.094"/>
		</g>
		<g>
			<path fill="#EA5504" d="M319.631,79.096v-1.004h4.238l0.535-3.355h-3.309v-1.051h4.636l-0.72,4.406h2.194v1.004H319.631z"/>
			<path fill="#EA5504" d="M328.263,76.948v-1.17h6.553v1.17H328.263z"/>
			<path fill="#EA5504" d="M341.559,75.603c-0.111,2.673-0.747,3.576-2.498,4.636l-0.756-0.719c1.622-0.894,2.203-1.778,2.23-3.917
				h-1.742v2.064h-1.096v-2.064h-1.733v-1.041h1.733v-1.77l1.014,0.11c0.211,0.028,0.275,0.046,0.275,0.129
				c0,0.047-0.193,0.185-0.193,0.23v1.3h1.742c0-0.839,0-1.373-0.019-1.908l0.94,0.13c0.193,0.027,0.295,0.073,0.295,0.147
				c0,0.027,0,0.046-0.083,0.101c-0.093,0.074-0.102,0.083-0.102,0.212v1.318h1.539v1.041H341.559z M342.545,72.783
				c0.34,0.193,0.635,0.424,0.921,0.682l-0.388,0.488c-0.295-0.258-0.59-0.488-0.93-0.682L342.545,72.783z M343.115,71.963
				c0.369,0.202,0.646,0.405,0.932,0.663l-0.387,0.488c-0.287-0.258-0.572-0.488-0.922-0.682L343.115,71.963z"/>
			<path fill="#EA5504" d="M344.494,76.948v-1.17h6.553v1.17H344.494z"/>
			<path fill="#EA5504" d="M356.279,79.437c-0.193,0.194-0.498,0.36-1.051,0.36c-0.275,0-0.525-0.019-0.691-0.037l-0.221-0.996
				c0.166,0.037,0.359,0.074,0.627,0.074c0.285,0,0.47-0.056,0.636-0.258c0.415-0.517,0.488-1.678,0.488-2.12
				c0-0.71-0.175-0.931-0.747-0.931c-0.202,0-0.387,0.027-0.497,0.046c-0.47,1.89-0.912,2.995-1.751,4.268l-0.959-0.434
				c0.867-1.235,1.3-2.147,1.668-3.595c-0.497,0.157-0.792,0.277-1.253,0.498l-0.341-1.105c0.701-0.111,1.014-0.176,1.77-0.342
				c0.074-0.59,0.102-0.977,0.092-1.751l1.106,0.157c0.12,0.019,0.222,0.064,0.222,0.138c0,0.037-0.01,0.046-0.102,0.102
				c-0.111,0.074-0.111,0.074-0.129,0.193c-0.047,0.369-0.064,0.535-0.139,0.949c0.147-0.027,0.405-0.064,0.673-0.064
				c1.244,0,1.354,1.097,1.354,1.917C357.035,77.833,356.713,79.022,356.279,79.437z M357.994,77.354l-0.488-0.876
				c0.331-0.046,0.525-0.092,0.525-0.313c0-0.23-0.352-0.986-1.328-2.12l0.747-0.516c0.424,0.507,1.677,1.99,1.677,2.968
				C359.127,77.197,358.335,77.308,357.994,77.354z M358.795,74.405c-0.23-0.332-0.441-0.562-0.728-0.812l0.497-0.368
				c0.259,0.229,0.508,0.516,0.711,0.783L358.795,74.405z M359.736,73.861c-0.186-0.305-0.406-0.562-0.654-0.793l0.479-0.35
				c0.249,0.202,0.488,0.46,0.719,0.773L359.736,73.861z"/>
			<path fill="#EA5504" d="M368.422,75.695c-0.672-0.222-0.986-0.369-1.373-0.553v0.765h-4.23v-0.774
				c-0.59,0.378-0.912,0.525-1.29,0.691l-0.849-0.765c1.475-0.6,2.895-1.567,3.715-2.885l1.115,0.258
				c0.037,0.009,0.176,0.037,0.176,0.129c0,0.11-0.121,0.139-0.186,0.157c0.691,0.902,1.955,1.631,3.484,2.009L368.422,75.695z
				 M365.629,80.57l-1.115-0.488c0.895-0.848,1.438-1.825,1.715-2.387h-4.396v-0.986h5.42l0.534,0.387
				C367.104,78.58,366.486,79.584,365.629,80.57z M364.855,73.409c-0.664,0.729-1.198,1.134-1.751,1.53h3.566
				C365.851,74.451,365.408,74.063,364.855,73.409z"/>
			<path fill="#EA5504" d="M371.912,79.446c-0.295,0-0.525-0.157-0.682-0.305c-0.646-0.626-0.94-1.704-0.94-3.456
				c0-1.18,0.129-1.778,0.276-2.396l1.014,0.276c0.064,0.019,0.212,0.064,0.212,0.175c0,0.102-0.11,0.139-0.267,0.193
				c-0.102,0.507-0.176,1.042-0.176,2.056c0,1.797,0.442,2.129,0.627,2.129c0.332,0,0.709-0.977,0.885-1.42l0.765,0.683
				C373.119,78.469,372.658,79.446,371.912,79.446z M376.584,77.806c-0.267-1.917-0.875-3.005-1.354-3.742l0.949-0.46
				c0.441,0.626,1.262,1.787,1.511,3.916L376.584,77.806z"/>
			<path fill="#EA5504" d="M381.861,80.045c-1.151,0-1.741-0.58-1.741-1.263c0-0.525,0.452-1.226,1.354-1.226
				c0.959,0,1.559,0.756,1.816,1.078c0.202-0.184,0.607-0.571,0.607-1.226c0-0.912-0.894-1.207-1.492-1.207
				c-0.396,0-0.83,0.11-1.051,0.23c-0.572,0.304-1.383,1.124-1.898,1.649l-0.774-0.811c0.958-0.719,1.935-1.539,3.409-3.327
				c-0.553,0.129-1.059,0.221-2.156,0.23l-0.211-1.032c0.221,0.018,0.746,0.055,1.031,0.055c0.351,0,1.918-0.119,2.793-0.461
				l0.479,0.747c-0.553,0.461-0.709,0.608-2.045,1.972c0.304-0.046,0.756-0.055,0.894-0.055c1.253,0,2.046,1.022,2.046,2.037
				C384.922,78.967,383.484,80.045,381.861,80.045z M381.512,78.368c-0.378,0-0.461,0.267-0.461,0.387
				c0,0.322,0.424,0.415,0.756,0.415c0.295,0,0.498-0.056,0.627-0.083C382.313,78.875,382.037,78.368,381.512,78.368z"/>
			<path fill="#EA5504" d="M326.652,91.023c-0.949-0.932-1.612-1.613-3.143-3.42c-0.295-0.35-0.433-0.516-0.7-0.516
				c-0.229,0-0.368,0.175-0.571,0.414c-0.268,0.313-1.549,1.881-1.853,2.222l-0.94-0.82c0.646-0.608,0.691-0.664,1.65-1.732
				c0.959-1.069,1.189-1.3,1.723-1.3c0.609,0,0.849,0.276,1.309,0.802c1.07,1.198,2.166,2.368,3.346,3.466L326.652,91.023z
				 M326.211,87.023c-0.479,0-0.857-0.396-0.857-0.876s0.378-0.866,0.857-0.866c0.461,0,0.848,0.387,0.848,0.866
				C327.059,86.646,326.672,87.023,326.211,87.023z M326.211,85.632c-0.277,0-0.517,0.23-0.517,0.516
				c0,0.295,0.239,0.525,0.517,0.525c0.268,0,0.506-0.23,0.506-0.525C326.717,85.862,326.486,85.632,326.211,85.632z"/>
			<path fill="#EA5504" d="M328.263,88.995v-1.17h6.553v1.17H328.263z"/>
			<path fill="#EA5504" d="M337.696,88.461c-0.581-0.387-1.151-0.682-1.834-0.895l0.507-0.931c0.701,0.222,1.309,0.525,1.89,0.959
				L337.696,88.461z M340.517,90.027c-0.94,0.812-1.991,1.484-3.097,2.037c-0.119,0.064-0.139,0.064-0.156,0.139
				c-0.027,0.119-0.047,0.165-0.093,0.165c-0.083,0-0.185-0.193-0.212-0.248l-0.488-0.903c2.543-1.088,4.305-2.747,5.438-4.507
				l0.737,0.912C342.351,88.074,341.77,88.959,340.517,90.027z M338.637,86.305c-0.608-0.461-1.447-0.729-1.807-0.83l0.488-0.885
				c0.508,0.139,1.281,0.378,1.861,0.82L338.637,86.305z M341.447,86.064c-0.276-0.285-0.562-0.497-0.902-0.691l0.387-0.507
				c0.276,0.157,0.627,0.378,0.931,0.691L341.447,86.064z M342.388,85.318c-0.276-0.286-0.673-0.535-0.958-0.701l0.387-0.507
				c0.166,0.093,0.645,0.36,0.977,0.701L342.388,85.318z"/>
			<path fill="#EA5504" d="M348.107,88.977c0,0.359,0.02,1.503,0.02,1.816h-1.07c0.028-0.525,0.037-0.978,0.047-1.383
				c-0.351,0.175-1.309,0.654-1.309,1.3c0,0.599,0.709,0.719,1.383,0.719c0.792,0,1.575-0.12,2.35-0.295v1.041
				c-0.875,0.139-1.898,0.139-2.193,0.139c-0.516,0-1.586,0-2.166-0.618c-0.35-0.368-0.35-0.773-0.35-0.902
				c0-1.144,0.848-1.576,2.229-2.286c-0.056-0.276-0.165-0.608-0.7-0.608c-0.903,0-1.456,0.839-1.963,1.668l-0.903-0.562
				c0.728-0.783,1.188-1.438,1.815-2.535c-0.525,0.028-0.811,0.037-1.198,0.037l-0.11-0.958c0.553,0.046,0.959,0.064,1.76,0.036
				c0.23-0.497,0.351-0.819,0.461-1.226l1.152,0.203c0.027,0.009,0.185,0.027,0.185,0.092c0,0.056-0.037,0.083-0.093,0.102
				c-0.018,0.01-0.202,0.092-0.211,0.092c-0.01,0.01-0.24,0.525-0.286,0.627c0.848-0.138,1.263-0.258,1.806-0.47l-0.064,1.032
				c-0.829,0.193-1.584,0.276-2.202,0.35c-0.295,0.544-0.368,0.673-0.525,0.913c0.12-0.056,0.396-0.193,0.792-0.193
				c0.637,0,1.042,0.322,1.254,0.931c1.078-0.507,1.198-0.562,1.631-0.756l0.314,1.051C349.232,88.562,348.79,88.719,348.107,88.977
				z"/>
			<path fill="#EA5504" d="M353.91,88.931c-0.175,0.074-0.193,0.074-0.221,0.12c-0.24,0.47-0.729,1.4-1.613,2.58l-0.931-0.571
				c0.949-1.207,1.419-2.193,1.659-2.69l0.857,0.248c0.267,0.074,0.34,0.139,0.34,0.222
				C354.002,88.895,353.957,88.912,353.91,88.931z M355.634,87.815v3.687c0,0.756-0.783,0.783-1.843,0.82l-0.452-1.18
				c0.249,0.028,0.562,0.056,0.812,0.056c0.23,0,0.405-0.056,0.405-0.369v-3.014h-3.3v-1.022h7.732v1.022H355.634z M352.021,85.724
				V84.7h6.193v1.023H352.021z M357.957,91.604c-0.416-0.728-0.932-1.585-1.898-2.599l0.93-0.71
				c0.617,0.673,1.088,1.235,1.954,2.562L357.957,91.604z"/>
			<path fill="#EA5504" d="M364.672,86.646v1.29c0.102,0.221,0.268,0.544,0.268,1.124c0,0.268-0.056,0.949-0.471,1.779
				c-0.424,0.856-0.922,1.373-1.254,1.714l-1.031-0.534c0.553-0.359,1.115-0.839,1.317-1.512c-0.202,0.056-0.341,0.092-0.497,0.092
				c-0.24,0-0.525-0.083-0.756-0.285c-0.379-0.332-0.479-0.829-0.479-1.281c0-1.014,0.507-1.714,1.446-1.714
				c0.176,0,0.305,0.027,0.434,0.073l-0.018-0.691c-0.82,0.047-2.213,0.13-3.383,0.276v-1.068c0.627,0,1.419,0,3.354-0.093
				c-0.009-0.285-0.009-0.773-0.064-1.446l1.022,0.064c0.213,0.009,0.268,0.037,0.268,0.129c0,0.055-0.018,0.083-0.082,0.138
				c-0.065,0.056-0.074,0.074-0.074,0.111v0.949c1.281-0.074,1.566-0.102,2.506-0.176v0.996
				C366.479,86.581,365.869,86.6,364.672,86.646z M363.648,88.322c-0.092-0.092-0.221-0.129-0.341-0.129
				c-0.368,0-0.626,0.323-0.626,0.812c0,0.553,0.295,0.765,0.506,0.765c0.193,0,0.637-0.203,0.637-0.857
				C363.824,88.719,363.796,88.479,363.648,88.322z"/>
		</g>
	</g>
</g>
</svg>
