<?xml version="1.0" encoding="utf-8"?>
<!-- Generator: Adobe Illustrator 16.0.0, SVG Export Plug-In . SVG Version: 6.00 Build 0)  -->
<!DOCTYPE svg PUBLIC "-//W3C//DTD SVG 1.1//EN" "http://www.w3.org/Graphics/SVG/1.1/DTD/svg11.dtd">
<svg version="1.1" xmlns="http://www.w3.org/2000/svg" xmlns:xlink="http://www.w3.org/1999/xlink" x="0px" y="0px"
	 width="408.19px" height="126.5px" viewBox="0 0 408.19 126.5" enable-background="new 0 0 408.19 126.5" xml:space="preserve">
<g id="レイヤー_0">
</g>
<g id="レイヤー_1">
	<rect x="3.072" y="35.035" fill="#FFFFFF" stroke="#040000" stroke-miterlimit="10" width="248.904" height="59.145"/>
	
		<rect x="9.741" y="39.932" fill="none" stroke="#DB5434" stroke-width="1.4173" stroke-miterlimit="10" width="56.297" height="20.361"/>
	
		<rect x="190.309" y="40.242" fill="none" stroke="#DB5434" stroke-width="1.4173" stroke-miterlimit="10" width="55.056" height="18.499"/>
	
		<rect x="9.465" y="63.8" fill="none" stroke="#DB5434" stroke-width="1.4173" stroke-miterlimit="10" width="235.9" height="24.833"/>
	<g>
		<g>
			<path d="M16.75,45.053v10.347h6.559v1.786H14.44V45.053H16.75z"/>
			<path d="M36.645,51.119c0,3.772-2.479,6.405-6.051,6.405c-3.557,0-6.051-2.633-6.051-6.405c0-3.633,2.356-6.404,6.051-6.404
				C34.305,44.715,36.645,47.486,36.645,51.119z M26.915,51.119c0,3.356,1.986,4.449,3.68,4.449c1.54,0,3.695-0.924,3.695-4.449
				c0-3.387-2.017-4.449-3.695-4.449C28.962,46.67,26.915,47.686,26.915,51.119z"/>
			<path d="M49.812,50.857v6.328h-1.632l-0.108-1.555c-1.201,1.478-2.494,1.894-4.019,1.894c-3.941,0-6.112-2.726-6.112-6.39
				c0-3.973,2.448-6.42,6.082-6.42c4.48,0,5.45,3.295,5.743,4.279h-2.433c-0.646-2.094-2.433-2.324-3.356-2.324
				c-2.463,0-3.665,1.894-3.665,4.295c0,2.479,0.801,3.28,1.186,3.665c0.77,0.77,1.725,0.938,2.417,0.938
				c1.586,0,3.049-0.723,3.587-3.002h-3.063v-1.709H49.812z"/>
			<path d="M63.442,51.119c0,3.772-2.479,6.405-6.051,6.405c-3.557,0-6.051-2.633-6.051-6.405c0-3.633,2.356-6.404,6.051-6.404
				C61.102,44.715,63.442,47.486,63.442,51.119z M53.712,51.119c0,3.356,1.986,4.449,3.68,4.449c1.54,0,3.695-0.924,3.695-4.449
				c0-3.387-2.017-4.449-3.695-4.449C55.76,46.67,53.712,47.686,53.712,51.119z"/>
		</g>
		<g>
			
				<rect x="11.904" y="65.725" fill="none" stroke="#000000" stroke-width="0.5669" stroke-miterlimit="10" width="46.248" height="20.968"/>
			<g>
				<path d="M22.787,72.932v2.592h3.512v-2.592h1.214v6.422h-1.214v-2.885h-3.512v2.885h-1.222v-6.422H22.787z"/>
				<path d="M34.834,76.143c0,1.996-1.312,3.39-3.202,3.39c-1.882,0-3.202-1.394-3.202-3.39c0-1.923,1.247-3.39,3.202-3.39
					C33.596,72.753,34.834,74.22,34.834,76.143z M29.685,76.143c0,1.776,1.051,2.355,1.947,2.355c0.815,0,1.956-0.489,1.956-2.355
					c0-1.793-1.067-2.355-1.956-2.355C30.769,73.787,29.685,74.326,29.685,76.143z"/>
				<path d="M37.438,72.932l1.589,4.996l1.589-4.996h1.646v6.422H41.04v-5.053l-1.589,5.053h-0.847l-1.589-5.053v5.053h-1.214
					v-6.422H37.438z"/>
				<path d="M48.615,72.932v0.945h-3.887v1.72h3.447v0.945h-3.447v1.866h3.977v0.945h-5.199v-6.422H48.615z"/>
			</g>
			
				<rect x="58.152" y="65.725" fill="none" stroke="#000000" stroke-width="0.5669" stroke-miterlimit="10" width="46.248" height="20.968"/>
			<g>
				<path d="M68.035,73.845v0.767h-2.713v-0.767H68.035z M66.438,79.549v0.416h-0.872v-2.869h2.444v2.771h-0.831v-0.317H66.438z
					 M67.791,72.785v0.717h-2.062v-0.717H67.791z M67.791,74.953v0.701h-2.062v-0.701H67.791z M67.791,76.004v0.717h-2.062v-0.717
					H67.791z M67.179,78.815v-0.896h-0.741v0.896H67.179z M72.769,77.895v0.701h-0.407v0.464c0,0.888-0.644,0.888-1.353,0.88
					c-0.049-0.439-0.285-0.807-0.366-0.929c0.089,0.017,0.407,0.065,0.586,0.065c0.122,0,0.261,0,0.261-0.253v-0.228h-2.102v1.336
					h-0.864v-1.336h-0.383v-0.701h0.383v-1.906h1.475v-0.334h-1.963v-0.669h1.157v-0.391h-0.733v-0.538h0.733v-0.367h-1.035v-0.643
					h1.035v-0.506l0.88,0.033c0.057,0,0.171,0.008,0.171,0.09c0,0.057-0.082,0.105-0.163,0.138v0.245h0.758v-0.521l0.937,0.032
					c0.049,0,0.179,0.008,0.179,0.089c0,0.09-0.106,0.131-0.22,0.155v0.245h0.839v0.643h-0.839v0.367h0.619v0.538h-0.619v0.391
					h1.035v0.669h-1.931v0.334h1.524v1.906H72.769z M70.007,76.966v-0.358h-0.619v0.358H70.007z M70.007,77.895V77.52h-0.619v0.375
					H70.007z M70.08,73.689v0.367h0.758v-0.367H70.08z M70.08,74.595v0.391h0.758v-0.391H70.08z M71.49,76.966v-0.358h-0.66v0.358
					H71.49z M71.49,77.895V77.52h-0.66v0.375H71.49z"/>
				<path d="M77.354,74.398l0.97,0.041c0.049,0,0.138,0.008,0.138,0.09c0,0.065-0.057,0.105-0.138,0.163v1.548
					c0.228-0.367,0.644-1.156,0.75-1.842l0.904,0.311c0.082,0.023,0.114,0.049,0.114,0.098c0,0.057-0.041,0.073-0.147,0.105
					c-0.105,0.302-0.13,0.375-0.171,0.473c0.538,0.709,0.913,1.01,1.214,1.206c-0.252,0.228-0.464,0.464-0.619,0.758
					c-0.521-0.44-0.937-1.003-0.978-1.067c-0.253,0.497-0.399,0.692-0.546,0.904c-0.13-0.131-0.236-0.195-0.521-0.367v0.611h2.094
					v0.807h-2.094v0.686h2.55v0.855h-6.005v-0.855h2.485v-0.686h-2.078V77.43h2.078v-0.814c-0.261,0.221-0.383,0.399-0.457,0.506
					c-0.269-0.311-0.562-0.727-0.66-0.881c-0.302,0.636-0.505,0.904-0.636,1.06c-0.301-0.245-0.399-0.326-0.685-0.456
					c-0.016,0.529-0.065,1.694-0.766,3.178c-0.302-0.212-0.595-0.334-0.937-0.416c0.578-1.092,0.733-2.168,0.733-3.643v-2.64h2.754
					V72.5l1.067,0.025c0.073,0,0.122,0.016,0.122,0.089c0,0.05-0.073,0.106-0.179,0.163v0.546h3.137v0.872h-5.916v2.387
					c0.146-0.179,0.627-0.798,0.969-2.126l0.913,0.236c0.033,0.008,0.098,0.032,0.098,0.098c0,0.081-0.098,0.106-0.163,0.122
					c-0.049,0.146-0.057,0.18-0.122,0.367c0.138,0.203,0.375,0.545,0.725,0.953V74.398z"/>
				<path d="M85.833,79.973h-0.97v-1.475c-0.904,0.855-2.151,1.336-2.64,1.523c-0.285-0.48-0.399-0.604-0.627-0.758
					c0.513-0.139,1.442-0.392,2.387-1.125h-2.338v-0.741h3.218v-0.587l0.986,0.049c0.049,0,0.188,0.008,0.188,0.106
					c0,0.073-0.09,0.122-0.204,0.179v0.253h3.259v0.741h-2.534c1.026,0.726,1.833,0.938,2.428,1.084
					c-0.228,0.244-0.407,0.488-0.538,0.791c-0.301-0.099-1.564-0.514-2.616-1.443V79.973z M81.653,75.165v-0.718h2.379
					c0.188-0.236,0.383-0.521,0.473-0.668h-1.67v0.465H81.89v-1.182h2.917v-0.578l1.092,0.041c0.033,0,0.179,0.008,0.179,0.098
					c0,0.098-0.114,0.139-0.179,0.162v0.277h2.925v1.148H87.83v-0.432h-2.2c0.041,0.017,0.098,0.065,0.098,0.114
					c0,0.09-0.163,0.09-0.244,0.099c-0.098,0.146-0.188,0.26-0.342,0.455h3.952v0.718h-1.833c0.024,0.017,0.065,0.032,0.065,0.081
					c0,0.09-0.179,0.105-0.236,0.114c-0.146,0.171-0.31,0.334-0.48,0.481c0.986,0.285,1.532,0.537,1.874,0.708
					c-0.147,0.155-0.375,0.416-0.554,0.758c-0.457-0.261-1.116-0.636-2.126-0.929c-1.125,0.578-2.282,0.807-3.357,0.863
					c-0.114-0.391-0.138-0.473-0.375-0.807c1.687-0.064,2.159-0.244,2.493-0.357c-0.44-0.09-0.627-0.115-0.758-0.131
					c-0.114,0.098-0.139,0.122-0.22,0.188c-0.106-0.074-0.473-0.334-0.807-0.416c0.212-0.162,0.383-0.31,0.62-0.554H81.653z
					 M84.562,75.165c-0.057,0.065-0.098,0.114-0.261,0.285c0.399,0.04,0.782,0.106,1.198,0.171c0.098-0.057,0.351-0.22,0.579-0.456
					H84.562z"/>
				<path d="M96.936,73.805v5.264c0,0.391,0,0.912-1.1,0.912c-0.024,0-0.538-0.016-0.603-0.016c-0.057-0.506-0.123-0.66-0.367-1.093
					c0.211,0.05,0.644,0.09,0.741,0.09c0.13,0,0.302,0,0.302-0.343v-1.043c-0.123,0.09-0.383,0.311-0.627,0.701
					c-1.092-0.546-1.54-1.441-1.744-1.898c-0.416,0.848-1.148,1.67-1.825,2.078c-0.138-0.277-0.269-0.465-0.595-0.758v2.266h-1.035
					v-6.16h2.901v-1.32l1.083,0.057c0.041,0,0.179,0.008,0.179,0.105c0,0.09-0.089,0.131-0.212,0.164v0.896
					c0,0.023-0.008,0.072-0.008,0.098H96.936z M91.118,77.568c1.654-0.929,1.793-2.281,1.842-2.795h-1.842V77.568z M94.035,74.773
					c0.033,0.555,0.155,1.051,0.489,1.508c0.106,0.146,0.546,0.741,1.385,1.182v-2.689H94.035z"/>
			</g>
			
				<rect x="104.4" y="65.725" fill="none" stroke="#000000" stroke-width="0.5669" stroke-miterlimit="10" width="46.249" height="20.968"/>
			<g>
				<path d="M110.508,75.124l-2.086,0.277l-0.122-1.043l2.053-0.253l-0.196-1.353l1.108-0.146c0.041-0.009,0.163-0.024,0.163,0.073
					c0,0.064-0.049,0.114-0.123,0.171l0.163,1.108l1.947-0.244l0.114,1.01l-1.915,0.253l0.163,1.075l2.795-0.358l0.114,1.026
					l-2.762,0.359l0.383,2.623l-1.1,0.195l-0.391-2.672l-2.941,0.383l-0.13-1.043l2.917-0.367L110.508,75.124z M113.702,72.68
					c0.196,0.195,0.521,0.555,0.758,0.904c-0.089,0.065-0.48,0.391-0.562,0.457c-0.139-0.204-0.424-0.588-0.758-0.938L113.702,72.68
					z M114.476,72.215c0.228,0.213,0.505,0.506,0.766,0.823c-0.293,0.22-0.326,0.245-0.538,0.424
					c-0.057-0.073-0.383-0.513-0.725-0.855L114.476,72.215z"/>
				<path d="M117.977,74.057l0.961-0.114c0.074-0.008,0.171-0.024,0.171,0.081c0,0.058-0.057,0.099-0.114,0.147l0.236,1.222
					l2.11-0.415c0.146-0.032,0.293-0.106,0.391-0.212l0.685,0.514c-0.277,0.334-1.271,1.988-1.483,2.313
					c-0.302-0.187-0.774-0.383-0.905-0.44c0.082-0.105,0.261-0.357,0.457-0.635c0.13-0.195,0.285-0.424,0.351-0.538l-1.426,0.31
					l0.644,3.284l-0.938,0.22l-0.66-3.292l-1.719,0.375l-0.261-0.937l1.801-0.359L117.977,74.057z"/>
				<path d="M129.585,74.839c0.367,0,0.546-0.032,0.692-0.073l0.685,0.48c-0.139,0.261-0.717,1.418-0.848,1.646
					c-0.978,1.735-2.029,2.469-3.642,3.104c-0.212-0.342-0.48-0.635-0.758-0.896c1.247-0.399,2.819-1.084,3.65-3.251h-5.117v-1.011
					H129.585z M129.968,72.924v0.994h-4.709v-0.994H129.968z"/>
				<path d="M134.325,72.843c0.098,0.008,0.163,0.008,0.163,0.081c0,0.082-0.098,0.123-0.163,0.155v3.943h-1.141v-4.229
					L134.325,72.843z M138.105,72.695c0.122,0.009,0.163,0.033,0.163,0.074c0,0.105-0.106,0.139-0.163,0.162v2.641
					c0,2.722-1.589,3.707-3.162,4.367c-0.139-0.342-0.375-0.644-0.717-0.888c2.665-0.872,2.722-2.575,2.722-3.472v-2.941
					L138.105,72.695z"/>
				<path d="M147.351,75.687v1.157h-7.032v-1.157H147.351z"/>
			</g>
			
				<rect x="150.648" y="65.725" fill="none" stroke="#000000" stroke-width="0.5669" stroke-miterlimit="10" width="46.248" height="20.968"/>
			<g>
				<path d="M164.165,73.193c0.147,0,0.318-0.017,0.457-0.074l0.766,0.709c-0.098,0.114-0.13,0.164-0.293,0.408
					c-1.019,1.475-1.882,2.273-2.298,2.656c-0.18-0.229-0.391-0.473-0.799-0.766c0.831-0.693,1.214-1.068,1.76-1.883h-5.614v-1.051
					H164.165z M162.046,74.692c0.057,0,0.13,0.017,0.13,0.081c0,0.09-0.098,0.146-0.13,0.163c-0.032,0.848-0.163,1.735-0.416,2.396
					c-0.293,0.75-0.986,1.793-2.086,2.412c-0.367-0.326-0.546-0.465-0.961-0.725c1.214-0.686,2.437-1.605,2.282-4.4L162.046,74.692z
					"/>
				<path d="M171.812,73.812c0.269,0,0.416-0.057,0.562-0.123l0.586,0.514c-0.138,0.236-0.57,1.198-0.839,1.801
					c-1.271,2.828-3.276,3.765-3.903,4.059c-0.146-0.188-0.301-0.367-0.872-0.799c2.909-1.206,3.683-3.382,4.066-4.449h-2.265
					c-0.546,0.799-1.1,1.434-1.915,2.168c-0.367-0.383-0.48-0.506-0.847-0.75c0.864-0.709,2.11-1.947,2.729-3.667l1.002,0.481
					c0.041,0.016,0.114,0.049,0.114,0.121c0,0.082-0.146,0.106-0.195,0.106c-0.098,0.196-0.163,0.317-0.277,0.538H171.812z"/>
				<path d="M176.381,72.736l1.125,0.058c0.082,0.008,0.163,0.008,0.163,0.089c0,0.082-0.098,0.123-0.163,0.139v1.842l2.672-0.334
					c0.351-0.041,0.505-0.114,0.587-0.146l0.725,0.66c-0.293,0.334-0.367,0.432-1.002,1.303c-0.424,0.596-0.742,0.994-0.986,1.288
					c-0.383-0.302-0.807-0.505-0.945-0.579c0.44-0.406,0.88-0.92,1.198-1.417l-2.249,0.285v1.898c0,0.636,0.122,0.774,0.97,0.774
					c0.627,0,1.972-0.033,2.575-0.139c-0.065,0.301-0.122,0.773-0.122,1.133c-0.326,0.008-2.551,0.023-2.689,0.023
					c-1.557,0-1.858-0.496-1.858-1.646v-1.898l-1.874,0.245l-0.098-1.068l1.972-0.244V72.736z"/>
				<path d="M183.182,74.162v-1.034h4.139c0.13,0,0.432-0.017,0.562-0.065l0.554,0.595c-0.163,0.212-0.252,0.399-0.31,0.521
					c-0.342,0.799-0.529,1.23-1.051,2.078c0.619,0.464,1.898,1.572,2.542,2.354c-0.285,0.311-0.742,0.814-0.839,0.93
					c-0.44-0.611-1.116-1.5-2.314-2.429c-0.562,0.709-1.882,1.956-3.259,2.542c-0.252-0.439-0.391-0.627-0.774-0.953
					c0.489-0.171,1.678-0.611,2.884-1.906c0.88-0.938,1.189-1.703,1.54-2.633H183.182z"/>
			</g>
			
				<rect x="196.896" y="65.725" fill="none" stroke="#000000" stroke-width="0.5669" stroke-miterlimit="10" width="46.248" height="20.968"/>
			<g>
				<path d="M201.289,72.695c0.095,0.018,0.154,0.025,0.154,0.115c0,0.081-0.081,0.105-0.132,0.121
					c-0.044,0.562-0.051,0.815-0.059,0.979c0.712-0.163,0.983-0.285,1.255-0.424c-0.015,0.799-0.015,0.889,0.007,1.116
					c-0.616,0.245-1.16,0.351-1.299,0.375c0,0.13-0.007,0.692-0.015,0.815c0.646-0.277,1.13-0.294,1.313-0.294
					c0.998,0,2.004,0.668,2.004,2.094c0,1.401-0.917,1.948-1.651,1.948c-1.108,0-1.138-1.117-1.145-1.41
					c0.139-0.049,0.616-0.221,0.792-0.293c0,0.22-0.007,0.668,0.44,0.668c0.367,0,0.595-0.392,0.595-0.872
					c0-0.611-0.375-1.165-1.094-1.165c-0.558,0-1.094,0.277-1.255,0.358c0.029,1.694,0.037,1.882,0.095,2.559l-0.837,0.424
					c-0.477-0.53-0.836-0.831-1.365-1.255c-0.154,0.171-0.235,0.269-0.382,0.456l-0.44-1.182c0.338-0.204,1.673-1.328,1.975-1.523
					c-0.008-0.399-0.008-0.799-0.008-1.198c-0.462,0.041-1.035,0.049-1.431,0.049l-0.007-1.1c0.154,0.024,0.272,0.041,0.565,0.041
					c0.323,0,0.763-0.033,0.873-0.041c0-0.375-0.015-1.157-0.022-1.564L201.289,72.695z M199.66,77.951
					c0.066,0.058,0.462,0.392,0.536,0.392c0.052,0,0.059-0.098,0.059-0.179v-0.727C200.042,77.602,199.873,77.74,199.66,77.951z
					 M203.557,73.674c0.536,0.31,1.21,0.831,1.599,1.312c-0.293,0.343-0.402,0.489-0.615,0.839
					c-0.383-0.488-0.903-0.977-1.557-1.287L203.557,73.674z"/>
				<path d="M208.715,72.672v2.941h-1.93v4.343h-0.896v-7.284H208.715z M207.908,73.82v-0.448h-1.123v0.448H207.908z
					 M206.785,74.464v0.448h1.123v-0.448H206.785z M208.422,79.247h-0.859v-3.088h2.863v2.444h-2.004V79.247z M209.566,77.838
					v-0.913h-1.145v0.913H209.566z M212.121,72.672v6.38c0,0.896-0.727,0.904-1.064,0.904c-0.117,0-0.176-0.009-0.279-0.024
					c-0.037-0.277-0.088-0.546-0.374-1.092c0.271,0.073,0.491,0.09,0.579,0.09c0.141,0,0.242-0.008,0.242-0.277v-3.039h-1.938
					v-2.941H212.121z M211.225,73.82v-0.448h-1.13v0.448H211.225z M210.095,74.464v0.448h1.13v-0.448H210.095z"/>
				<path d="M214.578,73.332c0.117,0.04,0.154,0.057,0.154,0.13c0,0.098-0.104,0.114-0.154,0.122
					c-0.257,0.791-0.389,1.613-0.389,2.453c0,1.148,0.367,1.972,0.631,1.972c0.271,0,0.609-0.905,0.785-1.36
					c0.125,0.179,0.33,0.473,0.66,0.725c-0.543,1.482-1.145,2.094-1.541,2.094c-0.484,0-1.504-1.059-1.504-3.512
					c0-1.002,0.154-1.939,0.345-2.949L214.578,73.332z M218.227,73.438c0.998,1.499,1.371,2.934,1.467,4.131
					c-0.154,0.057-0.322,0.131-1.02,0.506c-0.088-1.785-0.58-3.016-1.263-4.066L218.227,73.438z"/>
				<path d="M225.352,75.865h-3.325v-0.488c-0.507,0.447-0.91,0.717-1.284,0.938c-0.199-0.375-0.301-0.498-0.646-0.864
					c1.989-0.913,2.818-2.51,3.068-2.991l1.078,0.09c0.045,0,0.147,0.009,0.147,0.098c0,0.058-0.073,0.106-0.154,0.155
					c0.47,0.855,1.915,2.028,3.067,2.51c-0.234,0.236-0.477,0.562-0.594,0.888c-0.346-0.188-0.705-0.406-1.357-0.92V75.865z
					 M222.334,79.564v0.392h-0.902v-3.438h4.499v3.438h-0.91v-0.392H222.334z M225.021,78.668v-1.262h-2.687v1.262H225.021z
					 M224.984,74.985c-0.617-0.521-0.903-0.847-1.329-1.442c-0.491,0.668-0.667,0.904-1.211,1.442H224.984z"/>
				<path d="M230.884,74.269c-0.015,0.017-0.265,0.343-0.382,0.619c0.683-0.497,1.256-0.587,1.645-0.587
					c0.807,0,2.062,0.489,2.062,2.314c0,2.469-2.254,2.836-2.805,2.926c-0.153-0.473-0.293-0.709-0.506-1.003
					c0.998-0.073,2.349-0.432,2.349-1.866c0-0.929-0.565-1.385-1.204-1.385c-0.836,0-1.592,0.636-1.922,0.953
					c0,2.566,0,2.852,0.007,3.553l-1.035,0.09c0.037-0.701,0.037-0.889,0.073-2.453c-0.125,0.18-0.646,1.011-0.764,1.166
					l-0.719-0.783c0.624-0.725,1.227-1.604,1.541-2.256v-0.352c-0.477,0.221-0.932,0.352-1.188,0.433l-0.177-1.165
					c0.617-0.049,1.16-0.195,1.395-0.27c0-0.773-0.007-0.863-0.036-1.662l0.962,0.073c0.125,0.009,0.22,0.017,0.22,0.114
					s-0.081,0.105-0.161,0.122c-0.022,0.188-0.037,0.351-0.074,0.986c0.066-0.032,0.11-0.058,0.25-0.139L230.884,74.269z"/>
				<path d="M240.159,72.794c0.118,0.017,0.154,0.04,0.154,0.105c0,0.09-0.081,0.114-0.125,0.131c0,0.024,0.029,1.296,0.029,1.417
					c0.829-0.13,0.917-0.146,1.432-0.195v1.141c-0.103-0.008-0.198-0.016-0.353-0.016c-0.359,0-0.793,0.049-1.057,0.081
					c0,2.151-0.242,2.314-1.732,2.298c-0.044-0.35-0.205-0.88-0.25-1.026c0.162,0.024,0.309,0.04,0.448,0.04
					c0.507,0,0.514-0.121,0.572-1.173c-0.55,0.098-1.115,0.22-1.673,0.343c-0.016,0.383-0.037,1.792,0.066,2.167
					c0.131,0.473,0.66,0.513,1.152,0.513c0.212,0,1.225,0,2.377-0.334c-0.073,0.351-0.109,0.652-0.132,1.141
					c-0.983,0.18-2.386,0.196-2.415,0.196c-0.888,0-1.644-0.212-1.871-1.133c-0.11-0.456-0.104-1.067-0.088-2.347
					c-0.918,0.212-0.969,0.229-1.476,0.375l-0.088-1.223c0.44-0.016,1.094-0.13,1.534-0.229c0-0.455-0.016-1.482-0.074-1.931
					l1.08,0.147c0.102,0.016,0.189,0.023,0.189,0.121c0,0.082-0.109,0.123-0.153,0.131c-0.015,0.221-0.059,1.157-0.065,1.353
					c0.402-0.073,0.924-0.171,1.621-0.285c-0.015-0.66-0.029-1.328-0.168-1.979L240.159,72.794z"/>
			</g>
		</g>
		<rect x="192.796" y="42.523" fill="#FFFFFF" width="50.349" height="13.543"/>
		
			<rect x="192.796" y="42.523" fill="none" stroke="#040000" stroke-width="0.5669" stroke-miterlimit="10" width="50.349" height="13.543"/>
		<g>
			<path fill="#040000" d="M200.006,46.25c0.094,0.015,0.152,0.021,0.152,0.102c0,0.072-0.08,0.094-0.13,0.109
				c-0.043,0.5-0.051,0.725-0.058,0.869c0.703-0.145,0.971-0.254,1.239-0.377c-0.014,0.711-0.014,0.79,0.007,0.993
				c-0.609,0.218-1.145,0.312-1.283,0.333c0,0.116-0.007,0.617-0.015,0.725c0.638-0.246,1.116-0.26,1.297-0.26
				c0.986,0,1.979,0.594,1.979,1.862c0,1.247-0.906,1.731-1.63,1.731c-1.095,0-1.124-0.992-1.131-1.254
				c0.138-0.043,0.609-0.195,0.783-0.26c0,0.195-0.007,0.594,0.435,0.594c0.362,0,0.587-0.348,0.587-0.775
				c0-0.543-0.37-1.037-1.08-1.037c-0.551,0-1.08,0.247-1.239,0.319c0.029,1.508,0.036,1.675,0.094,2.276l-0.826,0.377
				c-0.471-0.472-0.826-0.74-1.348-1.117c-0.152,0.152-0.232,0.24-0.377,0.406l-0.435-1.051c0.333-0.182,1.653-1.182,1.95-1.355
				c-0.007-0.355-0.007-0.71-0.007-1.065c-0.457,0.036-1.022,0.044-1.414,0.044l-0.007-0.979c0.152,0.021,0.268,0.036,0.558,0.036
				c0.319,0,0.754-0.029,0.863-0.036c0-0.334-0.015-1.029-0.022-1.392L200.006,46.25z M198.397,50.926
				c0.065,0.051,0.457,0.348,0.529,0.348c0.051,0,0.058-0.088,0.058-0.16v-0.645C198.774,50.613,198.607,50.736,198.397,50.926z
				 M202.246,47.12c0.529,0.275,1.196,0.739,1.58,1.167c-0.29,0.305-0.399,0.435-0.609,0.746c-0.377-0.435-0.892-0.869-1.537-1.145
				L202.246,47.12z"/>
			<path fill="#040000" d="M207.34,46.229v2.617h-1.906v3.862h-0.884v-6.479H207.34z M206.543,47.25v-0.398h-1.109v0.398H206.543z
				 M205.434,47.823v0.398h1.109v-0.398H205.434z M207.051,52.078h-0.848V49.33h2.826v2.175h-1.979V52.078z M208.182,50.824v-0.812
				h-1.131v0.812H208.182z M210.703,46.229v5.676c0,0.797-0.717,0.804-1.051,0.804c-0.115,0-0.174-0.007-0.275-0.021
				c-0.036-0.247-0.087-0.485-0.369-0.972c0.268,0.065,0.485,0.08,0.572,0.08c0.138,0,0.239-0.008,0.239-0.246v-2.703h-1.913v-2.617
				H210.703z M209.819,47.25v-0.398h-1.116v0.398H209.819z M208.703,47.823v0.398h1.116v-0.398H208.703z"/>
			<path fill="#040000" d="M213.131,46.815c0.116,0.036,0.152,0.051,0.152,0.116c0,0.087-0.102,0.102-0.152,0.109
				c-0.254,0.702-0.384,1.435-0.384,2.182c0,1.021,0.362,1.754,0.624,1.754c0.268,0,0.602-0.805,0.775-1.211
				c0.123,0.159,0.326,0.42,0.652,0.645c-0.537,1.32-1.131,1.863-1.522,1.863c-0.479,0-1.485-0.942-1.485-3.124
				c0-0.892,0.151-1.726,0.34-2.624L213.131,46.815z M216.733,46.91c0.985,1.334,1.355,2.609,1.45,3.674
				c-0.152,0.051-0.319,0.117-1.008,0.45c-0.088-1.587-0.572-2.683-1.247-3.617L216.733,46.91z"/>
			<path fill="#040000" d="M223.771,49.07h-3.284v-0.436c-0.5,0.398-0.898,0.638-1.269,0.834c-0.195-0.334-0.297-0.442-0.638-0.769
				c1.964-0.812,2.783-2.232,3.03-2.66l1.064,0.079c0.044,0,0.146,0.008,0.146,0.088c0,0.051-0.072,0.094-0.152,0.138
				c0.464,0.761,1.892,1.805,3.03,2.232c-0.232,0.21-0.472,0.5-0.588,0.79c-0.34-0.167-0.695-0.363-1.34-0.819V49.07z
				 M220.792,52.36v0.348H219.9v-3.059h4.443v3.059h-0.898V52.36H220.792z M223.445,51.562v-1.123h-2.653v1.123H223.445z
				 M223.408,48.287c-0.608-0.464-0.891-0.754-1.312-1.283c-0.485,0.595-0.659,0.805-1.196,1.283H223.408z"/>
			<path fill="#040000" d="M229.17,47.649c-0.015,0.015-0.261,0.304-0.377,0.551c0.674-0.442,1.239-0.522,1.623-0.522
				c0.798,0,2.037,0.436,2.037,2.059c0,2.196-2.225,2.522-2.769,2.602c-0.152-0.42-0.29-0.63-0.5-0.891
				c0.985-0.065,2.319-0.385,2.319-1.66c0-0.826-0.559-1.232-1.189-1.232c-0.826,0-1.572,0.566-1.898,0.849
				c0,2.282,0,2.536,0.008,3.16l-1.022,0.079c0.036-0.623,0.036-0.789,0.073-2.182c-0.124,0.16-0.639,0.899-0.754,1.037
				l-0.711-0.695c0.616-0.646,1.211-1.429,1.521-2.008v-0.312c-0.471,0.195-0.92,0.312-1.174,0.385l-0.174-1.037
				c0.609-0.043,1.146-0.174,1.377-0.238c0-0.689-0.007-0.77-0.036-1.479l0.95,0.064c0.123,0.008,0.217,0.015,0.217,0.102
				s-0.08,0.094-0.159,0.109c-0.022,0.166-0.036,0.311-0.073,0.877c0.066-0.029,0.109-0.051,0.247-0.124L229.17,47.649z"/>
			<path fill="#040000" d="M238.331,46.338c0.116,0.014,0.151,0.035,0.151,0.094c0,0.08-0.079,0.102-0.123,0.115
				c0,0.022,0.029,1.152,0.029,1.262c0.819-0.115,0.906-0.131,1.414-0.174v1.015c-0.102-0.007-0.196-0.015-0.348-0.015
				c-0.355,0-0.783,0.043-1.045,0.072c0,1.914-0.238,2.059-1.71,2.045c-0.044-0.312-0.203-0.783-0.247-0.914
				c0.16,0.021,0.305,0.037,0.443,0.037c0.5,0,0.507-0.109,0.564-1.045c-0.543,0.088-1.102,0.196-1.652,0.305
				c-0.015,0.341-0.036,1.595,0.065,1.928c0.13,0.421,0.652,0.457,1.138,0.457c0.211,0,1.211,0,2.349-0.297
				c-0.073,0.312-0.108,0.58-0.131,1.015c-0.972,0.159-2.355,0.174-2.384,0.174c-0.877,0-1.624-0.188-1.849-1.007
				c-0.108-0.406-0.102-0.95-0.087-2.088c-0.906,0.188-0.957,0.203-1.457,0.333l-0.087-1.087c0.435-0.015,1.08-0.116,1.515-0.203
				c0-0.406-0.015-1.318-0.072-1.718l1.065,0.13c0.102,0.016,0.188,0.022,0.188,0.109c0,0.072-0.109,0.109-0.152,0.116
				c-0.015,0.195-0.059,1.028-0.065,1.203c0.399-0.065,0.913-0.152,1.603-0.254c-0.016-0.587-0.029-1.181-0.168-1.761
				L238.331,46.338z"/>
		</g>
	</g>
</g>
<g id="レイヤー_2">
	<g>
		<g>
			<rect x="6.387" y="3.06" fill="#FFFFFF" width="26.772" height="15.96"/>
		</g>
		<g>
			<rect x="6.387" y="3.06" fill="none" stroke="#EA5504" stroke-width="2.8347" width="26.772" height="15.96"/>
		</g>
		<g>
			<path fill="#EA5504" d="M17.347,15.618v-0.396h-4.193v0.36h-1.097V9.554h6.387v6.064H17.347z M17.347,10.596h-4.193v3.585h4.193
				V10.596z"/>
			<path fill="#EA5504" d="M25.104,15.379v-0.341h-4.839v-0.996h4.839v-3.234h-4.802V9.794H26.2v5.585H25.104z M25.767,9.535
				c-0.258-0.258-0.553-0.516-0.875-0.746l0.424-0.434c0.276,0.203,0.571,0.443,0.894,0.756L25.767,9.535z M27.048,9.425
				c-0.304-0.359-0.571-0.673-0.829-0.866l0.442-0.396c0.396,0.332,0.617,0.571,0.829,0.839L27.048,9.425z"/>
		</g>
	</g>
	<g>
		<g>
			<rect x="87.322" y="106.958" fill="#FFFFFF" width="107.381" height="16.845"/>
		</g>
		<g>
			<rect x="87.322" y="106.958" fill="none" stroke="#EA5504" stroke-width="2.8347" width="107.381" height="16.845"/>
		</g>
		<g>
			<path fill="#EA5504" d="M99.001,115.13c-0.313,0.83-0.654,1.77-1.567,2.912c-0.977,1.227-1.981,1.853-2.525,2.194l-1.014-0.72
				c0.562-0.285,1.807-0.902,2.958-2.442c0.774-1.041,1.042-1.889,1.18-2.312h-2.359c-0.535,0.756-0.94,1.226-1.77,2.027
				l-0.913-0.654c1.309-1.051,2.23-2.387,2.627-3.558l0.921,0.415c0.074,0.036,0.24,0.11,0.24,0.193
				c0,0.055-0.055,0.073-0.212,0.129c-0.102,0.12-0.212,0.359-0.313,0.507h2.064c0.092,0,0.221-0.027,0.396-0.138l0.774,0.902
				C99.194,114.798,99.047,115.001,99.001,115.13z M98.54,113.397c-0.24-0.304-0.47-0.525-0.802-0.765l0.479-0.378
				c0.313,0.23,0.562,0.461,0.792,0.765L98.54,113.397z M99.858,113.397c-0.166-0.23-0.442-0.608-0.82-0.894l0.47-0.378
				c0.313,0.229,0.608,0.59,0.82,0.894L99.858,113.397z"/>
			<path fill="#EA5504" d="M106.767,119.618v-0.396h-4.193v0.36h-1.097v-6.028h6.387v6.064H106.767z M106.767,114.596h-4.193v3.585
				h4.193V114.596z"/>
			<path fill="#EA5504" d="M109.473,117.028v-1.17h6.553v1.17H109.473z"/>
			<path fill="#EA5504" d="M120.511,114.291c-0.111,0.074-0.147,0.093-0.175,0.12c-0.037,0.046-0.166,0.617-0.203,0.737
				c-0.636,2.147-1.475,3.364-2.009,4.11l-1.189-0.497c1.3-1.337,2.064-3.42,2.332-4.978l1.115,0.249
				c0.092,0.019,0.221,0.064,0.221,0.147C120.603,114.227,120.557,114.255,120.511,114.291z M124.041,118.937
				c-0.387-1.761-1.253-3.456-2.175-4.663l0.967-0.544c0.774,1.032,1.742,2.719,2.35,4.682L124.041,118.937z M124.114,114.033
				c-0.212-0.313-0.461-0.58-0.756-0.829l0.489-0.405c0.295,0.248,0.543,0.507,0.765,0.838L124.114,114.033z M125.045,113.352
				c-0.239-0.359-0.645-0.701-0.829-0.857l0.488-0.405c0.286,0.239,0.562,0.544,0.811,0.866L125.045,113.352z"/>
			<path fill="#EA5504" d="M129.106,113.738c-0.064,0.056-0.064,0.074-0.064,0.12c0,1.724,0,1.861-0.046,2.267
				c-0.221,1.908-1.318,2.812-1.991,3.346l-1.023-0.746c0.885-0.517,1.972-1.3,1.972-3.595c0-0.856-0.064-1.465-0.101-1.741
				l1.115,0.073c0.166,0.009,0.267,0.037,0.267,0.139C129.235,113.637,129.216,113.646,129.106,113.738z M130.811,119.48
				l-0.784-0.608v-5.595l1.069,0.129c0.083,0.01,0.258,0.028,0.258,0.12c0,0.037-0.018,0.064-0.101,0.139
				c0,0.009-0.111,0.101-0.111,0.11v4.027c0.792-0.434,1.843-1.465,2.433-2.359l0.627,0.931
				C133.299,117.591,131.917,118.862,130.811,119.48z"/>
			<path fill="#EA5504" d="M139.59,115.738c-0.268,2.451-0.959,3.447-2.949,4.617l-0.94-0.912c1.76-0.848,2.479-1.631,2.756-3.705
				h-3.346v-1.069h3.419c0.019-0.673,0-1.456-0.083-2.055l1.235,0.147c0.129,0.019,0.276,0.046,0.276,0.138
				c0,0.046-0.221,0.212-0.258,0.268c-0.019,0.027-0.019,0.073-0.019,0.451c0,0.019-0.009,0.572-0.019,1.051h2.784v1.069H139.59z"/>
			<path fill="#EA5504" d="M147.024,119.913c-2.709,0-3.05-0.461-3.05-1.446v-5.659l1.014,0.147
				c0.184,0.027,0.276,0.092,0.276,0.147c0,0.046-0.055,0.092-0.092,0.129c-0.101,0.074-0.11,0.102-0.11,0.12v2.221
				c0.673-0.119,1.143-0.193,2.175-0.59c0.811-0.304,1.106-0.488,1.54-0.746l0.765,0.765c0.009,0.009,0.138,0.139,0.138,0.212
				c0,0.01,0,0.074-0.083,0.074c-0.027,0-0.203-0.037-0.249-0.037c-0.046,0-1.143,0.461-1.364,0.534
				c-1.475,0.507-2.313,0.683-2.921,0.802v1.456c0,0.535,0.055,0.82,1.594,0.82c1.336,0,2.452-0.165,3.042-0.258v1.198
				C149.255,119.83,148.259,119.913,147.024,119.913z M149.495,113.969c-0.258-0.285-0.553-0.534-0.875-0.765l0.46-0.415
				c0.341,0.239,0.627,0.488,0.885,0.765L149.495,113.969z M150.37,113.24c-0.267-0.304-0.544-0.534-0.875-0.765l0.47-0.415
				c0.323,0.222,0.618,0.479,0.876,0.756L150.37,113.24z"/>
			<path fill="#EA5504" d="M156.698,115.397c-0.157,2.368-0.83,3.631-2.571,4.995l-1.087-0.673c0.451-0.268,1.345-0.802,1.972-2
				c0.535-1.005,0.543-1.834,0.553-2.322h-1.88c-0.452,0.71-0.792,1.188-1.419,1.788l-1.042-0.581
				c1.318-1.161,2.203-2.82,2.571-4.295l1.042,0.378c0.074,0.028,0.23,0.102,0.23,0.185c0,0.056-0.083,0.083-0.129,0.102
				c-0.12,0.046-0.129,0.073-0.157,0.156c-0.221,0.608-0.424,1.005-0.525,1.217h4.654v1.051H156.698z M157.887,113.913
				c-0.129-0.184-0.396-0.58-0.737-0.894l0.479-0.387c0.351,0.322,0.572,0.636,0.756,0.902L157.887,113.913z M159.021,113.591
				c-0.194-0.332-0.396-0.608-0.691-0.875l0.479-0.396c0.341,0.313,0.608,0.737,0.71,0.903L159.021,113.591z"/>
			<path fill="#EA5504" d="M159.985,117.028v-1.17h6.553v1.17H159.985z"/>
			<path fill="#EA5504" d="M169.382,116.503c-0.433-0.295-1.005-0.654-1.788-0.894l0.525-0.922c0.691,0.212,1.281,0.517,1.834,0.949
				L169.382,116.503z M172.166,118.144c-1.263,1.061-2.322,1.585-3.161,1.991c-0.037,0.019-0.055,0.046-0.074,0.102
				c-0.037,0.129-0.055,0.165-0.092,0.165c-0.092,0-0.193-0.175-0.23-0.248l-0.488-0.885c2.322-0.959,3.954-2.166,5.502-4.415
				l0.728,0.885C174,116.245,173.382,117.121,172.166,118.144z M170.377,114.402c-0.543-0.406-1.133-0.691-1.788-0.895l0.525-0.922
				c0.701,0.213,1.281,0.517,1.788,0.895L170.377,114.402z"/>
			<path fill="#EA5504" d="M179.582,120.079v-0.322h-3.853v-0.793h3.853v-1.217h-3.724v-0.802h3.724v-1.216h-3.797v-0.793h4.682
				v5.143H179.582z"/>
			<path fill="#EA5504" d="M184.039,115.065c-0.525-0.433-1.152-0.829-1.889-1.161l0.562-0.866c0.608,0.268,1.355,0.663,1.936,1.143
				L184.039,115.065z M186.739,117.572c-1.456,1.18-2.332,1.566-3.475,2.056c-0.046,0.129-0.064,0.285-0.138,0.285
				c-0.055,0-0.138-0.055-0.203-0.175l-0.645-1.106c0.737-0.175,1.944-0.488,3.419-1.594c1.41-1.051,2.295-2.268,2.701-2.82
				l0.636,0.922C188.675,115.618,187.956,116.586,186.739,117.572z"/>
		</g>
	</g>
	<g>
		<g>
			<rect x="164.312" y="2.94" fill="#FFFFFF" width="87.251" height="16.899"/>
		</g>
		<g>
			<rect x="164.312" y="2.94" fill="none" stroke="#EA5504" stroke-width="2.8347" width="87.251" height="16.899"/>
		</g>
		<g>
			<path fill="#EA5504" d="M169.981,13.941c1.512-0.978,1.687-1.079,2.304-1.41l-0.009-1.189c-0.553,0.056-0.885,0.064-1.401,0.046
				l-0.138-1.041c0.258,0.027,0.479,0.046,0.903,0.046c0.23,0,0.369-0.009,0.636-0.027c-0.009-1.042-0.009-1.125-0.019-1.724
				l1.023,0.139c0.258,0.036,0.258,0.101,0.258,0.147c0,0.036-0.138,0.147-0.157,0.175c-0.037,0.056-0.064,0.958-0.074,1.134
				c0.59-0.129,0.903-0.24,1.419-0.479v1.051c-0.581,0.221-1.014,0.313-1.438,0.396l-0.009,0.912
				c0.267-0.073,0.765-0.212,1.419-0.212c1.429,0,2.221,0.949,2.221,2.102c0,1.133-0.737,2.027-1.723,2.027
				c-1.014,0-1.143-0.636-1.272-1.309l0.857-0.341c0.111,0.378,0.185,0.617,0.47,0.617c0.332,0,0.709-0.332,0.709-0.977
				c0-0.618-0.442-1.227-1.281-1.227c-0.544,0-1.079,0.203-1.401,0.323c-0.009,1.465-0.009,1.631-0.019,2.756l-0.977,0.387
				c-0.396-0.424-0.626-0.673-1.465-1.558c-0.129,0.12-0.147,0.129-0.276,0.268L169.981,13.941z M172.286,13.618
				c-0.258,0.157-0.452,0.276-0.838,0.562c0.295,0.368,0.672,0.719,0.838,0.866V13.618z M177.023,11.969
				c-0.415-0.359-0.894-0.71-1.816-1.051l0.599-0.811c0.756,0.276,1.364,0.69,1.816,1.041L177.023,11.969z"/>
			<path fill="#EA5504" d="M179.904,11.812v4.599h-1.023V8.679h3.382v3.134H179.904z M181.268,9.397h-1.364v0.488h1.364V9.397z
				 M181.268,10.586h-1.364v0.507h1.364V10.586z M181.876,15.02v0.433h-1.023v-3.068h3.484v2.636H181.876z M183.314,13.204h-1.438
				v0.995h1.438V13.204z M185.443,16.438h-0.461l-0.479-1.069c0.276,0.028,0.405,0.037,0.553,0.037c0.212,0,0.304-0.092,0.304-0.359
				v-3.234h-2.341V8.679h3.336v6.811C186.355,16.153,186.18,16.438,185.443,16.438z M185.36,9.397h-1.336v0.488h1.336V9.397z
				 M185.36,10.586h-1.336v0.507h1.336V10.586z"/>
			<path fill="#EA5504" d="M189.642,15.526c-0.295,0-0.525-0.157-0.682-0.305c-0.645-0.626-0.94-1.704-0.94-3.456
				c0-1.18,0.129-1.778,0.276-2.396l1.014,0.276c0.064,0.019,0.212,0.064,0.212,0.175c0,0.102-0.11,0.139-0.267,0.193
				c-0.102,0.507-0.175,1.042-0.175,2.056c0,1.797,0.442,2.129,0.627,2.129c0.332,0,0.709-0.977,0.885-1.42l0.765,0.683
				C190.849,14.549,190.389,15.526,189.642,15.526z M194.314,13.886c-0.267-1.917-0.875-3.005-1.354-3.742l0.949-0.46
				c0.442,0.626,1.263,1.787,1.511,3.916L194.314,13.886z"/>
			<path fill="#EA5504" d="M204.089,12.282c-0.581-0.239-1.051-0.47-1.742-0.949v0.746h-3.705v-0.571
				c-0.83,0.6-1.318,0.812-1.641,0.959l-0.774-0.784c1.17-0.524,2.857-1.529,3.815-3.299l1.078,0.212
				c0.083,0.019,0.129,0.073,0.129,0.102c0,0.036-0.083,0.11-0.138,0.147c0.212,0.285,0.608,0.848,1.456,1.446
				c0.977,0.683,1.861,0.94,2.312,1.069L204.089,12.282z M202.2,16.337v-0.276h-3.336v0.313h-1.004v-3.576h5.382v3.539H202.2z
				 M202.2,13.701h-3.336v1.41h3.336V13.701z M200.504,9.609c-0.212,0.313-0.535,0.793-1.383,1.53h2.958
				C201.619,10.771,201.149,10.384,200.504,9.609z"/>
			<path fill="#EA5504" d="M210.463,16.033l-0.729-0.931c0.314-0.056,0.876-0.166,1.484-0.729c0.295-0.267,0.737-0.811,0.737-1.438
				c0-0.885-0.71-1.438-1.456-1.438c-0.627,0-1.392,0.35-2.102,1.078l-0.01,0.839c-0.009,1.244,0.037,2.027,0.056,2.682
				l-1.097,0.092c0.056-1.014,0.074-1.373,0.102-2.442c-0.295,0.415-0.461,0.664-0.746,1.125l-0.904-0.673
				c0.443-0.517,0.572-0.691,1.678-2.258l0.019-0.627c-0.728,0.268-0.949,0.351-1.244,0.488l-0.166-1.198
				c0.351-0.064,0.72-0.138,1.429-0.313c0.01-0.663,0.019-1.151-0.019-1.631l0.986,0.092c0.083,0.01,0.249,0.028,0.249,0.111
				c0,0.046-0.156,0.175-0.185,0.212c-0.056,0.055-0.083,0.543-0.064,0.939l0.286-0.102l0.57,0.498
				c-0.258,0.359-0.368,0.562-0.451,0.7c0.268-0.166,0.922-0.58,1.761-0.58c1.069,0,2.378,0.792,2.378,2.387
				C213.025,15.139,211.136,15.803,210.463,16.033z"/>
			<path fill="#EA5504" d="M220.117,11.683c-0.045,1.088-0.064,1.364-0.156,1.622c-0.139,0.388-0.434,0.59-1.124,0.59
				c-0.239,0-0.442-0.018-0.534-0.036l-0.23-0.968c0.138,0.027,0.267,0.064,0.543,0.064c0.562,0,0.59-0.166,0.59-1.171
				c-0.977,0.12-1.133,0.147-1.963,0.259c-0.019,0.921-0.019,1.475-0.019,1.529c0,1.051,0.166,1.318,1.53,1.318
				c1.234,0,1.944-0.203,2.368-0.323l-0.083,1.106c-0.405,0.046-1.234,0.138-2.47,0.138c-2.073,0-2.322-0.645-2.331-2.359
				l-0.01-1.263c-0.737,0.111-0.83,0.12-1.659,0.249l-0.036-1.014c0.728-0.064,1.004-0.092,1.695-0.166
				c0-0.378-0.01-1.327-0.055-1.972l1.041,0.138c0.193,0.028,0.312,0.037,0.312,0.157c0,0.046-0.018,0.055-0.156,0.147
				c-0.083,0.064-0.092,0.119-0.092,0.138c-0.01,0.147-0.019,0.203-0.019,1.263c0.553-0.064,0.894-0.102,1.954-0.249
				c0.009-0.433,0.018-1.105-0.083-1.981l0.94,0.111c0.304,0.036,0.304,0.092,0.304,0.147c0,0.046-0.019,0.064-0.102,0.119
				c-0.073,0.046-0.073,0.074-0.083,0.111l-0.046,1.373c0.517-0.074,0.812-0.111,1.659-0.249l0.009,1.014
				C221.408,11.545,220.984,11.582,220.117,11.683z"/>
			<path fill="#EA5504" d="M225.524,12.974c-0.12,0.036-0.139,0.046-0.157,0.083c-0.35,0.516-0.736,1.087-1.585,1.824l-0.94-0.59
				c0.701-0.497,1.318-1.17,1.854-2.073l0.765,0.497c0.027,0.019,0.175,0.111,0.175,0.185
				C225.635,12.945,225.57,12.964,225.524,12.974z M227.221,11.462v3.53c0,0.902-0.277,0.995-1.77,1.022l-0.352-1.069
				c0.166,0.028,0.443,0.074,0.729,0.074c0.305,0,0.369-0.074,0.369-0.305v-3.253h-2.691v-0.968h2.691V8.826l0.977,0.119
				c0.212,0.028,0.249,0.083,0.249,0.13c0,0.046-0.037,0.073-0.129,0.129c-0.028,0.027-0.073,0.055-0.073,0.102v1.188h2.645v0.968
				H227.221z M229.45,14.697c-0.396-0.747-0.829-1.328-1.456-1.908l0.71-0.617c0.737,0.617,1.309,1.492,1.558,1.87L229.45,14.697z
				 M229.672,9.996c-0.286-0.414-0.508-0.607-0.729-0.783l0.442-0.414c0.286,0.221,0.525,0.451,0.765,0.755L229.672,9.996z
				 M230.639,9.269c-0.23-0.313-0.479-0.571-0.792-0.812l0.442-0.414c0.295,0.239,0.562,0.507,0.793,0.82L230.639,9.269z"/>
			<path fill="#EA5504" d="M237.622,11.065c-0.259,0.719-0.442,1.244-1.06,2.212c0.23,0.193,0.451,0.387,0.773,0.7l-0.682,0.793
				c-0.156-0.147-0.332-0.332-0.719-0.673c-0.71,0.793-1.373,1.438-2.922,2.249l-0.83-0.866c1.494-0.517,2.277-1.3,2.969-2.028
				c-0.388-0.285-0.82-0.59-1.521-0.968l0.562-0.69c0.553,0.239,0.931,0.442,1.566,0.875c0.553-0.82,0.701-1.244,0.83-1.705h-2.359
				c-0.608,0.849-1.061,1.392-1.668,1.871l-0.857-0.636c1.299-0.885,2.184-2.461,2.58-3.613l1.014,0.295
				c0.056,0.019,0.186,0.074,0.186,0.139c0,0.056-0.084,0.092-0.213,0.147c-0.11,0.222-0.285,0.581-0.47,0.894h2.12
				c0.11,0,0.275-0.129,0.414-0.221l0.682,0.71C237.853,10.688,237.695,10.854,237.622,11.065z"/>
			<path fill="#EA5504" d="M240.899,11.065c-0.525-0.433-1.152-0.829-1.89-1.161l0.562-0.866c0.608,0.268,1.354,0.663,1.936,1.143
				L240.899,11.065z M243.6,13.572c-1.456,1.18-2.332,1.566-3.475,2.056c-0.046,0.129-0.064,0.285-0.139,0.285
				c-0.055,0-0.138-0.055-0.202-0.175l-0.646-1.106c0.738-0.175,1.945-0.488,3.42-1.594c1.41-1.051,2.295-2.268,2.7-2.82
				l0.636,0.922C245.535,11.618,244.816,12.586,243.6,13.572z"/>
		</g>
	</g>
</g>
</svg>
