<?xml version="1.0" encoding="utf-8"?>
<!-- Generator: Adobe Illustrator 16.0.0, SVG Export Plug-In . SVG Version: 6.00 Build 0)  -->
<!DOCTYPE svg PUBLIC "-//W3C//DTD SVG 1.1//EN" "http://www.w3.org/Graphics/SVG/1.1/DTD/svg11.dtd">
<svg version="1.1" xmlns="http://www.w3.org/2000/svg" xmlns:xlink="http://www.w3.org/1999/xlink" x="0px" y="0px"
	 width="408.19px" height="137.413px" viewBox="0 0 408.19 137.413" enable-background="new 0 0 408.19 137.413"
	 xml:space="preserve">
<g id="レイヤー_0">
</g>
<g id="レイヤー_1">
</g>
<g id="レイヤー_2">
	<rect x="2.908" y="1.608" fill="#FFF3C3" width="266.76" height="35"/>
	<rect x="106.61" y="87.32" fill="#5176A9" width="71.447" height="29"/>
	<g>
		<path fill="#FFFFFF" d="M115.456,101.831c-0.09-0.068-0.028-0.174-0.071-0.262c-0.03-0.061-0.456-0.68-1.34-0.68
			c-0.952,0-1.71,0.738-1.71,1.918c0,1.211,0.77,2.057,1.779,2.057c0.519,0,1.022-0.23,1.372-0.627l0.47,0.549
			c-0.494,0.531-1.187,0.82-1.91,0.82c-1.465,0-2.552-1.152-2.552-2.715c0-1.555,1.081-2.695,2.604-2.695
			c0.833,0,1.529,0.361,1.937,0.959L115.456,101.831z"/>
		<path fill="#FFFFFF" d="M119.413,105.616c-1.306,0-2.428-1.109-2.428-2.686c0-1.6,1.132-2.744,2.452-2.744
			c1.177,0,2.306,0.939,2.306,2.727C121.743,104.63,120.639,105.616,119.413,105.616z M117.848,102.86
			c0,1.277,0.746,2.053,1.571,2.053c0.756,0,1.502-0.662,1.502-1.965c0-1.424-0.793-2.068-1.54-2.068
			C118.589,100.88,117.848,101.591,117.848,102.86z"/>
		<path fill="#FFFFFF" d="M122.969,100.304h0.832v0.91c0.38-0.576,1.019-1.037,1.722-1.037c0.59,0,1.121,0.332,1.379,0.914
			c0.184,0.416,0.187,0.844,0.187,1.248v3.141h-0.802v-3.121c0-0.365-0.002-0.811-0.283-1.145c-0.186-0.223-0.442-0.328-0.702-0.328
			c-0.548,0-1.045,0.457-1.243,0.721c-0.215,0.287-0.257,0.541-0.257,0.889v2.984h-0.832V100.304z"/>
		<path fill="#FFFFFF" d="M132.288,101.704c-0.02-0.006-0.06-0.023-0.059-0.092c0-0.039,0.008-0.066-0.024-0.107
			c-0.197-0.256-0.7-0.713-1.438-0.713c-0.585,0-1.091,0.291-1.091,0.707c0,0.176,0.09,0.426,0.513,0.631
			c0.484,0.234,1.318,0.352,1.903,0.68c0.613,0.344,0.76,0.812,0.76,1.17c0,0.783-0.739,1.617-2.155,1.617
			c-0.787,0-1.578-0.256-2.186-0.82l0.469-0.812c0.056,0.025,0.051,0.09,0.05,0.105c-0.002,0.047-0.007,0.078,0.032,0.121
			c0.164,0.188,0.732,0.723,1.62,0.723c0.74,0,1.332-0.334,1.332-0.82c0-0.188-0.089-0.459-0.517-0.66
			c-0.382-0.178-0.954-0.316-1.392-0.475c-0.281-0.102-1.262-0.432-1.262-1.336c0-0.773,0.788-1.445,1.991-1.445
			c0.766,0,1.454,0.285,1.933,0.812L132.288,101.704z"/>
		<path fill="#FFFFFF" d="M136.421,105.616c-1.305,0-2.427-1.109-2.427-2.686c0-1.6,1.132-2.744,2.452-2.744
			c1.177,0,2.306,0.939,2.306,2.727C138.751,104.63,137.647,105.616,136.421,105.616z M134.856,102.86
			c0,1.277,0.746,2.053,1.571,2.053c0.756,0,1.502-0.662,1.502-1.965c0-1.424-0.793-2.068-1.54-2.068
			C135.598,100.88,134.856,101.591,134.856,102.86z"/>
		<path fill="#FFFFFF" d="M142.453,97.946v6.879h1.526v0.654h-3.884v-0.654h1.536v-6.223h-1.467v-0.656H142.453z"/>
		<path fill="#FFFFFF" d="M149.857,102.015c0.051,0.301,0.067,0.635,0.036,0.99h-3.676c0.062,1.551,1.065,1.934,1.758,1.934
			c0.515,0,1.003-0.205,1.341-0.584l0.45,0.441c-0.443,0.533-1.115,0.803-1.854,0.803c-1.407,0-2.487-0.924-2.487-2.648
			c0-1.891,1.145-2.775,2.381-2.775C148.655,100.175,149.622,100.624,149.857,102.015z M149.091,102.378
			c0.098-0.84-0.502-1.576-1.341-1.576c-0.556,0-1.344,0.355-1.506,1.576H149.091z"/>
		<path fill="#FFFFFF" d="M153.248,105.608c-0.372,0-0.67-0.295-0.67-0.652c0-0.355,0.298-0.65,0.67-0.65s0.67,0.295,0.67,0.65
			C153.919,105.313,153.621,105.608,153.248,105.608z"/>
		<path fill="#FFFFFF" d="M159.461,97.946v6.879h1.526v0.654h-3.884v-0.654h1.536v-6.223h-1.467v-0.656H159.461z"/>
		<path fill="#FFFFFF" d="M164.769,105.616c-1.306,0-2.428-1.109-2.428-2.686c0-1.6,1.132-2.744,2.452-2.744
			c1.177,0,2.306,0.939,2.306,2.727C167.098,104.63,165.995,105.616,164.769,105.616z M163.203,102.86
			c0,1.277,0.746,2.053,1.571,2.053c0.756,0,1.502-0.662,1.502-1.965c0-1.424-0.793-2.068-1.54-2.068
			C163.945,100.88,163.203,101.591,163.203,102.86z"/>
		<path fill="#FFFFFF" d="M171.397,100.628c0.401-0.336,0.917-0.502,1.438-0.461l0.098,0.666c-0.099-0.018-0.199-0.025-0.299-0.025
			c-0.319,0-0.632,0.086-0.905,0.25c0.172,0.258,0.264,0.564,0.264,0.877c0,0.957-0.84,1.775-1.866,1.775
			c-0.225,0-0.447-0.041-0.658-0.119c-0.051,0.043-0.37,0.307-0.37,0.58c0,0.164,0.115,0.285,0.313,0.34
			c0.111,0.031,0.353,0.064,0.74,0.064c0.587,0,1.213-0.072,1.753,0.146c0.55,0.225,0.805,0.678,0.805,1.125
			c0,0.695-0.629,1.584-2.383,1.584c-1.815,0-2.342-0.662-2.342-1.227c0-0.412,0.287-0.793,0.842-1.148
			c-0.327-0.172-0.416-0.475-0.416-0.689c0-0.332,0.213-0.684,0.587-1c-0.475-0.309-0.766-0.836-0.766-1.402
			c0-1.012,0.905-1.832,1.936-1.832C170.643,100.132,171.078,100.31,171.397,100.628z M168.735,106.011
			c0,0.182,0.092,0.467,0.51,0.633c0.392,0.156,0.833,0.17,1.069,0.17c0.347,0,0.785-0.023,1.165-0.229
			c0.355-0.191,0.484-0.463,0.484-0.688c0-0.227-0.138-0.529-0.618-0.602c-0.297-0.045-0.715-0.016-1.097-0.031
			c-0.396-0.014-0.671-0.035-0.867-0.061C169.083,105.366,168.735,105.638,168.735,106.011z M170.12,103.054
			c0.629,0,1.141-0.51,1.141-1.139c0-0.627-0.511-1.137-1.14-1.137c-0.63,0-1.141,0.51-1.141,1.139
			C168.98,102.544,169.49,103.054,170.12,103.054z"/>
	</g>
	<rect x="223.607" y="80.466" fill="#45B035" width="136.041" height="37.831"/>
	<g>
		<path fill="#FFFFFF" d="M258.746,95.663v-1.484h6.77v-4.23h-6.77v-1.484h8.413v7.754h-1.644v-0.555H258.746z"/>
		<path fill="#FFFFFF" d="M270.821,87.284c1.667,0.838,2.438,1.475,2.971,1.949c-0.237,0.273-0.408,0.5-0.94,1.316
			c-1.338-1.168-2.438-1.689-2.982-1.928L270.821,87.284z M270.017,95.255c2.722-0.578,6.19-2.381,8.515-6.156
			c0.408,0.646,0.545,0.861,0.986,1.326c-0.736,1.133-2.868,4.342-8.22,6.27c-0.022,0.113-0.034,0.25-0.192,0.25
			c-0.08,0-0.148-0.09-0.205-0.193L270.017,95.255z"/>
		<path fill="#FFFFFF" d="M282.285,88.056c0.623,0.76,1.258,1.812,1.621,2.697c-0.578,0.318-1.1,0.691-1.338,0.863
			c-0.283-0.637-0.727-1.543-1.61-2.734L282.285,88.056z M290.062,87.704c0.17,0.033,0.227,0.078,0.227,0.146
			c0,0.113-0.124,0.158-0.238,0.148c-0.589,3.492-1.349,6.654-6.225,8.889c-0.373-0.635-0.884-1.088-1.076-1.258
			c3.582-1.486,5.408-3.459,5.646-8.244L290.062,87.704z"/>
		<path fill="#FFFFFF" d="M301.9,91.274v1.611h-9.785v-1.611H301.9z"/>
		<path fill="#FFFFFF" d="M307.036,87.737c0.113,0.012,0.261,0.012,0.261,0.148c0,0.123-0.113,0.18-0.204,0.215v2.777
			c0,2.881-1.281,4.174-2.823,5.375c-0.182-0.215-0.408-0.488-1.281-1.055c2.154-1.371,2.461-2.652,2.461-4.219v-3.322
			L307.036,87.737z M309.848,87.636c0.125,0.012,0.216,0.012,0.216,0.125s-0.113,0.158-0.216,0.215v5.941
			c1.35-0.85,2.484-2.074,3.243-3.164c0.238,0.658,0.397,0.941,0.76,1.406c-0.748,1.021-2.177,2.428-3.243,3.186
			c-0.94,0.682-1.043,0.76-1.338,1.01l-1.043-0.68c0.023-0.307,0.045-0.59,0.045-0.896v-7.223L309.848,87.636z"/>
		<path fill="#FFFFFF" d="M317.297,87.669c0.171,0.068,0.262,0.092,0.262,0.193c0,0.113-0.113,0.137-0.283,0.158
			c-0.193,0.59-0.749,2.234-0.749,4.705c0,0.658,0.046,0.885,0.103,1.248c0.033-0.09,0.373-0.861,0.555-1.18
			c0.205,0.318,0.443,0.578,0.771,0.805c-0.147,0.295-0.828,1.736-0.771,2.848l-1.36,0.385c-0.362-0.998-0.759-2.234-0.759-4.4
			c0-2.086,0.34-3.627,0.714-5.328L317.297,87.669z M320.268,92.964c-0.215,0.488-0.283,0.807-0.283,0.977
			c0,0.566,0.521,0.68,1.746,0.68c0.806,0,1.826-0.045,2.857-0.307c-0.158,0.715-0.146,1.361-0.136,1.576
			c-0.692,0.102-1.916,0.158-2.63,0.158c-2.269,0-3.221-0.51-3.221-1.633c0-0.236,0.022-0.85,0.408-1.689L320.268,92.964z
			 M319.043,88.304c0.318,0.023,0.715,0.057,1.35,0.057c1.055,0,2.246-0.057,3.436-0.361c0.068,1.043,0.113,1.27,0.148,1.473
			c-1.168,0.238-2.371,0.33-3.561,0.33c-0.624,0-1.032-0.023-1.373-0.047V88.304z"/>
		<path fill="#FFFFFF" d="M234.754,100.159v1.145h-2.846v9.547h-1.157v-10.691H234.754z"/>
		<path fill="#FFFFFF" d="M237.769,100.907v3.607h4.889v-3.607h1.688v8.934h-1.688v-4.014h-4.889v4.014h-1.699v-8.934H237.769z"/>
		<path fill="#FFFFFF" d="M252.396,107.87c-0.17,0.51-0.691,2.221-3.345,2.221c-2.131,0-3.514-1.258-3.514-3.504
			c0-2.619,1.812-3.502,3.445-3.502c1.327,0,2.449,0.566,3.051,1.699c0.295,0.557,0.419,1.125,0.476,2.154h-5.419
			c0.102,1.951,1.553,1.951,1.973,1.951c0.827,0,1.474-0.238,1.757-1.02H252.396z M250.934,105.886c-0.103-0.396-0.42-1.6-1.939-1.6
			c-1.451,0-1.758,1.111-1.883,1.6H250.934z"/>
		<path fill="#FFFFFF" d="M255.457,100.907v8.934h-1.529v-8.934H255.457z"/>
		<path fill="#FFFFFF" d="M259.028,100.907v8.934h-1.529v-8.934H259.028z"/>
		<path fill="#FFFFFF" d="M267.418,106.589c0,2.574-1.812,3.502-3.479,3.502c-1.69,0-3.491-0.939-3.491-3.502
			c0-2.574,1.801-3.504,3.491-3.504C265.617,103.085,267.418,104.015,267.418,106.589z M262.045,106.589
			c0,1.27,0.703,2.301,1.894,2.301c1.226,0,1.883-1.088,1.883-2.301c0-1.203-0.657-2.303-1.883-2.303
			C262.748,104.286,262.045,105.329,262.045,106.589z"/>
		<path fill="#FFFFFF" d="M273.611,100.907l1.405,7.1l1.338-7.1h1.813l1.338,7.1l1.406-7.1h1.769l-2.108,8.934h-2.007l-1.304-6.812
			l-1.304,6.812h-2.007l-2.109-8.934H273.611z"/>
		<path fill="#FFFFFF" d="M290.3,106.589c0,2.574-1.812,3.502-3.479,3.502c-1.69,0-3.492-0.939-3.492-3.502
			c0-2.574,1.802-3.504,3.492-3.504C288.498,103.085,290.3,104.015,290.3,106.589z M284.926,106.589c0,1.27,0.703,2.301,1.895,2.301
			c1.225,0,1.883-1.088,1.883-2.301c0-1.203-0.658-2.303-1.883-2.303C285.629,104.286,284.926,105.329,284.926,106.589z"/>
		<path fill="#FFFFFF" d="M292.874,103.323l0.022,0.939c0.59-1.133,1.973-1.178,2.359-1.178h0.861v1.564h-0.93
			c-1.543,0-2.291,0.816-2.291,1.928v3.264h-1.529v-6.518H292.874z"/>
		<path fill="#FFFFFF" d="M298.918,100.907v8.934h-1.529v-8.934H298.918z"/>
		<path fill="#FFFFFF" d="M307.047,100.907v8.934h-1.495l-0.034-0.758c-0.521,0.793-1.315,1.008-2.087,1.008
			c-2.098,0-3.095-1.484-3.095-3.514c0-2.461,1.416-3.492,2.981-3.492c1.485,0,2.019,0.781,2.2,1.064v-3.242H307.047z
			 M301.934,106.577c0,1.02,0.317,2.223,1.803,2.223c1.781,0,1.781-1.826,1.781-2.223c0-0.408,0-2.223-1.792-2.223
			C301.945,104.354,301.934,106.157,301.934,106.577z"/>
		<path fill="#FFFFFF" d="M308.227,110.907v-1.145h2.847v-9.547h1.156v10.691H308.227z"/>
		<path fill="#FFFFFF" d="M328.988,104.048c-0.896,0.092-1.724,0.193-4.06,1.18c-0.556,0.238-2.722,1.156-2.722,2.529
			c0,0.826,0.896,1.145,2.948,1.145c1.735,0,2.835-0.295,3.81-0.602c-0.113,0.42-0.17,0.748-0.146,1.713
			c-1.406,0.271-3.027,0.34-3.776,0.34c-1.995,0-2.778-0.318-3.3-0.59c-0.703-0.373-1.201-1.055-1.201-1.904
			c0-1.361,1.031-2.336,2.46-3.164c-0.601-0.623-0.691-1.371-0.873-2.834c-0.034-0.307-0.079-0.613-0.261-1.111l1.916-0.408
			c-0.045,0.545-0.068,0.805-0.068,1.156c0,1.18,0.25,2.074,0.545,2.551c1.564-0.725,2.109-0.93,4.127-1.689L328.988,104.048z"/>
		<path fill="#FFFFFF" d="M340.723,106.181c0.08,0.066,0.125,0.113,0.125,0.191c0,0.08-0.102,0.137-0.385,0.104
			c-0.557,0.521-1.168,0.975-1.803,1.395c0.895,0.748,1.791,1.314,2.732,1.746c-0.432,0.305-0.681,0.668-0.953,1.008
			c-1.201-0.566-2.256-1.35-3.141-2.346c-0.045,0.158-0.182,0.656-0.17,1.043c-1.871,0.668-3.799,1.1-4.898,1.314
			c-0.034,0.113-0.068,0.271-0.193,0.271c-0.09,0-0.158-0.113-0.191-0.215l-0.408-1.293c0.68-0.078,1.314-0.191,1.995-0.328v-1.236
			c-0.171,0.092-0.987,0.533-2.007,0.918c-0.283-0.521-0.42-0.713-0.861-1.145c2.494-0.646,3.514-1.531,4.149-2.086h-3.89v-1.111
			h4.502v-0.602h-3.096v-0.998h3.096v-0.555h-4.207v-1.078h4.207v-0.93l1.428,0.068c0.125,0.012,0.25,0.045,0.25,0.137
			c0,0.08-0.045,0.102-0.079,0.125c-0.057,0.033-0.103,0.057-0.171,0.09v0.51h4.23v1.078h-4.23v0.555h3.096v0.998h-3.096v0.602
			h4.479v1.111h-1.315L340.723,106.181z M334.816,108.776c0.759-0.17,1.314-0.307,2.392-0.602c-0.702-0.805-1.077-1.406-1.395-1.984
			c-0.103,0.104-0.465,0.42-0.997,0.795V108.776z M336.879,105.522c0.17,0.42,0.533,0.963,0.919,1.439
			c0.521-0.363,1.247-0.986,1.667-1.439H336.879z"/>
		<path fill="#FFFFFF" d="M345.791,105.964c0.125,0.035,0.17,0.125,0.17,0.193c0,0.137-0.102,0.158-0.34,0.205
			c-0.487,1.178-1.463,2.766-2.245,3.57c-0.352-0.316-0.896-0.59-1.327-0.725c0.703-0.75,1.576-1.68,2.404-3.652L345.791,105.964z
			 M348.184,109.354c0,0.816,0,1.475-2.596,1.395c-0.012-0.465-0.103-0.906-0.488-1.52c0.328,0.045,0.782,0.092,1.077,0.092
			c0.362,0,0.521-0.092,0.521-0.67v-3.799h-4.468v-1.326h10.342v1.326h-4.389V109.354z M351.494,100.669v1.361h-8.209v-1.361
			H351.494z M349.918,105.454c0.771,0.793,2.064,2.381,2.699,3.549c-0.612,0.33-0.703,0.387-1.248,0.861
			c-0.6-1.439-1.961-2.902-2.641-3.627L349.918,105.454z"/>
	</g>
	<rect x="8.667" y="51.466" fill="#EA5504" width="78.743" height="29"/>
	<g>
		<path fill="#FFFFFF" d="M14.132,64.206l-0.274,0.752l-0.626-0.156l0.245-0.764c0.061-0.189,0.11-0.404,0.11-0.627
			c0-0.246-0.071-0.473-0.071-0.719c0-0.447,0.265-0.621,0.484-0.621c0.223,0,0.51,0.186,0.51,0.699
			C14.51,63.067,14.414,63.431,14.132,64.206z"/>
		<path fill="#FFFFFF" d="M18.06,62.562c0.008,0.016,0.012,0.033,0.012,0.053c0,0.088-0.071,0.1-0.071,0.221v2.75h2.769v-3.023
			h0.861c0.008,0.014,0.013,0.031,0.013,0.047c0,0.086-0.082,0.09-0.082,0.207v6.82H20.76v-3.377h-2.759v3.367h-0.822v-7.064H18.06z
			"/>
		<path fill="#FFFFFF" d="M27.216,66.161c0.051,0.301,0.067,0.633,0.036,0.988h-3.676c0.062,1.551,1.065,1.934,1.758,1.934
			c0.515,0,1.003-0.205,1.341-0.582l0.45,0.439c-0.443,0.533-1.115,0.805-1.854,0.805c-1.407,0-2.487-0.924-2.487-2.65
			c0-1.891,1.145-2.775,2.381-2.775C26.014,64.319,26.98,64.771,27.216,66.161z M26.449,66.524c0.098-0.84-0.502-1.578-1.341-1.578
			c-0.556,0-1.344,0.355-1.506,1.578H26.449z"/>
		<path fill="#FFFFFF" d="M31.15,62.091v6.879h1.526v0.656h-3.884V68.97h1.536v-6.223h-1.467v-0.656H31.15z"/>
		<path fill="#FFFFFF" d="M36.82,62.091v6.879h1.526v0.656h-3.884V68.97h1.536v-6.223H34.53v-0.656H36.82z"/>
		<path fill="#FFFFFF" d="M42.127,69.763c-1.306,0-2.428-1.111-2.428-2.688c0-1.6,1.132-2.742,2.452-2.742
			c1.177,0,2.306,0.938,2.306,2.727C44.457,68.776,43.353,69.763,42.127,69.763z M40.562,67.005c0,1.277,0.746,2.053,1.571,2.053
			c0.756,0,1.502-0.66,1.502-1.965c0-1.422-0.793-2.066-1.54-2.066C41.303,65.026,40.562,65.735,40.562,67.005z"/>
		<path fill="#FFFFFF" d="M51.509,62.562l0.763,4.775l1.135-4.258h0.245l1.145,4.277l0.646-4.795h0.665l-1.115,7.113h-0.313
			l-1.213-4.668l-1.233,4.668H51.91l-1.135-7.113H51.509z"/>
		<path fill="#FFFFFF" d="M59.135,69.763c-1.305,0-2.427-1.111-2.427-2.688c0-1.6,1.132-2.742,2.452-2.742
			c1.177,0,2.306,0.938,2.306,2.727C61.465,68.776,60.361,69.763,59.135,69.763z M57.57,67.005c0,1.277,0.746,2.053,1.571,2.053
			c0.756,0,1.502-0.66,1.502-1.965c0-1.422-0.793-2.066-1.54-2.066C58.312,65.026,57.57,65.735,57.57,67.005z"/>
		<path fill="#FFFFFF" d="M63.895,64.45l-0.029,0.998c0.339-0.74,1.107-1.123,1.864-1.123c0.582,0,1.059,0.23,1.384,0.564
			l-0.381,0.783c-0.087-0.084-0.125-0.174-0.192-0.26c-0.146-0.186-0.419-0.389-0.855-0.389c-0.366,0-0.984,0.129-1.455,0.873
			c-0.352,0.557-0.364,0.9-0.364,1.213v2.525h-0.822V64.45H63.895z"/>
		<path fill="#FFFFFF" d="M70.836,62.091v6.879h1.526v0.656h-3.884V68.97h1.536v-6.223h-1.467v-0.656H70.836z"/>
		<path fill="#FFFFFF" d="M77.464,62.081h0.871c0.004,0.078-0.039,0.135-0.062,0.17c-0.041,0.062-0.045,0.096-0.045,0.154l0.01,6.74
			c0,0.158,0.008,0.322,0.049,0.48h-0.812c-0.042-0.127-0.049-0.26-0.049-0.383v-0.449c-0.325,0.582-0.938,0.947-1.6,0.947
			c-1.001,0-2.06-0.836-2.06-2.748c0-1.98,1.192-2.682,2.179-2.682c0.716,0,1.27,0.359,1.519,0.891V62.081z M74.558,66.858
			c0,1.707,0.871,2.162,1.458,2.162c0.54,0,1.076-0.361,1.276-0.982c0.084-0.262,0.108-0.551,0.108-0.941
			c0-0.578-0.023-0.867-0.087-1.109c-0.205-0.768-0.874-1.01-1.328-1.01C75.388,64.978,74.558,65.384,74.558,66.858z"/>
		<path fill="#FFFFFF" d="M82.165,64.206l-0.274,0.752l-0.626-0.156l0.245-0.764c0.061-0.189,0.11-0.404,0.11-0.627
			c0-0.246-0.071-0.473-0.071-0.719c0-0.447,0.265-0.621,0.484-0.621c0.223,0,0.51,0.186,0.51,0.699
			C82.543,63.067,82.447,63.431,82.165,64.206z"/>
	</g>
	<g>
		<path d="M19.397,19.02c-0.146-0.11-0.046-0.283-0.116-0.426c-0.049-0.099-0.74-1.103-2.178-1.103
			c-1.547,0-2.781,1.198-2.781,3.117c0,1.968,1.251,3.343,2.892,3.343c0.844,0,1.661-0.373,2.231-1.019l0.763,0.891
			c-0.803,0.866-1.93,1.337-3.105,1.337c-2.382,0-4.148-1.876-4.148-4.415c0-2.526,1.757-4.383,4.232-4.383
			c1.354,0,2.486,0.588,3.149,1.56L19.397,19.02z"/>
		<path d="M25.825,25.176c-2.123,0-3.947-1.806-3.947-4.368c0-2.602,1.84-4.461,3.986-4.461c1.914,0,3.749,1.526,3.749,4.434
			C29.613,23.572,27.819,25.176,25.825,25.176z M23.28,20.693c0,2.077,1.213,3.337,2.555,3.337c1.229,0,2.442-1.075,2.442-3.194
			c0-2.312-1.289-3.361-2.504-3.361C24.486,17.475,23.28,18.629,23.28,20.693z"/>
		<path d="M31.602,16.538h1.352v1.479c0.618-0.938,1.656-1.687,2.799-1.687c0.959,0,1.823,0.539,2.242,1.486
			c0.299,0.677,0.304,1.372,0.304,2.029v5.106h-1.304v-5.074c0-0.595-0.004-1.317-0.459-1.862c-0.303-0.361-0.719-0.533-1.142-0.533
			c-0.89,0-1.7,0.744-2.021,1.172c-0.35,0.467-0.418,0.879-0.418,1.446v4.852h-1.352V16.538z"/>
		<path d="M46.748,18.812c-0.032-0.008-0.097-0.037-0.096-0.147c0-0.065,0.012-0.109-0.04-0.177
			c-0.32-0.413-1.137-1.156-2.337-1.156c-0.952,0-1.774,0.473-1.774,1.15c0,0.283,0.146,0.691,0.834,1.023
			c0.787,0.381,2.143,0.57,3.095,1.104c0.996,0.56,1.236,1.321,1.236,1.904c0,1.271-1.202,2.629-3.503,2.629
			c-1.279,0-2.566-0.417-3.555-1.336l0.764-1.32c0.091,0.043,0.083,0.148,0.082,0.174c-0.003,0.073-0.012,0.125,0.051,0.196
			c0.267,0.304,1.191,1.173,2.634,1.173c1.203,0,2.165-0.543,2.165-1.332c0-0.305-0.146-0.748-0.84-1.073
			c-0.622-0.291-1.551-0.515-2.264-0.771c-0.457-0.165-2.051-0.701-2.051-2.172c0-1.258,1.281-2.351,3.237-2.351
			c1.246,0,2.364,0.463,3.142,1.32L46.748,18.812z"/>
		<path d="M53.462,25.176c-2.123,0-3.947-1.806-3.947-4.368c0-2.602,1.84-4.461,3.986-4.461c1.914,0,3.749,1.526,3.749,4.434
			C57.25,23.572,55.456,25.176,53.462,25.176z M50.917,20.693c0,2.077,1.213,3.337,2.555,3.337c1.229,0,2.442-1.075,2.442-3.194
			c0-2.312-1.289-3.361-2.504-3.361C52.123,17.475,50.917,18.629,50.917,20.693z"/>
		<path d="M63.264,12.704v11.184h2.481v1.065H59.43v-1.065h2.497V13.771h-2.386v-1.066H63.264z"/>
		<path d="M75.297,19.32c0.083,0.489,0.109,1.029,0.059,1.608h-5.977c0.1,2.521,1.731,3.143,2.858,3.143
			c0.837,0,1.631-0.333,2.18-0.947l0.731,0.716c-0.721,0.866-1.812,1.307-3.015,1.307c-2.287,0-4.043-1.501-4.043-4.308
			c0-3.073,1.861-4.512,3.872-4.512C73.343,16.327,74.915,17.06,75.297,19.32z M74.051,19.91c0.158-1.365-0.816-2.563-2.181-2.563
			c-0.904,0-2.186,0.578-2.448,2.563H74.051z"/>
		<path d="M80.805,25.161c-0.605,0-1.089-0.479-1.089-1.06c0-0.579,0.484-1.058,1.09-1.058s1.09,0.479,1.09,1.059
			S81.411,25.161,80.805,25.161z"/>
		<path d="M90.901,12.704v11.184h2.481v1.065h-6.315v-1.065h2.497V13.771h-2.386v-1.066H90.901z"/>
		<path d="M99.524,25.176c-2.123,0-3.947-1.806-3.947-4.368c0-2.602,1.84-4.461,3.986-4.461c1.914,0,3.749,1.526,3.749,4.434
			C103.312,23.572,101.518,25.176,99.524,25.176z M96.979,20.693c0,2.077,1.213,3.337,2.555,3.337c1.229,0,2.442-1.075,2.442-3.194
			c0-2.312-1.289-3.361-2.504-3.361C98.185,17.475,96.979,18.629,96.979,20.693z"/>
		<path d="M110.296,17.063c0.652-0.547,1.492-0.814,2.338-0.748l0.159,1.082c-0.161-0.028-0.323-0.042-0.486-0.042
			c-0.519,0-1.027,0.142-1.471,0.407c0.279,0.421,0.43,0.917,0.43,1.428c0,1.554-1.367,2.885-3.035,2.885
			c-0.365,0-0.727-0.065-1.07-0.192c-0.083,0.068-0.602,0.496-0.602,0.941c0,0.266,0.188,0.465,0.51,0.553
			c0.18,0.05,0.574,0.106,1.203,0.106c0.955,0,1.972-0.118,2.851,0.238c0.895,0.363,1.31,1.1,1.31,1.828
			c0,1.13-1.022,2.575-3.875,2.575c-2.952,0-3.808-1.077-3.808-1.995c0-0.669,0.466-1.288,1.37-1.865
			c-0.532-0.279-0.675-0.771-0.675-1.122c0-0.541,0.346-1.11,0.954-1.625c-0.772-0.503-1.245-1.359-1.245-2.281
			c0-1.646,1.471-2.978,3.147-2.978C109.069,16.259,109.777,16.546,110.296,17.063z M105.969,25.816c0,0.294,0.149,0.758,0.83,1.028
			c0.636,0.253,1.353,0.275,1.737,0.275c0.564,0,1.276-0.036,1.893-0.369c0.578-0.312,0.788-0.753,0.788-1.117
			c0-0.371-0.224-0.862-1.005-0.98c-0.483-0.072-1.163-0.026-1.784-0.049c-0.644-0.024-1.091-0.061-1.41-0.102
			C106.534,24.769,105.969,25.211,105.969,25.816z M108.22,21.008c1.023,0,1.854-0.829,1.854-1.85c0-1.02-0.83-1.85-1.854-1.85
			s-1.854,0.829-1.854,1.85S107.196,21.008,108.22,21.008z"/>
		<path d="M121.036,13.802c-0.062,0.036-0.122,0.038-0.148,0.038c-0.073,0-0.132-0.021-0.196-0.021
			c-0.074,0-0.118,0.028-0.167,0.058c-2.154,1.27-3.429,3.618-3.429,6.251c0,2.863,1.485,5.572,4.004,7.036l-0.604,0.971
			c-2.919-1.532-4.682-4.598-4.682-7.945c0-3.374,1.813-6.262,4.666-7.517L121.036,13.802z"/>
		<path fill="#EA5504" d="M127.734,16.141l-0.445,1.225l-1.018-0.255l0.398-1.24c0.099-0.311,0.18-0.658,0.18-1.02
			c0-0.4-0.116-0.769-0.116-1.168c0-0.729,0.432-1.013,0.787-1.013c0.362,0,0.83,0.304,0.83,1.138
			C128.35,14.292,128.193,14.88,127.734,16.141z"/>
		<path fill="#EA5504" d="M134.115,13.468c0.013,0.026,0.02,0.056,0.02,0.085c0,0.146-0.115,0.164-0.115,0.36v4.471h4.502v-4.916
			h1.4c0.014,0.023,0.021,0.05,0.021,0.077c0,0.14-0.132,0.146-0.132,0.337v11.087h-1.305v-5.487h-4.486v5.472h-1.336V13.468
			H134.115z"/>
		<path fill="#EA5504" d="M148.996,19.32c0.083,0.489,0.109,1.029,0.059,1.608h-5.977c0.1,2.521,1.731,3.143,2.858,3.143
			c0.837,0,1.631-0.333,2.18-0.947l0.731,0.716c-0.721,0.866-1.812,1.307-3.015,1.307c-2.287,0-4.043-1.501-4.043-4.308
			c0-3.073,1.861-4.512,3.872-4.512C147.042,16.327,148.614,17.06,148.996,19.32z M147.75,19.91
			c0.158-1.365-0.816-2.563-2.181-2.563c-0.904,0-2.186,0.578-2.448,2.563H147.75z"/>
		<path fill="#EA5504" d="M155.388,12.704v11.184h2.481v1.065h-6.315v-1.065h2.497V13.771h-2.386v-1.066H155.388z"/>
		<path fill="#EA5504" d="M164.6,12.704v11.184h2.481v1.065h-6.315v-1.065h2.497V13.771h-2.386v-1.066H164.6z"/>
		<path fill="#EA5504" d="M173.224,25.176c-2.123,0-3.947-1.806-3.947-4.368c0-2.602,1.84-4.461,3.986-4.461
			c1.914,0,3.749,1.526,3.749,4.434C177.012,23.572,175.217,25.176,173.224,25.176z M170.679,20.693
			c0,2.077,1.213,3.337,2.555,3.337c1.229,0,2.442-1.075,2.442-3.194c0-2.312-1.289-3.361-2.504-3.361
			C171.884,17.475,170.679,18.629,170.679,20.693z"/>
		<path fill="#EA5504" d="M188.467,13.468l1.241,7.763l1.845-6.919h0.398l1.861,6.951l1.05-7.795h1.082l-1.813,11.564h-0.509
			l-1.972-7.587l-2.004,7.587h-0.525l-1.845-11.564H188.467z"/>
		<path fill="#EA5504" d="M200.861,25.176c-2.123,0-3.947-1.806-3.947-4.368c0-2.602,1.84-4.461,3.986-4.461
			c1.914,0,3.749,1.526,3.749,4.434C204.648,23.572,202.854,25.176,200.861,25.176z M198.316,20.693
			c0,2.077,1.213,3.337,2.555,3.337c1.229,0,2.442-1.075,2.442-3.194c0-2.312-1.289-3.361-2.504-3.361
			C199.521,17.475,198.316,18.629,198.316,20.693z"/>
		<path fill="#EA5504" d="M208.594,16.538l-0.047,1.623c0.551-1.204,1.8-1.826,3.029-1.826c0.946,0,1.722,0.376,2.252,0.919
			l-0.621,1.272c-0.141-0.135-0.201-0.281-0.312-0.422c-0.236-0.303-0.682-0.631-1.391-0.631c-0.596,0-1.6,0.209-2.365,1.419
			c-0.572,0.905-0.592,1.464-0.592,1.973v4.104h-1.337v-8.431H208.594z"/>
		<path fill="#EA5504" d="M219.875,12.704v11.184h2.48v1.065h-6.314v-1.065h2.497V13.771h-2.386v-1.066H219.875z"/>
		<path fill="#EA5504" d="M230.646,12.688h1.415c0.007,0.126-0.063,0.217-0.101,0.275c-0.066,0.102-0.074,0.153-0.074,0.25
			l0.016,10.96c0,0.255,0.014,0.521,0.08,0.779h-1.32c-0.068-0.204-0.08-0.42-0.08-0.62v-0.732
			c-0.529,0.945-1.523,1.539-2.601,1.539c-1.628,0-3.349-1.358-3.349-4.467c0-3.219,1.938-4.358,3.543-4.358
			c1.164,0,2.065,0.583,2.471,1.448V12.688z M225.92,20.456c0,2.773,1.416,3.514,2.369,3.514c0.879,0,1.75-0.587,2.074-1.597
			c0.137-0.426,0.176-0.897,0.176-1.532c0-0.94-0.037-1.41-0.142-1.802c-0.333-1.25-1.421-1.643-2.159-1.643
			C227.27,17.396,225.92,18.059,225.92,20.456z"/>
		<path fill="#EA5504" d="M238.283,16.141l-0.445,1.225l-1.018-0.255l0.397-1.24c0.099-0.311,0.18-0.658,0.18-1.02
			c0-0.4-0.116-0.769-0.116-1.168c0-0.729,0.432-1.013,0.787-1.013c0.362,0,0.83,0.304,0.83,1.138
			C238.898,14.292,238.742,14.88,238.283,16.141z"/>
		<path d="M244.012,12.688c2.995,1.379,4.932,4.364,4.932,7.646c0,3.312-1.97,6.374-5.027,7.831l-0.35-1.113
			c2.491-1.318,4.073-3.891,4.073-6.665c0-2.735-1.541-5.259-3.978-6.554L244.012,12.688z"/>
		<path d="M255.117,28.055l-0.637-0.557c0.438-0.401,0.748-0.851,0.928-1.146c0.09-0.147,0.273-0.463,0.273-0.768
			c0-0.38-0.272-0.549-0.433-0.655c-0.163-0.108-0.514-0.32-0.514-0.816c0-0.557,0.454-1.051,1.062-1.051
			c0.654,0,1.279,0.585,1.279,1.528C257.076,25.55,256.401,26.752,255.117,28.055z M255.84,19.275c-0.604,0-1.089-0.479-1.089-1.06
			c0-0.579,0.483-1.058,1.09-1.058s1.091,0.479,1.091,1.059S256.447,19.275,255.84,19.275z"/>
	</g>
	<g>
		<path d="M103.632,124.101h-3.359v-0.562c-0.324,0.222-1.004,0.672-1.786,0.979c-0.204-0.383-0.561-0.672-0.689-0.773
			c2.262-0.8,3.46-2.246,3.673-2.637l1.004,0.119c0.111,0.018,0.196,0.034,0.196,0.119c0,0.051-0.06,0.094-0.102,0.119
			c0.374,0.544,1.812,1.691,3.537,2.202c-0.493,0.374-0.621,0.612-0.714,0.833c-0.688-0.306-1.173-0.544-1.76-0.926V124.101z
			 M101.565,124.585v3.605h-0.977v-0.426h-0.809v0.545H98.76v-3.725H101.565z M99.779,125.47v1.343h0.809v-1.343H99.779z
			 M103.053,123.165c-0.374-0.299-0.637-0.52-1.13-1.055c-0.247,0.271-0.587,0.629-1.14,1.055H103.053z M105.128,127.434
			c0,1.028-0.705,1.021-1.581,1.021c-0.017-0.494-0.196-0.851-0.426-1.156c0.315,0.067,0.502,0.109,0.647,0.109
			c0.213,0,0.332-0.051,0.332-0.34v-1.53h-1.047v3.444h-1.011v-4.396h3.086V127.434z"/>
		<path d="M112.315,124.524h-3.716v-0.739c-0.604,0.408-1.08,0.655-1.684,0.919c-0.136-0.332-0.28-0.527-0.638-0.834
			c1.786-0.663,2.968-1.582,3.716-2.755l1.105,0.161c0.085,0.009,0.187,0.025,0.187,0.119c0,0.085-0.077,0.127-0.119,0.145
			c0.868,1.055,2.339,1.896,3.419,2.22c-0.204,0.222-0.383,0.459-0.587,0.884c-0.468-0.203-1.046-0.467-1.684-0.884V124.524z
			 M110.427,129.007h-1.038v-2.892h-2.134v-0.986h6.268v2.228c0,0.919-0.255,1.302-1.948,1.353
			c-0.127-0.612-0.357-0.936-0.468-1.097c0.17,0.017,0.349,0.042,0.681,0.042c0.672,0,0.706-0.076,0.706-0.392v-1.147h-2.066
			V129.007z M111.975,123.53c-0.434-0.307-1.003-0.783-1.522-1.429c-0.748,0.858-1.445,1.386-1.505,1.429H111.975z"/>
		<path d="M122.741,121.634c-0.417,0.442-1.446,1.521-1.446,3.495c0,1.973,1.029,3.053,1.446,3.495l-0.629,0.57
			c-1.403-1.412-1.675-3.002-1.675-4.065s0.272-2.653,1.675-4.065L122.741,121.634z"/>
		<path d="M130.045,122.229c0.06,0.025,0.119,0.067,0.119,0.119c0,0.076-0.094,0.135-0.255,0.152
			c-0.442,1.029-0.757,1.727-1.267,2.518c0.366,0.34,1.038,1.029,1.352,1.496c-0.34,0.314-0.536,0.545-0.867,0.919
			c-0.366-0.562-0.851-1.089-1.182-1.438c-0.247,0.306-1.335,1.675-3.155,2.577c-0.162-0.221-0.375-0.494-0.901-0.867
			c1.046-0.494,2.168-1.166,3.197-2.535c-0.527-0.476-1.097-0.91-1.709-1.283l0.68-0.919c0.553,0.383,1.148,0.808,1.709,1.276
			c0.221-0.375,0.74-1.327,1.08-2.552L130.045,122.229z"/>
		<path d="M133.421,122.118c0.468,0.57,0.944,1.361,1.216,2.024c-0.434,0.237-0.825,0.519-1.004,0.646
			c-0.212-0.476-0.544-1.156-1.208-2.049L133.421,122.118z M139.255,121.854c0.128,0.025,0.17,0.061,0.17,0.111
			c0,0.084-0.094,0.119-0.179,0.11c-0.442,2.619-1.012,4.991-4.668,6.667c-0.281-0.477-0.664-0.816-0.808-0.943
			c2.688-1.115,4.057-2.594,4.235-6.184L139.255,121.854z"/>
		<path d="M142.385,123.377c0.306,0.502,0.604,1.132,0.799,1.616c-0.221,0.076-0.596,0.229-0.918,0.441
			c-0.255-0.654-0.485-1.08-0.816-1.666L142.385,123.377z M147.317,123.429c0.085,0.025,0.153,0.042,0.153,0.109
			c0,0.086-0.11,0.111-0.162,0.119c-0.655,2.662-1.769,4.065-4.124,5.043c-0.298-0.477-0.502-0.663-0.681-0.816
			c1.769-0.672,3.342-1.691,3.776-4.779L147.317,123.429z M144.162,122.969c0.247,0.408,0.51,0.901,0.731,1.649
			c-0.178,0.068-0.612,0.213-0.918,0.375c-0.187-0.52-0.468-1.148-0.757-1.642L144.162,122.969z"/>
		<path d="M153.125,123.599c1.19,0.595,2.355,1.352,3.07,2.058c-0.332,0.349-0.451,0.493-0.816,0.927
			c-1.038-0.995-2.092-1.59-2.687-1.904v4.149h-1.208v-7.458l1.208,0.068c0.085,0.008,0.162,0.017,0.162,0.094
			c0,0.093-0.111,0.119-0.162,0.127v2.551L153.125,123.599z M155.081,122.136c0.323,0.238,0.621,0.527,0.901,0.816
			c-0.162,0.136-0.468,0.408-0.621,0.553c-0.178-0.23-0.561-0.613-0.884-0.859L155.081,122.136z M155.906,121.48
			c0.196,0.145,0.672,0.579,0.876,0.825c-0.145,0.119-0.187,0.152-0.536,0.484c-0.375-0.391-0.536-0.553-0.91-0.842L155.906,121.48z
			"/>
		<path d="M157.828,128.981l-0.212-0.213l7.492-7.492l0.213,0.213L157.828,128.981z"/>
		<path d="M169.63,121.422v2.618h-2.296v4.957h-1.002v-7.575H169.63z M168.688,122.45v-0.324h-1.353v0.324H168.688z
			 M167.334,122.993v0.342h1.353v-0.342H167.334z M167.794,126.872v-0.748h1.641c0.017-0.195,0.025-0.324,0.025-0.435h-1.429v-0.729
			h0.672c-0.17-0.273-0.272-0.383-0.374-0.485l0.816-0.366c0.229,0.256,0.442,0.639,0.501,0.74l-0.281,0.111h0.978
			c0.051-0.094,0.238-0.435,0.391-0.859l0.868,0.289c0.042,0.018,0.085,0.06,0.085,0.102c0,0.068-0.085,0.094-0.204,0.111
			c-0.051,0.102-0.085,0.187-0.17,0.357h0.629v0.729h-1.548c0,0.196,0,0.308-0.009,0.435h1.803v0.748h-1.599
			c0.578,0.74,1.165,1.004,1.395,1.105l-0.051,0.051c0.085,0.018,0.332,0.043,0.451,0.043c0.229,0,0.247-0.119,0.247-0.314v-3.717
			h-2.304v-2.618h3.307v6.751c0,0.928-1.028,0.894-1.47,0.885c-0.026-0.221-0.051-0.468-0.29-0.979
			c-0.204,0.213-0.409,0.527-0.485,0.655c-0.561-0.306-1.054-0.714-1.403-1.25c-0.17,0.289-0.638,0.961-1.701,1.369
			c-0.145-0.247-0.349-0.511-0.613-0.739c0.757-0.256,1.31-0.57,1.599-1.242H167.794z M172.633,122.45v-0.324h-1.361v0.324H172.633z
			 M171.272,122.993v0.342h1.361v-0.342H171.272z"/>
		<path d="M177.14,125.052c0.076,0.035,0.136,0.077,0.136,0.119c0,0.103-0.162,0.077-0.229,0.068
			c-0.034,0.068-0.06,0.119-0.102,0.195h1.803v0.842h-0.314c0.017,0.025,0.017,0.043,0.017,0.061c0,0.084-0.136,0.102-0.213,0.102
			c-0.17,0.442-0.34,0.706-0.629,1.062c0.467,0.366,0.553,0.477,0.646,0.596c-0.272,0.289-0.519,0.646-0.578,0.74
			c-0.255-0.272-0.434-0.442-0.714-0.672c-0.629,0.527-1.148,0.74-1.607,0.875c-0.145-0.331-0.434-0.62-0.544-0.723
			c0.774-0.17,1.31-0.569,1.437-0.672c-0.162-0.119-0.357-0.229-0.527-0.331l-0.187,0.255c-0.289-0.221-0.493-0.307-0.782-0.383
			c0.153-0.203,0.306-0.399,0.646-0.91h-0.842v-0.842h1.369c0.085-0.136,0.179-0.289,0.315-0.569h-0.026v-0.808
			c-0.085,0.11-0.519,0.663-1.131,1.105c-0.136-0.162-0.425-0.442-0.697-0.578c0.612-0.35,1.114-0.893,1.335-1.14h-1.165v-0.808
			h0.612c-0.068-0.154-0.399-0.766-0.578-1.013l0.749-0.407c0.17,0.16,0.553,0.799,0.655,1.07c-0.17,0.061-0.681,0.298-0.766,0.35
			h1.012v-1.463l0.952,0.076c0.042,0,0.127,0.025,0.127,0.102c0,0.052-0.034,0.086-0.204,0.154v1.131h0.868
			c-0.136-0.103-0.255-0.162-0.646-0.324c0.255-0.383,0.425-0.688,0.579-1.07l0.825,0.314c0.06,0.025,0.085,0.067,0.085,0.102
			c0,0.119-0.179,0.137-0.238,0.145c-0.34,0.587-0.417,0.697-0.519,0.834h0.629v0.808h-1.174c0.29,0.323,0.502,0.51,0.961,0.842
			c-0.221,0.179-0.493,0.476-0.629,0.62c-0.349-0.297-0.57-0.569-0.74-0.799v0.757h-0.408L177.14,125.052z M176.451,126.276
			c-0.068,0.103-0.119,0.18-0.229,0.341c0.212,0.119,0.604,0.349,0.688,0.408c0.17-0.204,0.323-0.425,0.459-0.749H176.451z
			 M180.414,121.37c0.093,0.008,0.127,0.051,0.127,0.11s-0.017,0.103-0.212,0.171c-0.034,0.348-0.094,0.688-0.162,1.028h2.228v0.952
			h-0.4c-0.017,0.264-0.11,1.846-0.901,3.274c0.374,0.544,0.851,0.995,1.395,1.36c-0.238,0.238-0.493,0.536-0.68,0.783
			c-0.281-0.213-0.723-0.553-1.292-1.293c-0.127,0.152-0.638,0.773-1.556,1.293c-0.264-0.366-0.391-0.502-0.74-0.732
			c0.808-0.357,1.412-1.012,1.734-1.42c-0.408-0.782-0.536-1.31-0.629-1.862c-0.162,0.298-0.247,0.392-0.357,0.519
			c-0.119-0.11-0.297-0.297-0.791-0.484c0.298-0.4,0.629-0.885,0.859-1.727c0.094-0.332,0.323-1.25,0.375-2.1L180.414,121.37z
			 M179.972,123.632c0.068,1.148,0.477,2.075,0.57,2.288c0.408-0.944,0.476-2.058,0.493-2.288H179.972z"/>
		<path d="M183.186,128.624c0.417-0.442,1.446-1.522,1.446-3.495c0-1.974-1.029-3.053-1.446-3.495l0.629-0.57
			c1.403,1.412,1.675,3.002,1.675,4.065s-0.272,2.653-1.675,4.065L183.186,128.624z"/>
	</g>
	<g>
		<path d="M286.367,122.62c0.059,0.034,0.094,0.076,0.094,0.145c0,0.111-0.247,0.085-0.289,0.076
			c-0.545,0.8-0.758,1.105-1.361,1.838c0.221-0.018,0.271-0.018,0.757-0.068c-0.11-0.289-0.136-0.35-0.187-0.484l0.697-0.341
			c0.264,0.544,0.441,0.986,0.595,1.539c-0.399,0.161-0.519,0.213-0.833,0.399c-0.043-0.246-0.061-0.34-0.094-0.484
			c-0.145,0.025-0.272,0.06-0.46,0.085v3.656h-0.985v-3.485c-0.587,0.102-0.646,0.11-0.876,0.162
			c-0.025,0.076-0.06,0.186-0.145,0.186c-0.051,0-0.103-0.067-0.128-0.16l-0.195-0.869c0.094-0.008,0.639-0.042,0.697-0.042
			c0.179-0.195,0.468-0.535,0.536-0.62c-0.06-0.06-0.544-0.57-1.183-1.013l0.52-0.782c0.195,0.128,0.255,0.17,0.348,0.23
			c0.357-0.52,0.57-0.885,0.8-1.455l0.85,0.443c0.06,0.033,0.103,0.067,0.103,0.136c0,0.076-0.051,0.085-0.23,0.093
			c-0.331,0.57-0.705,1.105-0.857,1.31c0.127,0.118,0.178,0.179,0.254,0.247c0.426-0.604,0.646-0.986,0.773-1.216L286.367,122.62z
			 M284.121,126.069c0.051,0.008,0.17,0.025,0.17,0.095c0,0.087-0.127,0.13-0.188,0.138c-0.025,0.289-0.093,1.191-0.297,2.109
			c-0.314-0.085-0.611-0.17-0.832-0.195c0.322-0.97,0.391-1.975,0.399-2.224L284.121,126.069z M286.23,125.895
			c0.025,0.894,0.264,1.573,0.375,1.862c-0.332,0.085-0.418,0.137-0.766,0.332c-0.188-0.442-0.392-1.574-0.426-1.982L286.23,125.895
			z M290.992,122.331v0.918h-1.691v0.895h1.437v0.883h-3.886v-0.883h1.412v-0.895h-1.692v-0.918h1.692v-1.122l1.028,0.06
			c0.085,0.009,0.188,0.034,0.188,0.11c0,0.085-0.094,0.119-0.179,0.161v0.791H290.992z M287.932,128.521v0.468h-0.994v-3.426h3.74
			v3.426h-1.011v-0.468H287.932z M289.667,127.621v-1.157h-1.735v1.157H289.667z"/>
		<path d="M296.096,129.007h-1.029v-2.254c-1.021,1.113-2.203,1.743-2.679,1.998c-0.094-0.145-0.366-0.561-0.8-0.816
			c0.51-0.179,1.709-0.604,2.832-1.692h-2.695v-0.884h3.342v-0.562h-2.424v-3.358h5.936v3.358h-2.482v0.562h3.393v0.884h-2.756
			c0.91,0.885,2.16,1.421,2.807,1.54c-0.391,0.356-0.477,0.424-0.766,0.824c-0.604-0.221-1.828-0.876-2.678-1.888V129.007z
			 M295.066,122.714v-0.511h-1.344v0.511H295.066z M293.723,123.437v0.527h1.344v-0.527H293.723z M297.473,122.714v-0.511h-1.377
			v0.511H297.473z M296.096,123.437v0.527h1.377v-0.527H296.096z"/>
	</g>
	<g>
		<path d="M16.466,88.745v-1.037h7.229v1.037h-2.857c-0.025,1.48-0.519,2.279-0.961,2.756c-0.323,0.349-0.893,0.885-1.888,1.207
			c-0.272-0.408-0.612-0.714-0.859-0.9c2.296-0.639,2.534-2.041,2.56-3.062H16.466z M22.461,85.48v1.046h-4.855V85.48H22.461z
			 M23.074,85.753c0.187,0.152,0.646,0.586,0.851,0.833c-0.111,0.118-0.145,0.17-0.502,0.604c-0.425-0.519-0.731-0.774-0.876-0.894
			L23.074,85.753z M23.474,84.731c0.297,0.256,0.621,0.578,0.884,0.877c-0.179,0.161-0.281,0.264-0.51,0.543
			c-0.212-0.263-0.578-0.637-0.867-0.867L23.474,84.731z"/>
		<path d="M32.284,88.347v1.207h-7.339v-1.207H32.284z"/>
		<path d="M36.578,88.073c0.434,0.248,0.901,0.52,1.488,0.936c0.451-0.73,0.638-1.267,0.731-1.556h-2.219
			c-0.145,0.212-0.91,1.267-1.879,2.007c-0.332-0.34-0.502-0.484-0.901-0.773c1.292-0.851,2.219-2.178,2.806-3.641l1.14,0.366
			c0.102,0.034,0.153,0.052,0.153,0.103c0,0.11-0.153,0.11-0.204,0.119c-0.136,0.255-0.264,0.484-0.459,0.816h2.024
			c0.306,0,0.451-0.043,0.57-0.086l0.527,0.459c-0.06,0.103-0.119,0.222-0.179,0.357c-0.621,1.497-0.74,1.795-1.216,2.518
			c0.536,0.459,0.714,0.705,0.851,0.885c-0.247,0.289-0.604,0.791-0.714,0.961c-0.212-0.281-0.442-0.578-0.825-0.944
			c-1.199,1.31-2.526,1.862-3.266,2.16c-0.153-0.247-0.323-0.511-0.782-0.978c0.833-0.23,2.245-0.877,3.197-1.914
			c-0.604-0.459-1.148-0.782-1.531-1.012L36.578,88.073z"/>
		<path d="M49.411,85.446c-0.417,0.442-1.446,1.521-1.446,3.495c0,1.973,1.029,3.053,1.446,3.495l-0.629,0.57
			c-1.403-1.412-1.675-3.002-1.675-4.065s0.272-2.653,1.675-4.065L49.411,85.446z"/>
		<path d="M50.218,87.062v-0.978h3.342V84.97l1.097,0.051c0.051,0,0.162,0.01,0.162,0.094c0,0.068-0.085,0.111-0.162,0.137v0.833
			h3.325v0.978h-1.267c-0.425,1.378-0.961,2.373-1.829,3.342c1.157,0.919,2.39,1.311,3.223,1.498
			c-0.451,0.459-0.544,0.611-0.689,0.978c-1.412-0.425-2.61-1.208-3.265-1.761c-0.289,0.238-1.497,1.259-3.41,1.803
			c-0.119-0.322-0.493-0.688-0.782-0.867c1.616-0.426,2.695-1.071,3.427-1.65c-0.901-0.986-1.488-2.015-1.93-3.342H50.218z
			 M52.616,87.062c0.4,1.183,1.097,2.127,1.514,2.611c0.664-0.791,1.106-1.744,1.378-2.611H52.616z"/>
		<path d="M66.469,89.427v0.943h-3.231v1.378c0,0.654-0.247,1.13-1.854,1.122c-0.06-0.307-0.247-0.756-0.425-1.062
			c0.204,0.043,0.442,0.06,0.655,0.06c0.493,0,0.527-0.136,0.527-0.374V90.37h-3.342v-0.943h3.342v-0.775l0.527,0.094
			c0.068-0.051,0.315-0.229,0.51-0.477h-2.789v-0.942h4.073l0.638,0.586c-0.689,0.672-1.59,1.336-1.837,1.515H66.469z
			 M62.073,84.979l1.114,0.025c0.128,0,0.213,0.025,0.213,0.102c0,0.093-0.077,0.127-0.213,0.186v0.504h3.113V87.7h-1.072v-1.056
			h-5.145v1.098h-1.105v-1.946h3.095V84.979z"/>
		<path d="M67.251,86.203v-0.936h4.227v0.936h-1.862c-0.034,0.195-0.077,0.442-0.229,0.952h1.973c-0.076,2.713-1.803,5-3.266,5.826
			c-0.391-0.477-0.697-0.63-0.867-0.715c0.833-0.349,1.701-1.208,2.236-2.066c-0.391-0.314-0.773-0.545-1.131-0.74
			c-0.306,0.468-0.468,0.638-0.587,0.766c-0.221-0.256-0.553-0.52-0.816-0.664c0.502-0.467,0.816-0.951,1.106-1.606
			c0.229-0.527,0.442-1.233,0.536-1.752H67.251z M69.055,88.116c-0.128,0.289-0.077,0.179-0.221,0.468
			c0.357,0.179,0.859,0.511,1.105,0.688c0.153-0.356,0.306-0.773,0.332-1.156H69.055z M72.805,85.862
			c0.068,0,0.179,0.018,0.179,0.111c0,0.076-0.077,0.119-0.17,0.162v5.203h-1.021v-5.535L72.805,85.862z M74.778,85.004
			c0.068,0,0.212,0.009,0.212,0.094c0,0.067-0.085,0.119-0.187,0.17v6.582c0,0.919-0.468,1.003-1.76,1.029
			c-0.026-0.196-0.102-0.655-0.425-1.097c0.238,0.042,0.451,0.067,0.697,0.067c0.417,0,0.459-0.067,0.459-0.392v-6.514
			L74.778,85.004z"/>
		<path d="M75.84,92.437c0.417-0.442,1.446-1.522,1.446-3.495c0-1.974-1.029-3.053-1.446-3.495l0.629-0.57
			c1.403,1.412,1.675,3.002,1.675,4.065s-0.272,2.653-1.675,4.065L75.84,92.437z"/>
	</g>
	<g>
		<g>
			
				<path fill="none" stroke="#DB5434" stroke-width="2.8347" stroke-linecap="round" stroke-linejoin="round" stroke-dasharray="0,4.252" d="
				M93.167,64.193c0,0,37.019-5.849,46.896,12.848"/>
			<g>
				<polygon fill="#DB5434" points="133.932,77.295 142.333,84.86 144.686,73.802 				"/>
			</g>
		</g>
	</g>
	<g>
		<g>
			
				<line fill="none" stroke="#DB5434" stroke-width="2.8347" stroke-linecap="round" stroke-linejoin="round" stroke-dasharray="0,4.252" x1="182.406" y1="101.82" x2="211.232" y2="101.82"/>
			<g>
				<polygon fill="#DB5434" points="209.578,107.474 219.369,101.821 209.578,96.167 				"/>
			</g>
		</g>
	</g>
</g>
</svg>
